<?xml version="1.0" encoding="UTF-8"?>
<svg width="49px" height="31px" viewBox="0 0 49 31" version="1.1" xmlns="http://www.w3.org/2000/svg" xmlns:xlink="http://www.w3.org/1999/xlink">
    <!-- Generator: Sketch 46 (44423) - http://www.bohemiancoding.com/sketch -->
    <title>Sorting Icon</title>
    <desc>Created with Sketch.</desc>
    <defs></defs>
    <g id="Page-1" stroke="none" stroke-width="1" fill="none" fill-rule="evenodd">
        <g id="Desktop-HD" transform="translate(-491.000000, -266.000000)">
            <g id="Sorting-Icon" transform="translate(491.000000, 266.000000)">
                <rect id="Rectangle-4-Copy-2" fill-opacity="0.99" fill="#FFFFFF" x="0" y="22" width="35" height="8.01733398" rx="3"></rect>
                <rect id="Rectangle-4-Copy" fill="#FFFFFF" x="0" y="0" width="26.0036621" height="8.01733398" rx="3"></rect>
                <rect id="Rectangle-4-Copy-3" fill="#FFFFFF" x="0" y="11" width="35" height="8.01733398" rx="3"></rect>
                <path d="M28,4.01159668 C37.4944667,4.00470914 42.8378551,4.00470914 44.0301651,4.01159668 C46.0376802,4.02319336 47.0101929,4.99903458 47.0101929,7 C47.0101929,8.25466609 47.0101929,12.9191786 47.0101929,23 C47.0101929,25 45,26.022583 44,26.022583 C40,26.022583 43,26.022583 43,26.022583" id="Path-2" stroke="#FFFFFF" stroke-width="2"></path>
                <path d="M39.9734626,23.7246087 L42.9245051,27.6587691 L42.9245051,27.6587691 C43.0902057,27.8796717 43.0454557,28.1930754 42.8245532,28.358776 C42.7380002,28.4237001 42.6327226,28.4587966 42.5245257,28.4587966 L36.5412598,28.4587966 L36.5412598,28.4587966 C36.2651175,28.4587966 36.0412598,28.234939 36.0412598,27.9587966 C36.0412598,27.8483621 36.0778211,27.7410345 36.1452373,27.6535653 L39.1774606,23.7194048 L39.1774606,23.7194048 C39.3460352,23.5006876 39.6599972,23.460039 39.8787144,23.6286136 C39.9144879,23.6561857 39.9463605,23.6884778 39.9734626,23.7246087 Z" id="Triangle" fill="#FFFFFF" transform="translate(39.532907, 25.991704) rotate(-90.000000) translate(-39.532907, -25.991704) "></path>
            </g>
        </g>
    </g>
</svg>