<?xml version="1.0" encoding="UTF-8"?>
<svg width="30px" height="30px" viewBox="0 0 30 30" version="1.1" xmlns="http://www.w3.org/2000/svg" xmlns:xlink="http://www.w3.org/1999/xlink">
    <!-- Generator: Sketch 63.1 (92452) - https://sketch.com -->
    <title>noun_grid_2453309</title>
    <desc>Created with Sketch.</desc>
    <g id="Page-1" stroke="none" stroke-width="1" fill="none" fill-rule="evenodd">
        <g id="noun_grid_2453309" fill="#7922FF" fill-rule="nonzero">
            <path d="M16.5,3 L16.5,13.5 L27,13.5 L27,3 L16.5,3 Z M13.5,3 L3,3 L3,13.5 L13.5,13.5 L13.5,3 Z M16.5,27 L27,27 L27,16.5 L16.5,16.5 L16.5,27 Z M13.5,27 L13.5,16.5 L3,16.5 L3,27 L13.5,27 Z M3,0 L27,0 C28.6568542,0 30,1.34314575 30,3 L30,27 C30,28.6568542 28.6568542,30 27,30 L3,30 C1.34314575,30 0,28.6568542 0,27 L0,3 C0,1.34314575 1.34314575,0 3,0 Z" id="Shape"></path>
        </g>
    </g>
</svg>