<?xml version="1.0" encoding="UTF-8"?>
<svg width="30px" height="30px" viewBox="0 0 30 30" version="1.1" xmlns="http://www.w3.org/2000/svg" xmlns:xlink="http://www.w3.org/1999/xlink">
    <!-- Generator: Sketch 63.1 (92452) - https://sketch.com -->
    <title>noun_add_220401</title>
    <desc>Created with Sketch.</desc>
    <g id="Page-1" stroke="none" stroke-width="1" fill="none" fill-rule="evenodd">
        <g id="noun_add_220401">
            <g id="Group">
                <path d="M15,3 C8.383,3 3,8.383 3,15 C3,21.617 8.383,27 15,27 C21.6166667,27 27,21.617 27,15 C27,8.383 21.6166667,3 15,3 Z M19.5,16.735 L16.5,16.735 L16.5,19.735 C16.5,20.5633333 15.828,21.235 15,21.235 C14.1716667,21.235 13.5,20.5633333 13.5,19.735 L13.5,16.735 L10.5,16.735 C9.67166667,16.735 9,16.0633333 9,15.235 C9,14.4066667 9.67166667,13.735 10.5,13.735 L13.5,13.735 L13.5,10.735 C13.5,9.90666667 14.1716667,9.235 15,9.235 C15.828,9.235 16.5,9.90666667 16.5,10.735 L16.5,13.735 L19.5,13.735 C20.328,13.735 21,14.4066667 21,15.235 C21,16.0633333 20.328,16.735 19.5,16.735 Z" id="Shape"></path>
                <path d="M15,0 C6.729,0 0,6.729 0,15 C0,23.271 6.729,30 15,30 C23.271,30 30,23.271 30,15 C30,6.729 23.271,0 15,0 Z M15,27 C8.383,27 3,21.617 3,15 C3,8.383 8.383,3 15,3 C21.6166667,3 27,8.383 27,15 C27,21.617 21.6166667,27 15,27 Z" id="Shape" fill="#7922FF" fill-rule="nonzero"></path>
                <path d="M19.5,13.735 L16.5,13.735 L16.5,10.735 C16.5,9.90666667 15.828,9.235 15,9.235 C14.1716667,9.235 13.5,9.90666667 13.5,10.735 L13.5,13.735 L10.5,13.735 C9.67166667,13.735 9,14.4066667 9,15.235 C9,16.0633333 9.67166667,16.735 10.5,16.735 L13.5,16.735 L13.5,19.735 C13.5,20.5633333 14.1716667,21.235 15,21.235 C15.828,21.235 16.5,20.5633333 16.5,19.735 L16.5,16.735 L19.5,16.735 C20.328,16.735 21,16.0633333 21,15.235 C21,14.4066667 20.328,13.735 19.5,13.735 Z" id="Path" fill="#7922FF" fill-rule="nonzero"></path>
            </g>
        </g>
    </g>
</svg>