<?xml version="1.0" encoding="UTF-8"?>
<svg width="36px" height="36px" viewBox="0 0 36 36" version="1.1" xmlns="http://www.w3.org/2000/svg" xmlns:xlink="http://www.w3.org/1999/xlink">
    <!-- Generator: Sketch 64 (93537) - https://sketch.com -->
    <title>noun_brightness_2111674</title>
    <desc>Created with Sketch.</desc>
    <g id="Page-1" stroke="none" stroke-width="1" fill="none" fill-rule="evenodd">
        <g id="noun_brightness_2111674" fill="#7922FF" fill-rule="nonzero">
            <path d="M17.9765822,0.000183652632 C17.5789667,0.00638525134 17.2001014,0.170280018 16.9233371,0.455810881 C16.6465728,0.741341743 16.4945822,1.12511799 16.5008032,1.52270832 L16.5008032,6.02001656 C16.4931569,6.56064685 16.777218,7.06351404 17.244214,7.33606045 C17.71121,7.60860686 18.2887892,7.60860686 18.7557852,7.33606045 C19.2227812,7.06351404 19.5068424,6.56064685 19.499196,6.02001656 L19.499196,1.52270832 C19.5055444,1.11699795 19.3471663,0.726039487 19.0602332,0.439123259 C18.7733002,0.152207031 18.3823179,-0.00616277284 17.9765822,0.000183652632 Z M6.33145495,4.8342038 C5.72139599,4.8343612 5.17225879,5.20411181 4.94269712,5.76929628 C4.71313544,6.33448075 4.84892653,6.98239478 5.28611027,7.4078589 L8.46604077,10.5875967 C8.84208567,10.979125 9.40041346,11.1368075 9.92573378,10.9998422 C10.4510541,10.8628769 10.861297,10.4526617 10.9982734,9.92737487 C11.1352499,9.40208805 10.9775602,8.84379436 10.5860094,8.46777101 L7.40606394,5.28803317 C7.12381099,4.99791046 6.7362369,4.8342038 6.33145495,4.8342038 L6.33145495,4.8342038 Z M29.6246336,4.8342038 C29.2351445,4.8458084 28.865473,5.00857951 28.5939361,5.28803317 L25.4139906,8.46777101 C25.0224398,8.84379436 24.8647501,9.40208805 25.0017266,9.92737487 C25.138703,10.4526617 25.5489459,10.8628769 26.0742662,10.9998422 C26.5995865,11.1368075 27.1579143,10.979125 27.5339592,10.5875967 L30.7138897,7.4078589 C31.1572924,6.97688022 31.2906138,6.31791345 31.0496125,5.74848425 C30.8086112,5.17905506 30.2427271,4.81597825 29.6246336,4.8342038 Z M17.9999996,9.01822205 C13.0498637,9.01822205 9.00482197,13.0630066 9.00482197,18.0128381 C9.00482197,22.962673 13.0498637,27.0074546 17.9999996,27.0074546 C22.9501363,27.0074546 26.995178,22.962673 26.995178,18.0128381 C26.995178,13.0630066 22.9501363,9.01822205 17.9999996,9.01822205 Z M17.9999996,12.0164275 C21.3296848,12.0164275 23.9967852,14.6833568 23.9967852,18.0128381 C23.9967852,21.3423228 21.3296848,24.0092491 17.9999996,24.0092491 C14.6703152,24.0092491 12.0032148,21.3423228 12.0032148,18.0128381 C12.0032148,14.6833568 14.6703152,12.0164275 17.9999996,12.0164275 L17.9999996,12.0164275 Z M1.52054869,16.5020243 C0.979884621,16.4943785 0.476986013,16.7784219 0.204422577,17.2453887 C-0.068140859,17.7123555 -0.068140859,18.2898986 0.204422577,18.7568655 C0.476986013,19.2238323 0.979884621,19.5078757 1.52054869,19.5002298 L6.01813789,19.5002298 C6.55880196,19.5078757 7.06170057,19.2238323 7.334264,18.7568655 C7.60682744,18.2898986 7.60682744,17.7123555 7.334264,17.2453887 C7.06170057,16.7784219 6.55880196,16.4943785 6.01813789,16.5020243 L1.52054869,16.5020243 L1.52054869,16.5020243 Z M29.9818621,16.5020243 C29.441198,16.4943785 28.9382994,16.7784219 28.665736,17.2453887 C28.3931726,17.7123555 28.3931726,18.2898986 28.665736,18.7568655 C28.9382994,19.2238323 29.441198,19.5078757 29.9818621,19.5002298 L34.4794513,19.5002298 C35.0201154,19.5078757 35.523014,19.2238323 35.7955774,18.7568655 C36.0681409,18.2898986 36.0681409,17.7123555 35.7955774,17.2453887 C35.523014,16.7784219 35.0201154,16.4943785 34.4794513,16.5020243 L29.9818621,16.5020243 L29.9818621,16.5020243 Z M9.49673829,24.9608285 C9.10724922,24.9724331 8.73757772,25.1352042 8.46604077,25.4146579 L5.28611027,28.5943957 C4.89444761,28.9703926 4.73667084,29.5287392 4.87363063,30.0540948 C5.01059042,30.5794504 5.42088463,30.9897199 5.94627276,31.1266722 C6.47166089,31.2636246 7.03004271,31.1058589 7.40606394,30.7142214 L10.5860094,27.5344836 C11.0294144,27.1035031 11.162735,26.4445324 10.9217298,25.8751017 C10.6807245,25.305671 10.1148345,24.9425965 9.49673829,24.9608285 Z M26.4563968,24.9608258 C25.846873,24.9621787 25.2988283,25.3323648 25.0700212,25.8972795 C24.8412141,26.4621941 24.9771878,27.1093932 25.4139906,27.5344836 L28.5939361,30.7142214 C28.9699573,31.1058589 29.5283391,31.2636246 30.0537272,31.1266722 C30.5791154,30.9897199 30.9894096,30.5794504 31.1263694,30.0540948 C31.2633292,29.5287392 31.1055524,28.9703926 30.7138897,28.5943957 L27.5339592,25.4146579 C27.2509921,25.1237996 26.8622034,24.9600562 26.4563968,24.9608258 L26.4563968,24.9608258 Z M17.9765822,28.4626396 C17.1497481,28.4755594 16.4894802,29.1554323 16.5008032,29.9822381 L16.5008032,34.4795463 C16.4931569,35.0201766 16.777218,35.5230438 17.244214,35.7955902 C17.71121,36.0681366 18.2887892,36.0681366 18.7557852,35.7955902 C19.2227812,35.5230438 19.5068424,35.0201766 19.499196,34.4795463 L19.499196,29.9822381 C19.5047452,29.5770314 19.3460141,29.1868366 19.05917,28.9005606 C18.7723259,28.6142846 18.3818027,28.4563128 17.9765822,28.4626396 L17.9765822,28.4626396 Z" id="Shape"></path>
        </g>
    </g>
</svg>