<?xml version="1.0" encoding="UTF-8"?>
<svg width="30px" height="30px" viewBox="0 0 30 30" version="1.1" xmlns="http://www.w3.org/2000/svg" xmlns:xlink="http://www.w3.org/1999/xlink">
    <!-- Generator: Sketch 63.1 (92452) - https://sketch.com -->
    <title>noun_link_829066</title>
    <desc>Created with Sketch.</desc>
    <g id="Page-1" stroke="none" stroke-width="1" fill="none" fill-rule="evenodd">
        <g id="noun_link_829066" fill="#7922FF" fill-rule="nonzero">
            <path d="M15.962449,2.50714286 L10.5202041,7.94908163 L12.617449,10.0454082 L18.06,4.60438776 C20.082551,2.58061224 23.3742857,2.58061224 25.3980612,4.60438776 C27.4215306,6.62755102 27.4215306,9.91959184 25.3977551,11.9427551 L19.9555102,17.3846939 L22.0527551,19.4819388 L27.4953061,14.04 C30.6740816,10.86 30.6743878,5.68653061 27.495,2.50744898 C24.3153061,-0.672857143 19.1418367,-0.672244898 15.962449,2.50714286 Z M4.60530612,25.3968367 C3.62479592,24.4169388 3.0844898,23.1134694 3.08479592,21.7279592 C3.08479592,20.3412245 3.62418367,19.0389796 4.60438776,18.0587755 L4.60530612,18.0584694 L10.0469388,12.6162245 L7.94969388,10.519898 L2.50806122,15.9612245 C2.50806122,15.9612245 2.50806122,15.9615306 2.5077551,15.9618367 C0.967653061,17.5022449 0.119081633,19.5502041 0.120610178,21.7273469 C0.119387755,23.9054082 0.968571429,25.9536735 2.50836735,27.4937755 C5.68714286,30.6719388 10.8612245,30.6728571 14.0412245,27.4937755 L19.482551,22.0518367 L17.385,19.9552041 L11.9436735,25.3965306 C9.92020408,27.4196939 6.62816327,27.4203061 4.60530612,25.3968367 Z M10.1090816,21.99 L21.9909184,10.1072449 L19.8939796,8.01 L8.01244898,19.8930612 L10.1090816,21.99 Z" id="Shape"></path>
        </g>
    </g>
</svg>