<?xml version="1.0" encoding="UTF-8"?>
<svg width="34px" height="34px" viewBox="0 0 34 34" version="1.1" xmlns="http://www.w3.org/2000/svg" xmlns:xlink="http://www.w3.org/1999/xlink">
    <!-- Generator: Sketch 51.3 (57544) - http://www.bohemiancoding.com/sketch -->
    <title>Shape</title>
    <desc>Created with Sketch.</desc>
    <defs></defs>
    <g id="Page-1" stroke="none" stroke-width="1" fill="none" fill-rule="evenodd">
        <g id="Desktop-HD" transform="translate(-373.000000, -654.000000)" fill="#FFFFFF" fill-rule="nonzero">
            <g id="Hero" transform="translate(-2.000000, 0.000000)">
                <g id="Features" transform="translate(0.000000, 627.000000)">
                    <g id="Group-2" transform="translate(311.000000, 7.000000)">
                        <path d="M81.0715789,20 C70.5852632,20 64,22.1473684 64,23.8652632 C64,25.9768421 69.7263158,30.9873684 71.2294737,32.3473684 C72.9115789,33.8863158 76.9557895,38.1094737 77.1347368,38.7894737 C77.1705263,39.5410526 77.8505263,51.3157895 77.8505263,51.3157895 C77.8505263,51.3157895 77.7789474,53.2842105 81.0715789,53.2842105 C84.3642105,53.2842105 84.1136842,51.3873684 84.1136842,51.3873684 C84.1136842,51.3873684 84.9010526,39.6842105 84.9010526,38.9326316 C84.9010526,38.1452632 87.8715789,35.0673684 91.5221053,31.7747368 C95.1368421,28.4821053 98,26.12 98,23.8652632 C98,22.0757895 91.5578947,20 81.0715789,20 Z M81,26.6568421 C73.1978947,26.6568421 66.8631579,25.4280702 66.8631579,24.0322807 C66.8631579,22.6364912 73.1978947,21.0498246 81,21.0498246 C88.8021053,21.0498246 95.1368421,22.6364912 95.1368421,24.0322807 C95.1368421,25.4280702 88.8021053,26.6568421 81,26.6568421 Z" id="Shape"></path>
                    </g>
                </g>
            </g>
        </g>
    </g>
</svg>