<?xml version="1.0" encoding="UTF-8"?>
<svg width="836px" height="237px" viewBox="0 0 836 237" version="1.1" xmlns="http://www.w3.org/2000/svg" xmlns:xlink="http://www.w3.org/1999/xlink">
    <!-- Generator: Sketch 51.3 (57544) - http://www.bohemiancoding.com/sketch -->
    <title>trello</title>
    <desc>Created with Sketch.</desc>
    <defs></defs>
    <g id="Page-1" stroke="none" stroke-width="1" fill="none" fill-rule="evenodd">
        <g id="trello" fill="#FFFFFF" fill-rule="nonzero">
            <path d="M673.294,177.59 C660.524,182.793 650.444,200.77 635.118,210.99 C634.168,211.622 633.218,211.94 632.584,211.94 C631.317,211.94 629.734,210.672 629.734,204.97 C629.734,185.328 636.069,175.824 641.454,161.885 C660.146,113.415 692.142,71.915 720.654,26.611 C722.872,23.127 724.139,19.326 724.139,15.207 C724.139,11.723 722.871,8.871 721.287,5.387 C720.02,2.534 714.318,0 707.982,0 C704.498,0 701.33,0.317 697.212,0.317 C682.322,0.317 679.154,22.177 675.669,27.877 C651.909,68.112 624.663,117.85 610.724,153.014 C607.667,160.897 604.364,168.781 601.856,176.871 C588.081,180.861 577.761,200.229 561.62,210.991 C560.67,211.623 559.72,211.941 559.086,211.941 C557.819,211.941 556.236,210.673 556.236,204.971 C556.236,185.329 562.571,175.825 567.956,161.886 C586.648,113.416 618.646,71.916 647.156,26.612 C649.374,23.128 650.642,19.327 650.642,15.208 C650.642,11.724 649.374,8.872 647.79,5.388 C646.523,2.534 640.82,0 634.485,0 C631,0 627.832,0.317 623.715,0.317 C608.825,0.317 605.655,22.177 602.171,27.877 C578.411,68.112 551.167,117.85 537.228,153.014 C536.12,155.872 534.98,158.73 533.856,161.598 C533.51,161.783 533.156,161.984 532.793,162.202 C516.636,171.706 503.013,188.496 483.373,199.902 C479.571,202.118 467.849,210.355 458.345,210.355 C456.127,210.355 454.227,209.722 452.325,208.771 C449.475,207.505 446.623,201.486 446.623,199.585 C446.623,198.001 446.94,197.685 450.108,195.783 C477.988,178.993 500.796,154.916 520.438,130.839 C527.724,121.969 537.228,104.545 537.228,91.873 C537.228,83.636 534.378,74.133 524.556,70.647 C517.586,68.113 509.666,66.847 503.331,66.847 C486.541,66.847 474.185,74.449 467.215,81.735 C460.12,89.31 453.257,97.088 446.88,105.14 C440.217,99.387 430.82,96.94 421.912,96.94 C411.458,96.94 391.816,109.93 381.678,117.533 C380.094,118.8 379.144,119.433 378.51,119.433 C378.194,119.433 377.877,119.117 377.877,118.483 C377.877,118.166 378.51,115.315 378.51,110.246 C378.51,105.811 377.56,100.109 373.442,93.139 C372.492,91.554 366.789,88.069 359.819,88.069 C351.265,88.069 343.345,92.189 343.345,96.623 C343.345,99.791 346.195,101.058 346.195,103.909 C346.195,105.493 344.929,112.779 343.028,119.749 C337.641,140.025 330.988,159.983 324.018,179.941 C320.218,191.029 307.545,200.851 307.545,212.889 C307.545,216.689 310.08,221.759 313.565,225.561 C319.267,231.897 322.752,234.114 327.82,234.114 C330.038,234.114 332.572,233.481 334.79,231.58 C339.542,227.462 342.076,223.344 343.344,217.642 C351.58,180.259 375.34,154.915 401.634,138.125 C410.504,132.422 422.544,126.403 424.128,126.403 C425.752,126.403 428.292,127.153 430.852,127.883 C423.502,139.873 417.546,152.515 413.672,166.003 C412.406,170.438 411.772,174.557 411.772,178.993 C411.772,186.278 413.356,193.883 415.892,201.168 C419.376,211.306 425.078,220.176 432.998,224.294 C447.571,231.898 458.025,236.016 467.528,236.016 C472.915,236.016 477.033,235.066 481.468,232.531 C502.291,220.751 515.058,211.813 524.275,203.875 C524.528,211.925 526.115,216.383 531.84,222.395 C537.542,228.415 546.412,233.799 558.134,236.335 C560.034,236.651 561.936,236.967 563.836,236.967 C577.246,236.967 590.154,226.067 600.106,215.261 C601.258,217.619 602.933,219.871 605.336,222.395 C611.04,228.415 619.91,233.799 631.632,236.335 C633.532,236.651 635.432,236.967 637.334,236.967 C653.044,236.967 668.061,222.01 678.448,209.767 C681.91,216.929 691.585,224.007 703.228,229.681 C706.396,231.265 710.198,232.215 713.683,232.215 C727.305,232.215 737.126,221.127 744.729,212.891 C764.372,191.348 775.143,164.737 783.379,131.156 C784.013,128.622 784.964,127.671 786.231,127.671 C789.399,127.671 793.517,127.671 797.953,127.038 C806.506,125.771 813.159,122.918 821.079,121.652 C825.831,120.702 825.197,119.119 829.633,117.535 C832.801,116.268 835.335,115 835.335,111.832 C835.335,106.447 825.515,100.744 810.625,100.744 C798.903,100.744 791.933,101.694 787.181,101.694 C779.895,101.694 777.994,99.477 773.241,87.122 C773.241,87.122 777.994,99.477 773.241,87.122 C772.291,84.588 771.341,83.32 768.491,80.786 C761.837,75.084 753.601,73.183 746.948,73.183 C731.108,73.183 717.484,89.341 707.98,102.963 C705.763,106.131 702.595,108.665 700.377,112.15 C687.327,131.725 674.832,153.8 673.291,177.593 L673.294,177.59 Z M268.264,69.696 C276.184,69.696 280.619,69.062 281.57,69.062 C282.52,69.062 283.154,69.379 283.154,70.33 C283.154,70.963 282.837,71.914 280.619,76.666 C261.293,118.166 247.989,160.301 236.266,206.87 C235.949,208.138 234.999,212.89 234.999,217.642 C234.999,222.077 236.266,226.829 240.701,229.362 C249.255,234.432 256.225,236.65 260.977,236.65 C267.947,236.65 271.431,232.214 271.431,224.928 C271.431,218.592 271.748,211.938 272.698,206.87 C281.568,160.3 294.873,123.87 315.465,85.853 C325.285,67.795 326.553,66.845 326.553,65.261 C326.553,64.628 326.236,63.678 325.603,62.727 C338.275,59.877 353.481,57.975 367.42,57.975 C369.004,57.975 375.34,60.193 376.29,61.143 C378.508,63.361 380.726,65.579 384.528,65.579 C387.696,65.579 393.081,63.361 394.982,62.094 C399.417,58.926 401.635,55.441 401.635,49.739 C401.635,44.353 381.675,31.047 367.737,31.047 C350.629,31.047 335.107,33.265 320.533,36.117 C314.197,37.383 291.387,40.867 274.913,40.867 C259.073,40.867 260.023,38.651 253.371,38.651 C249.571,38.651 247.669,40.551 246.085,42.135 C244.501,43.719 243.551,50.055 243.551,55.758 C243.551,58.608 243.551,60.828 245.135,62.728 C249.887,68.43 259.075,69.698 268.261,69.698 C268.261,69.698 259.074,69.698 268.261,69.698 L268.264,69.696 Z M503.014,95.356 C503.014,98.208 502.062,100.109 498.261,106.128 C494.461,112.148 496.044,112.148 491.291,118.483 C482.105,130.838 470.701,143.193 455.811,156.816 C451.691,160.618 451.059,160.618 450.425,160.618 C450.108,160.618 449.475,160.301 449.475,159.668 C449.475,158.718 449.791,157.45 452.959,150.798 C462.779,130.205 474.819,116.582 488.124,103.278 C495.411,95.99 499.846,93.456 501.43,93.456 C502.38,93.456 503.013,93.773 503.013,95.356 C503.013,95.356 503.013,93.773 503.013,95.356 L503.014,95.356 Z M746.632,103.594 C746.949,103.594 747.266,103.91 747.582,104.544 C747.899,105.494 748.532,106.444 750.117,107.712 C751.384,108.662 751.384,113.098 751.384,116.582 C751.384,147.312 733.96,172.656 716.854,198.317 C713.051,204.019 710.834,204.97 708.934,204.97 C707.349,204.97 704.814,200.85 703.864,198.317 C702.597,194.832 702.28,190.714 702.28,189.13 C702.28,164.42 725.723,127.67 741.246,107.395 C743.781,103.91 745.682,103.595 746.632,103.595 C746.632,103.595 745.682,103.595 746.632,103.595 L746.632,103.594 Z" id="Shape"></path>
            <path d="M25,35 L175,35 C188.8,35 200,46.193 200,60 L200,210 C200,223.8 188.806,235 175,235 L25,235 C11.2,235 0,223.806 0,210 L0,60 C0,46.2 11.193,35 25,35 Z M124.997,61 C118.37,61 113,66.372 113,73.006 L113,136.994 C113,143.624 118.373,149 124.997,149 L162.003,149 C168.629,149 174,143.628 174,136.994 L174,73.006 C174,66.376 168.627,61 162.003,61 L124.997,61 Z M37.997,61 C31.37,61 26,66.367 26,73.005 L26,186.995 C26,193.625 31.373,199 37.997,199 L75.003,199 C81.629,199 87,193.633 87,186.995 L87,73.005 C87,66.375 81.627,61 75.003,61 L37.997,61 Z" id="Shape"></path>
        </g>
    </g>
</svg>