<?xml version="1.0" encoding="UTF-8"?>
<svg width="146px" height="33px" viewBox="0 0 146 33" version="1.1" xmlns="http://www.w3.org/2000/svg" xmlns:xlink="http://www.w3.org/1999/xlink">
    <!-- Generator: Sketch 59 (86127) - https://sketch.com -->
    <title>basecamp-logo</title>
    <desc>Created with Sketch.</desc>
    <g id="Page-1" stroke="none" stroke-width="1" fill="none" fill-rule="evenodd">
        <g id="basecamp-logo" transform="translate(1.000000, 1.000000)">
            <path d="M41.79,7.87 L47.91,7.87 C51.3,7.87 53.06,9.26 53.06,11.87 L53.06,12 C53.1598343,13.5806779 52.0883361,14.9965862 50.54,15.33 C52.4072344,15.4943487 53.7942402,17.1311047 53.65,19 L53.65,19.09 C53.65,21.94 51.78,23.44 48.19,23.44 L41.79,23.44 L41.79,7.87 Z M47.34,14.26 C49.04,14.26 49.71,13.65 49.71,12.26 L49.71,12.17 C49.71,10.87 48.97,10.28 47.32,10.28 L45.23,10.28 L45.23,14.28 L47.34,14.26 Z M47.64,20.99 C49.38,20.99 50.17,20.2 50.17,18.79 L50.17,18.7 C50.17,17.26 49.38,16.53 47.47,16.53 L45.23,16.53 L45.23,21 L47.64,20.99 Z" id="Shape" fill="#FFFFFF" fill-rule="nonzero"></path>
            <path d="M54.57,20.27 C54.57,17.61 57,16.61 60.49,16.61 L61.77,16.61 L61.77,16.16 C61.77,14.81 61.36,14.07 59.92,14.07 C59.4488797,14.014063 58.9755765,14.1552063 58.6120426,14.4600446 C58.2485087,14.7648829 58.0270323,15.2063413 58,15.68 L55,15.68 C55.2,12.98 57.33,11.78 60.12,11.78 C62.91,11.78 64.88,12.91 64.88,16 L64.88,23.42 L61.81,23.42 L61.81,22.05 C61.0262645,23.1542877 59.7200118,23.7656444 58.37,23.66 C56.31,23.66 54.57,22.66 54.57,20.27 Z M61.77,19.44 L61.77,18.44 L60.55,18.44 C58.72,18.44 57.66,18.84 57.66,20.05 C57.66,20.88 58.16,21.43 59.31,21.43 C60.7,21.47 61.77,20.7 61.77,19.44 Z" id="Shape" fill="#FFFFFF" fill-rule="nonzero"></path>
            <path d="M66.21,19.85 L69.15,19.85 C69.28,20.85 69.78,21.47 71.15,21.47 C72.37,21.47 72.94,21.01 72.94,20.22 C72.94,19.43 72.26,19.11 70.63,18.88 C67.63,18.42 66.43,17.55 66.43,15.33 C66.43,13.11 68.61,11.78 70.93,11.78 C73.46,11.78 75.35,12.7 75.63,15.31 L72.74,15.31 C72.57,14.37 72.04,13.94 70.96,13.94 C69.88,13.94 69.35,14.42 69.35,15.11 C69.35,15.8 69.89,16.11 71.54,16.35 C74.39,16.76 75.96,17.48 75.96,19.92 C75.96,22.36 74.18,23.66 71.17,23.66 C68.16,23.66 66.32,22.31 66.21,19.85 Z" id="Path" fill="#FFFFFF" fill-rule="nonzero"></path>
            <path d="M76.77,17.87 L76.77,17.7 C76.6933456,16.1199414 77.2826082,14.5801143 78.3945202,13.4548975 C79.5064321,12.3296806 81.0391414,11.7221446 82.62,11.78 C85.56,11.78 88.17,13.5 88.17,17.57 L88.17,18.44 L80,18.44 C80.08,20.33 81.11,21.44 82.82,21.44 C84.28,21.44 85,20.81 85.2,19.85 L88.2,19.85 C87.83,22.31 85.87,23.68 82.76,23.68 C79.27,23.66 76.77,21.51 76.77,17.87 Z M85.1,16.5 C85,14.78 84.12,14 82.62,14 C81.2165549,13.9933764 80.0591341,15.0977856 80,16.5 L85.1,16.5 Z" id="Shape" fill="#FFFFFF" fill-rule="nonzero"></path>
            <path d="M89,17.87 L89,17.7 C88.9229543,16.1163324 89.5148835,14.5731676 90.6312653,13.4472766 C91.7476471,12.3213855 93.2857359,11.7163891 94.87,11.78 C97.51,11.78 99.94,12.93 100.23,16.2 L97.23,16.2 C97.1896808,15.6329275 96.9211716,15.1064312 96.4858281,14.740818 C96.0504847,14.3752049 95.4855087,14.201718 94.92,14.26 C93.29,14.26 92.2,15.48 92.2,17.66 L92.2,17.83 C92.2,20.12 93.2,21.29 94.99,21.29 C95.6051958,21.3253687 96.2088555,21.1123975 96.6656648,20.6988252 C97.1224741,20.285253 97.3942241,19.7056723 97.42,19.09 L100.27,19.09 C100.1,21.79 98.14,23.66 94.83,23.66 C91.52,23.66 89,21.59 89,17.87 Z" id="Path" fill="#FFFFFF" fill-rule="nonzero"></path>
            <path d="M101,20.27 C101,17.61 103.43,16.61 106.91,16.61 L108.2,16.61 L108.2,16.16 C108.2,14.81 107.78,14.07 106.35,14.07 C105.875685,14.0080786 105.397007,14.1464742 105.028915,14.451953 C104.660822,14.7574317 104.436567,15.2023982 104.41,15.68 L101.41,15.68 C101.61,12.98 103.74,11.78 106.52,11.78 C109.3,11.78 111.29,12.91 111.29,16 L111.29,23.42 L108.22,23.42 L108.22,22.05 C107.436265,23.1542877 106.130012,23.7656444 104.78,23.66 C102.78,23.66 101,22.66 101,20.27 Z M108.2,19.44 L108.2,18.44 L107,18.44 C105.17,18.44 104.1,18.84 104.1,20.05 C104.1,20.88 104.61,21.43 105.76,21.43 C107.17,21.47 108.24,20.7 108.24,19.44 L108.2,19.44 Z" id="Shape" fill="#FFFFFF" fill-rule="nonzero"></path>
            <path d="M113.51,12 L116.66,12 L116.66,13.74 C117.359937,12.4801451 118.699071,11.7105278 120.14,11.74 C121.525879,11.6291403 122.819666,12.4428427 123.32,13.74 C124.173462,12.4653724 125.616284,11.7119409 127.15,11.74 C129.26,11.74 130.89,13.07 130.89,16.09 L130.89,23.38 L127.76,23.38 L127.76,16.48 C127.76,15.02 127.11,14.37 125.97,14.37 C125.356336,14.343302 124.761501,14.5853412 124.340819,15.0329159 C123.920137,15.4804906 123.715375,16.0891646 123.78,16.7 L123.78,23.42 L120.64,23.42 L120.64,16.48 C120.64,15.02 119.97,14.37 118.86,14.37 C118.244635,14.3402881 117.64702,14.5810093 117.22406,15.0289625 C116.8011,15.4769157 116.595047,16.0873513 116.66,16.7 L116.66,23.42 L113.51,23.42 L113.51,12 Z" id="Path" fill="#FFFFFF" fill-rule="nonzero"></path>
            <path d="M133.05,12 L136.21,12 L136.21,13.79 C136.975885,12.5164568 138.353902,11.738238 139.84,11.739997 C142.63,11.739997 144.84,13.81 144.84,17.57 L144.84,17.75 C144.84,21.51 142.71,23.62 139.84,23.62 C138.352038,23.6810427 136.953355,22.9104187 136.21,21.62 L136.21,27.3 L133.05,27.3 L133.05,12 Z M141.6,17.77 L141.6,17.6 C141.6,15.29 140.47,14.16 138.88,14.16 C137.29,14.16 136.1,15.31 136.1,17.6 L136.1,17.77 C136.1,20.05 137.19,21.16 138.91,21.16 C140.63,21.16 141.6,20 141.6,17.81 L141.6,17.77 Z" id="Shape" fill="#FFFFFF" fill-rule="nonzero"></path>
            <path d="M0.71,16.73 C3.32,9.33 8.32,0.73 18.41,0.73 C28.5,0.73 33.49,14 34.12,23 C31.47,27.6 25.12,29.33 18.41,29.33 C12.9139784,29.4194958 7.65211967,27.1080755 4,23 C4,23 7.16,14.47 10.11,14.45 C12.28,14.45 14.11,18.45 15.84,18.45 C17.57,18.45 21.17,10.77 21.17,10.77" id="Path" stroke="#FFFFFF" stroke-width="3.41" stroke-linecap="round" stroke-linejoin="round"></path>
        </g>
    </g>
</svg>