<?xml version="1.0" encoding="UTF-8"?>
<svg width="448px" height="448px" viewBox="0 0 448 448" version="1.1" xmlns="http://www.w3.org/2000/svg" xmlns:xlink="http://www.w3.org/1999/xlink">
    <!-- Generator: Sketch 46 (44423) - http://www.bohemiancoding.com/sketch -->
    <title>Shape</title>
    <desc>Created with Sketch.</desc>
    <defs></defs>
    <g id="Page-1" stroke="none" stroke-width="1" fill="none" fill-rule="evenodd">
        <g id="checkmark" fill-rule="nonzero" fill="#FFFFFF">
            <path d="M224,0 C100.3,0 0,100.3 0,224 C0,347.7 100.3,448 224,448 C347.7,448 448,347.7 448,224 C448,100.3 347.7,0 224,0 Z M338.9,149.1 L199.8,327.6 C198.7,328.7 196.9,331.1 194.7,331.1 C192.4,331.1 190.9,329.5 189.6,328.2 C188.3,326.9 110.7,252.3 110.7,252.3 L109.2,250.8 C108.6,249.9 108.1,248.8 108.1,247.6 C108.1,246.4 108.6,245.3 109.2,244.4 C109.6,244 109.9,243.7 110.3,243.2 C118,235.1 133.6,218.7 134.6,217.7 C135.9,216.4 137,214.7 139.4,214.7 C141.9,214.7 143.5,216.8 144.7,218 C145.9,219.2 189.7,261.3 189.7,261.3 L301,118.3 C302,117.5 303.2,116.9 304.5,116.9 C305.8,116.9 307,117.4 308,118.2 L338.6,142.3 C339.4,143.3 339.9,144.5 339.9,145.8 C340,147.1 339.5,148.2 338.9,149.1 Z" id="Shape"></path>
        </g>
    </g>
</svg>