<?xml version="1.0" encoding="UTF-8"?>
<svg width="28px" height="24px" viewBox="0 0 28 24" version="1.1" xmlns="http://www.w3.org/2000/svg" xmlns:xlink="http://www.w3.org/1999/xlink">
    <!-- Generator: Sketch 57.1 (83088) - https://sketch.com -->
    <title>ant-design:desktop-outline</title>
    <desc>Created with Sketch.</desc>
    <g id="Website" stroke="none" stroke-width="1" fill="none" fill-rule="evenodd">
        <g id="03-DOWNLOAD" transform="translate(-456.000000, -354.000000)" fill-rule="nonzero">
            <g id="HERO" transform="translate(0.000000, -15.000000)">
                <g id="Website/Download-Buttons" transform="translate(211.000000, 365.000000)">
                    <g id="ant-design:desktop-outline" transform="translate(243.000000, 0.000000)">
                        <g id="Icon" fill="#000000">
                            <path d="M29,4.375 L3,4.375 C2.446875,4.375 2,4.821875 2,5.375 L2,20.875 C2,21.428125 2.446875,21.875 3,21.875 L14.875,21.875 L14.875,25.375 L9.5,25.375 C9.225,25.375 9,25.6 9,25.875 L9,27.375 C9,27.5125 9.1125,27.625 9.25,27.625 L22.75,27.625 C22.8875,27.625 23,27.5125 23,27.375 L23,25.875 C23,25.6 22.775,25.375 22.5,25.375 L17.125,25.375 L17.125,21.875 L29,21.875 C29.553125,21.875 30,21.428125 30,20.875 L30,5.375 C30,4.821875 29.553125,4.375 29,4.375 Z M27.75,19.625 L4.25,19.625 L4.25,6.625 L27.75,6.625 L27.75,19.625 Z" id="Icon-Shape"></path>
                        </g>
                        <rect id="ViewBox" x="0" y="0" width="32" height="32"></rect>
                    </g>
                </g>
            </g>
        </g>
    </g>
</svg>