<?xml version="1.0" encoding="UTF-8"?>
<svg width="184px" height="179px" viewBox="0 0 184 179" version="1.1" xmlns="http://www.w3.org/2000/svg" xmlns:xlink="http://www.w3.org/1999/xlink">
    <!-- Generator: Sketch 51.3 (57544) - http://www.bohemiancoding.com/sketch -->
    <title>Shape</title>
    <desc>Created with Sketch.</desc>
    <defs></defs>
    <g id="Page-1" stroke="none" stroke-width="1" fill="none" fill-rule="evenodd">
        <g id="g3018" fill="#FFFFFF">
            <path d="M92,0 C41.17,0 0,41.0643 0,91.7637989 C0,132.36928 26.335,166.666 62.905,178.824703 C67.505,179.627636 69.23,176.874722 69.23,174.465923 C69.23,172.286533 69.115,165.060133 69.115,157.374915 C46,161.618991 40.02,151.754383 38.18,146.592669 C37.145,143.95446 32.66,135.810422 28.75,133.631032 C25.53,131.910461 20.93,127.666385 28.635,127.551681 C35.88,127.436976 41.055,134.204556 42.78,136.95747 C51.06,150.836745 64.285,146.936783 69.575,144.527983 C70.38,138.563336 72.795,134.54867 75.44,132.254575 C54.97,129.96048 33.58,122.045853 33.58,86.9461995 C33.58,76.9668864 37.145,68.7081445 43.01,62.2846785 C42.09,59.9905836 38.87,50.5847942 43.93,37.9672718 C43.93,37.9672718 51.635,35.5584721 69.23,47.3730612 C76.59,45.3083757 84.41,44.276033 92.23,44.276033 C100.05,44.276033 107.87,45.3083757 115.23,47.3730612 C132.825,35.4437673 140.53,37.9672718 140.53,37.9672718 C145.59,50.5847942 142.37,59.9905836 141.45,62.2846785 C147.315,68.7081445 150.88,76.8521816 150.88,86.9461995 C150.88,122.160557 129.375,129.96048 108.905,132.254575 C112.24,135.122194 115.115,140.628022 115.115,149.230878 C115.115,161.504286 115,171.368895 115,174.465923 C115,176.874722 116.725,179.742341 121.325,178.824703 C157.665,166.666 184,132.254575 184,91.7637989 C184,41.0643 142.83,0 92,0 Z" id="Shape"></path>
        </g>
    </g>
</svg>