<?xml version="1.0" encoding="UTF-8"?>
<svg width="29px" height="28px" viewBox="0 0 29 28" version="1.1" xmlns="http://www.w3.org/2000/svg" xmlns:xlink="http://www.w3.org/1999/xlink">
    <!-- Generator: Sketch 63.1 (92452) - https://sketch.com -->
    <title>Shape</title>
    <desc>Created with Sketch.</desc>
    <g id="Page-1" stroke="none" stroke-width="1" fill="none" fill-rule="evenodd">
        <path d="M7.5,9.22694476 L4.50887858,9.22652464 C3.66425449,9.22652464 3,9.8908269 3,10.7236767 L3,16.7293725 C3,17.5617242 3.66922328,18.2265246 4.50887858,18.2265246 L7.5,18.2261096 L7.5,9.22694476 Z M10.5,8.50866685 L10.5,18.9452663 L18,24.2338907 L18,3.22652464 L10.5,8.50866685 Z M16.1928401,0.745426392 C18.5307074,-0.924478923 21,0.345503277 21,3.21915858 L21,24.2338907 C21,27.1079129 18.5358576,28.3812069 16.192839,26.7076221 L8.51931597,21.2265246 L4.50887858,21.2265246 C2.01680564,21.2265246 0,19.2230477 0,16.7293725 L0,10.7236767 C0,8.2340209 2.00735198,6.22652464 4.50887858,6.22652464 L8.51930051,6.22652601 L16.1928401,0.745426392 Z M22.5,6.37655182 C25.9233605,7.07145732 28.5,10.0980878 28.5,13.7265246 C28.5,17.3549615 25.9233605,20.381592 22.5,21.0764975 L22.5,17.9704661 C24.2477886,17.3527115 25.5,15.6858528 25.5,13.7265246 C25.5,11.7671964 24.2477886,10.1003378 22.5,9.48258321 L22.5,6.37655182 Z" id="Shape" fill="#7922FF" fill-rule="nonzero"></path>
    </g>
</svg>