<?xml version="1.0" encoding="UTF-8"?>
<svg width="30px" height="28px" viewBox="0 0 30 28" version="1.1" xmlns="http://www.w3.org/2000/svg" xmlns:xlink="http://www.w3.org/1999/xlink">
    <!-- Generator: Sketch 63.1 (92452) - https://sketch.com -->
    <title>noun_Time_6731</title>
    <desc>Created with Sketch.</desc>
    <g id="Page-1" stroke="none" stroke-width="1" fill="none" fill-rule="evenodd">
        <g id="noun_Time_6731" fill="#7922FF" fill-rule="nonzero">
            <path d="M16.4526,0.006 C16.4226,0.003 16.3926,0 16.3626,0 C15.5646,0 15.0126,0.6465 15.0126,1.4442 C15.0126,2.2302 15.3186,2.8692 16.5186,2.8857 L16.5186,2.8902 C22.2183,2.9682 27.204,7.8369 27.204,13.8126 C27.204,19.8363 22.2573,24.807 16.2336,24.807 C10.4844,24.807 5.7117,20.469 5.2914,14.7696 L7.8279,14.7696 L3.9132,8.2617 L0,14.7699 L2.4,14.7699 C2.8242,21.9693 8.8449,27.693 16.1856,27.693 C23.8023,27.693 30,21.4653 30,13.8474 C30,6.3207 23.946,0.1485 16.4526,0.006 Z" id="Path"></path>
            <path d="M17.7186,6.7332 C17.7186,6.0537 17.1729,5.4702 16.4949,5.4702 L16.2306,5.4702 C15.5526,5.4702 15.0189,6.0537 15.0189,6.7332 L15.0189,13.9944 L11.4624,17.5446 C10.9374,18.0696 10.9644,18.9216 11.4609,19.4436 C11.9589,19.9716 12.8316,19.9716 13.3566,19.4436 L17.2866,15.5136 C17.3166,15.4806 17.3406,15.4476 17.3706,15.4176 C17.5866,15.1941 17.7183,14.8911 17.7183,14.5566 L17.7183,6.7332 L17.7186,6.7332 Z" id="Path"></path>
        </g>
    </g>
</svg>