<?xml version="1.0" encoding="UTF-8"?>
<svg width="30px" height="30px" viewBox="0 0 30 30" version="1.1" xmlns="http://www.w3.org/2000/svg" xmlns:xlink="http://www.w3.org/1999/xlink">
    <!-- Generator: Sketch 63.1 (92452) - https://sketch.com -->
    <title>noun_Stopwatch_791015</title>
    <desc>Created with Sketch.</desc>
    <g id="Page-1" stroke="none" stroke-width="1" fill="none" fill-rule="evenodd">
        <g id="noun_Stopwatch_791015" fill="#7922FF" fill-rule="nonzero">
            <path d="M26.3265306,8.09129577 C30.8847242,12.7856613 31.0717228,20.194242 26.756162,25.1125884 C22.4406012,30.0309348 15.070584,30.8086769 9.82346939,26.899459 C9.42154557,26.5894036 9.21556529,26.0884767 9.28311932,25.5853727 C9.35067336,25.0822687 9.68149864,24.6534211 10.1509765,24.4603727 C10.6204543,24.2673242 11.1572599,24.3394035 11.5591837,24.649459 C14.3378716,26.8763468 18.1132543,27.4018933 21.3944964,26.0185691 C24.6757385,24.6352449 26.9353667,21.5654249 27.2810917,18.0213299 C27.6268167,14.4772348 26.0030617,11.0285925 23.0510204,9.03721414 C21.7778888,8.130335 20.3004566,7.55198076 18.75,7.35354067 C16.1897891,7.01035315 13.5986107,7.70471403 11.5530612,9.2821121 C10.9360332,9.75058537 10.0574159,9.63821475 9.57815069,9.02953123 C9.09888547,8.4208477 9.19576807,7.540388 9.79591837,7.05047944 C11.6083927,5.63683804 13.7777014,4.75406608 16.0622449,4.50047944 L16.0622449,2.84129577 L14.5653061,2.84129577 C14.1660743,2.8381012 13.7866194,2.66703627 13.5198608,2.36999064 C13.2531021,2.072945 13.1236722,1.67734784 13.1632653,1.28007128 C13.2555155,0.538978246 13.8920859,-0.0130682882 14.6387755,0.000235411399 L20.372449,0.000235411399 C20.7732287,0.000235411399 21.1554255,0.169476706 21.4247869,0.466240651 C21.6941482,0.763004597 21.8256035,1.15975223 21.7867347,1.55864271 C21.6944845,2.29973575 21.0579141,2.85178228 20.3112245,2.83823455 L18.8877551,2.83823455 L18.8877551,4.49741822 C21.7043285,4.81307194 24.3286968,6.0809766 26.3265306,8.09129577 Z M22.8795918,12.989255 C23.2121547,12.5789258 23.1810849,11.9836927 22.8076093,11.6102171 C22.4341337,11.2367414 21.8389006,11.2056717 21.4285714,11.5382345 L17.8132653,14.4433366 C16.7210829,14.2858774 15.6507671,14.8453579 15.156644,15.8320179 C14.6625209,16.818678 14.8555934,18.0108682 15.6358677,18.7911424 C16.4161419,19.5714166 17.608332,19.7644892 18.5949921,19.2703661 C19.5816522,18.776243 20.1411326,17.7059271 19.9836735,16.6137448 L22.8887755,12.989255 L22.8795918,12.989255 Z M10.5673469,13.8310917 C11.243614,13.8310917 11.7918367,13.2828689 11.7918367,12.6066019 C11.7918367,11.9303349 11.243614,11.3821121 10.5673469,11.3821121 L1.2244898,11.3821121 C0.548222755,11.3821121 1.77635684e-15,11.9303349 1.77635684e-15,12.6066019 C1.77635684e-15,13.2828689 0.548222755,13.8310917 1.2244898,13.8310917 L10.5673469,13.8310917 Z M10.5673469,15.744357 L3.52653061,15.744357 C2.85026357,15.744357 2.30204082,16.2925798 2.30204082,16.9688468 C2.30204082,17.6451138 2.85026357,18.1933366 3.52653061,18.1933366 L10.5673469,18.1933366 C11.243614,18.1933366 11.7918367,17.6451138 11.7918367,16.9688468 C11.7918367,16.2925798 11.243614,15.744357 10.5673469,15.744357 Z M11.7918367,21.3188468 C11.7918367,20.6425798 11.243614,20.094357 10.5673469,20.094357 L5.43367347,20.094357 C4.75740643,20.094357 4.20918367,20.6425798 4.20918367,21.3188468 C4.20918367,21.9951138 4.75740643,22.5433366 5.43367347,22.5433366 L10.5673469,22.5433366 C10.8921031,22.5417169 11.2029142,22.4111525 11.4314033,22.1803671 C11.6598923,21.9495816 11.7873421,21.6374805 11.7857143,21.3127243 L11.7918367,21.3188468 Z" id="Shape"></path>
        </g>
    </g>
</svg>