<?xml version="1.0" encoding="UTF-8"?>
<svg width="246px" height="246px" viewBox="0 0 246 246" version="1.1" xmlns="http://www.w3.org/2000/svg" xmlns:xlink="http://www.w3.org/1999/xlink">
    <!-- Generator: Sketch 64 (93537) - https://sketch.com -->
    <title>Icon</title>
    <desc>Created with Sketch.</desc>
    <g id="Page-1" stroke="none" stroke-width="1" fill="none" fill-rule="evenodd">
        <g id="logo">
            <g id="Icon">
                <g id="Path">
                    <g id="path-1-link" fill="#000000" fill-rule="nonzero">
                        <path d="M123.48,0 L123.48,0 C221.496,0 246,24.5044 246,122.52 C246,220.536 221.496,245.039 123.48,245.039 C25.4641,245.039 0.9609,220.536 0.9609,122.52 C0.9609,24.5044 25.4641,0 123.48,0" id="path-1"></path>
                    </g>
                    <g id="path-1-link" fill="#FFFFFF">
                        <path d="M123.48,0 L123.48,0 C221.496,0 246,24.5044 246,122.52 C246,220.536 221.496,245.039 123.48,245.039 C25.4641,245.039 0.9609,220.536 0.9609,122.52 C0.9609,24.5044 25.4641,0 123.48,0" id="path-1"></path>
                    </g>
                </g>
                <path d="M123.48,6.7266 C216.114,6.7266 239.273,29.8856 239.273,122.52 C239.273,215.155 216.114,238.313 123.48,238.313 C30.8454,238.313 7.6875,215.155 7.6875,122.52 C7.6875,29.8856 30.8454,6.7266 123.48,6.7266 Z" id="Path" fill="#FFFFFF" fill-rule="nonzero"></path>
                <path d="M193.904,86.0656 C191.038,79.507 160.384,91.6341 123,114.527 C83.747,138.534 51.8462,165.263 51.8462,174.172 L51.8462,189.517 C51.8462,180.607 83.747,173.43 123,173.43 C162.253,173.43 194.154,180.607 194.154,189.517 L194.154,87.1793 C194.154,86.808 194.154,86.4368 193.904,86.0656 Z" id="Path" fill="#BD86FF" fill-rule="nonzero"></path>
                <path d="M123,146.825 C83.747,170.708 51.8462,182.958 51.8462,174.172 L51.8462,189.517 C51.8462,198.427 83.747,205.604 123,205.604 C162.253,205.604 194.154,198.427 194.154,189.517 L194.154,87.1793 C194.154,96.089 162.378,122.818 123,146.825 Z" id="Path" fill="#F62F6F" fill-rule="nonzero"></path>
                <path d="M123,205.604 C162.297,205.604 194.154,198.402 194.154,189.517 C194.154,180.632 162.297,173.43 123,173.43 C83.7028,173.43 51.8462,180.632 51.8462,189.517 C51.8462,198.402 83.7028,205.604 123,205.604 Z" id="Path" fill="#FF396E" fill-rule="nonzero"></path>
                <path d="M194.154,48.0497 L194.154,47.8022 C194.154,47.4309 194.029,47.1834 193.904,46.936 C191.038,40.3774 160.384,52.5045 123,75.3975 C83.747,99.404 51.8462,126.133 51.8462,134.919 L51.8462,135.043 L51.8462,146.922 C51.8462,155.832 83.747,143.581 123,119.575 C162.253,95.568 194.154,68.9627 194.154,60.053 L194.154,59.9292 L194.154,48.0497 C194.154,48.1734 194.154,48.1734 194.154,48.0497 Z" id="Path" fill="#BC83FF" fill-rule="nonzero"></path>
                <path d="M123,107.571 C83.9962,131.454 52.3446,143.705 51.8462,135.167 L51.8462,147.046 C51.8462,155.956 83.747,143.705 123,119.698 C162.253,95.692 194.154,69.0864 194.154,60.1767 L194.154,60.053 L194.154,48.1734 C193.904,57.2068 162.128,83.6884 123,107.571 Z" id="Path" fill="#F52F6E" fill-rule="nonzero"></path>
            </g>
        </g>
    </g>
</svg>