<?xml version="1.0" encoding="UTF-8"?>
<svg width="33px" height="33px" viewBox="0 0 33 33" version="1.1" xmlns="http://www.w3.org/2000/svg" xmlns:xlink="http://www.w3.org/1999/xlink">
    <!-- Generator: Sketch 63.1 (92452) - https://sketch.com -->
    <title>noun_note_2937050</title>
    <desc>Created with Sketch.</desc>
    <g id="Page-1" stroke="none" stroke-width="1" fill="none" fill-rule="evenodd">
        <g id="noun_note_2937050" fill="#7922FF" fill-rule="nonzero">
            <g id="Group">
                <g>
                    <path d="M26.090625,18.8375 C25.403125,18.8375 24.853125,19.3875 24.853125,20.075 L24.853125,28.25625 C24.853125,29.390625 23.925,30.31875 22.790625,30.31875 L4.709375,30.31875 C3.575,30.31875 2.646875,29.390625 2.646875,28.25625 L2.646875,10.175 C2.646875,9.040625 3.575,8.1125 4.709375,8.1125 L12.890625,8.1125 C13.578125,8.1125 14.128125,7.5625 14.128125,6.875 C14.128125,6.1875 13.578125,5.6375 12.890625,5.6375 L4.709375,5.6375 C2.2,5.6375 0.171875,7.665625 0.171875,10.175 L0.171875,28.25625 C0.171875,30.765625 2.2,32.79375 4.709375,32.79375 L22.790625,32.79375 C25.3,32.79375 27.328125,30.765625 27.328125,28.25625 L27.328125,20.075 C27.328125,19.3875 26.778125,18.8375 26.090625,18.8375 Z" id="Path"></path>
                    <path d="M32.0375,4.640625 L28.359375,0.9625 C27.328125,-0.06875 25.50625,-0.06875 24.475,0.9625 L8.903125,16.534375 C8.25,17.1875 7.803125,18.08125 7.7,19.04375 L7.21875,22.996875 C7.115625,23.753125 7.390625,24.509375 7.940625,25.059375 C8.421875,25.540625 9.040625,25.78125 9.69375,25.78125 C9.796875,25.78125 9.9,25.78125 10.003125,25.746875 L13.990625,25.265625 C14.91875,25.1625 15.8125,24.715625 16.5,24.0625 L32.071875,8.490625 C33.103125,7.425 33.103125,5.70625 32.0375,4.640625 Z M22.584375,6.359375 L26.640625,10.415625 L17.015625,20.040625 L12.959375,15.984375 L22.584375,6.359375 Z M13.68125,22.825 L9.69375,23.30625 L10.175,19.31875 C10.209375,18.940625 10.415625,18.5625 10.690625,18.2875 L11.240625,17.7375 L15.296875,21.79375 L14.746875,22.34375 C14.4375,22.584375 14.059375,22.790625 13.68125,22.825 Z M30.284375,6.771875 L28.39375,8.6625 L24.3375,4.60625 L26.228125,2.715625 C26.296875,2.646875 26.365625,2.646875 26.4,2.646875 C26.434375,2.646875 26.5375,2.646875 26.571875,2.715625 L30.25,6.39375 C30.3875,6.496875 30.3875,6.66875 30.284375,6.771875 Z" id="Shape"></path>
                </g>
            </g>
        </g>
    </g>
</svg>