<?xml version="1.0" encoding="UTF-8"?>
<svg width="30px" height="33px" viewBox="0 0 30 33" version="1.1" xmlns="http://www.w3.org/2000/svg" xmlns:xlink="http://www.w3.org/1999/xlink">
    <!-- Generator: Sketch 63.1 (92452) - https://sketch.com -->
    <title>noun_Alarm_3165248</title>
    <desc>Created with Sketch.</desc>
    <g id="Page-1" stroke="none" stroke-width="1" fill="none" fill-rule="evenodd">
        <g id="noun_Alarm_3165248" fill="#7922FF" fill-rule="nonzero">
            <path d="M28.2692308,15 C28.2645226,13.7169207 28.0701124,12.4415895 27.6923077,11.2153846 C29.1571817,10.0239211 30.0053036,8.23438397 30.0000247,6.34615385 C29.9936496,2.84390366 27.1560963,0.00635042396 23.6538462,-2.47262716e-05 C21.765616,-0.00530357945 19.9760789,0.842818297 18.7846154,2.30769231 C16.3155394,1.56945516 13.6844606,1.56945516 11.2153846,2.30769231 C10.0239211,0.842818297 8.23438397,-0.00530357945 6.34615385,-2.47262716e-05 C2.84390366,0.00635042396 0.00635042396,2.84390366 -2.47262716e-05,6.34615385 C-0.00530357945,8.23438397 0.842818297,10.0239211 2.30769231,11.2153846 C1.93071053,12.4417777 1.73631899,13.7169862 1.73076923,15 C1.73432453,19.5510621 4.07399263,23.7816352 7.92692308,26.2038462 L3.79615385,30.3346154 C3.57771617,30.5512692 3.45484809,30.8461875 3.45484809,31.1538462 C3.45484809,31.4615048 3.57771617,31.7564232 3.79615385,31.9730769 C4.01280762,32.1915146 4.30772592,32.3143827 4.61538462,32.3143827 C4.92304331,32.3143827 5.21796162,32.1915146 5.43461538,31.9730769 L10.05,27.3576923 C10.05,27.3576923 10.05,27.3576923 10.05,27.3576923 C13.2105427,28.6344553 16.7433034,28.6344553 19.9038462,27.3576923 C19.9038462,27.3576923 19.9038462,27.3576923 19.9038462,27.3576923 L24.5192308,31.9730769 C24.7358845,32.1915146 25.0308028,32.3143827 25.3384615,32.3143827 C25.6461202,32.3143827 25.9410385,32.1915146 26.1576923,31.9730769 C26.37613,31.7564232 26.4989981,31.4615048 26.4989981,31.1538462 C26.4989981,30.8461875 26.37613,30.5512692 26.1576923,30.3346154 L22.0269231,26.2038462 C25.8975115,23.7927003 28.2557133,19.5601422 28.2692308,15 Z M23.6538462,2.30769231 C25.8842269,2.30769231 27.6923077,4.11577313 27.6923077,6.34615385 C27.6987574,7.2770648 27.3758875,8.18028304 26.7807692,8.89615385 C26.6076923,8.55 26.4115385,8.22692308 26.2038462,7.89230769 L26.0307692,7.63846154 C25.8461538,7.36153846 25.65,7.09615385 25.4538462,6.84230769 L25.2230769,6.55384615 C24.9655744,6.23267622 24.6921553,5.92459836 24.4038462,5.63076923 L24.4038462,5.63076923 C24.1153846,5.34230769 23.8038462,5.07692308 23.4923077,4.81153846 L23.1923077,4.58076923 C22.9384615,4.38461538 22.6730769,4.18846154 22.4076923,4.01538462 L22.1307692,3.83076923 C21.8106824,3.62064861 21.4794258,3.4280576 21.1384615,3.25384615 C21.840397,2.65387333 22.730509,2.31906057 23.6538462,2.30769231 Z M6.34615385,2.30769231 C7.2770648,2.3012426 8.18028304,2.62411247 8.89615385,3.21923077 C8.55,3.39230769 8.22692308,3.58846154 7.89230769,3.79615385 L7.63846154,3.96923077 C7.36153846,4.15384615 7.09615385,4.35 6.84230769,4.54615385 L6.55384615,4.77692308 C6.23267622,5.03442564 5.92459836,5.30784474 5.63076923,5.59615385 L5.63076923,5.59615385 C5.34230769,5.88461538 5.07692308,6.19615385 4.81153846,6.50769231 C4.73076923,6.61153846 4.65,6.70384615 4.58076923,6.80769231 C4.51153846,6.91153846 4.18846154,7.32692308 4.01538462,7.59230769 L3.83076923,7.86923077 C3.62307692,8.19230769 3.42692308,8.52692308 3.25384615,8.86153846 C2.65387333,8.15960301 2.31906057,7.26949102 2.30769231,6.34615385 C2.30769231,4.11577313 4.11577313,2.30769231 6.34615385,2.30769231 Z M15,25.9615385 C8.94874571,25.9551788 4.04482124,21.0512543 4.03839503,15 C4.03385575,13.6953094 4.26850444,12.4008307 4.73076923,11.1807692 C4.86464265,10.805559 5.02266538,10.4394088 5.20384615,10.0846154 C6.4422652,7.60443649 8.57975438,5.68977436 11.1807692,4.73076923 C13.6432589,3.8076836 16.3567411,3.8076836 18.8192308,4.73076923 C19.2140706,4.86227109 19.5995654,5.02032399 19.9730769,5.20384615 C22.4532558,6.4422652 24.3679179,8.57975438 25.3269231,11.1807692 C25.7695241,12.4045126 25.9846003,13.6988806 25.9615385,15 C25.9551788,21.0512543 21.0512543,25.9551788 15,25.9615385 Z M20.6192308,8.65384615 L16.0038462,16.7307692 C15.7969143,17.0891933 15.413867,17.3093354 15,17.3077014 L9.23076923,17.3077014 C8.5935176,17.3077014 8.07692308,16.7910978 8.07692308,16.1538462 C8.07692308,15.5165945 8.5935176,15 9.23076923,15 L14.3307692,15 L18.6115385,7.5 C18.9301643,6.94559111 19.6378988,6.75445115 20.1923077,7.07307696 C20.7467166,7.39170277 20.9378566,8.09943723 20.6192308,8.65384615 L20.6192308,8.65384615 Z" id="Shape"></path>
        </g>
    </g>
</svg>