<?xml version="1.0" encoding="UTF-8"?>
<svg width="36px" height="30px" viewBox="0 0 36 30" version="1.1" xmlns="http://www.w3.org/2000/svg" xmlns:xlink="http://www.w3.org/1999/xlink">
    <!-- Generator: Sketch 64 (93537) - https://sketch.com -->
    <title>noun_add_220401 copy</title>
    <desc>Created with Sketch.</desc>
    <g id="Page-1" stroke="none" stroke-width="1" fill="none" fill-rule="evenodd">
        <g id="noun_add_220401-copy" fill="#7922FF" fill-rule="nonzero">
            <g id="Group">
                <path d="M4.53193472,8.39902191 L6.98484442,10.2393183 C6.35134268,11.6995479 6,13.309503 6,15 C6,21.617 11.383,27 18,27 C21.8472071,27 25.2774554,25.1801441 27.4749764,22.3560045 L29.8741241,24.1557588 C27.1285454,27.7082715 22.826856,30 18,30 C9.729,30 3,23.271 3,15 C3,12.6328347 3.55117771,10.3919759 4.53193472,8.39902191 Z M18,0 C26.271,0 33,6.729 33,15 C33,17.0431044 32.5894032,18.9921174 31.8463928,20.7688559 L29.3689977,18.8430599 C29.7780883,17.6360576 30,16.3434628 30,15 C30,8.383 24.6166667,3 18,3 C14.4709333,3 11.2928711,4.53116444 9.095232,6.96407467 L6.72409721,5.11809371 C9.47541241,1.98253456 13.51055,0 18,0 Z" id="Shape"></path>
                <path d="M33.0940439,20.1753554 L33.4890282,20.5734597 C34.0532915,21.1421801 35.0125392,21.1421801 35.5768025,20.5734597 C36.1410658,20.0047393 36.1410658,19.0379147 35.5768025,18.4691943 L32.5297806,15.4265403 C31.9655172,14.8578199 31.0062696,14.8578199 30.4420063,15.4265403 L27.4231975,18.4691943 C26.8589342,19.0379147 26.8589342,20.0047393 27.4231975,20.5734597 C27.9874608,21.1421801 28.9467085,21.1421801 29.5109718,20.5734597 L30.0752351,20.0047393 C32.2282776,20.2344566 30.734484,20.2344566 33.0940439,20.1753554 Z" id="Path" transform="translate(31.500000, 18.000000) scale(1, -1) translate(-31.500000, -18.000000) "></path>
                <path d="M6.09404388,13.1753554 L6.48902822,13.5734597 C7.05329154,14.1421801 8.01253919,14.1421801 8.57680251,13.5734597 C9.14106583,13.0047393 9.14106583,12.0379147 8.57680251,11.4691943 L5.52978057,8.42654029 C4.96551725,7.8578199 4.00626959,7.8578199 3.44200628,8.42654029 L0.423197492,11.4691943 C-0.141065831,12.0379147 -0.141065831,13.0047393 0.423197492,13.5734597 C0.987460816,14.1421801 1.94670846,14.1421801 2.51097179,13.5734597 L3.07523511,13.0047393 C5.2282776,13.2344566 3.734484,13.2344566 6.09404388,13.1753554 Z" id="Path"></path>
            </g>
        </g>
    </g>
</svg>