<?xml version="1.0" encoding="UTF-8"?>
<svg width="837px" height="265px" viewBox="0 0 837 265" version="1.1" xmlns="http://www.w3.org/2000/svg" xmlns:xlink="http://www.w3.org/1999/xlink">
    <!-- Generator: Sketch 64 (93537) - https://sketch.com -->
    <title>Logo</title>
    <desc>Created with Sketch.</desc>
    <defs>
        <path d="M123.48,0 L123.48,0 C221.496,0 246,24.5044 246,122.52 C246,220.536 221.496,245.039 123.48,245.039 C25.4641,245.039 0.9609,220.536 0.9609,122.52 C0.9609,24.5044 25.4641,0 123.48,0" id="path-1"></path>
        <filter x="-6.1%" y="-6.1%" width="112.2%" height="112.2%" filterUnits="objectBoundingBox" id="filter-2">
            <feOffset dx="0" dy="0" in="SourceAlpha" result="shadowOffsetOuter1"></feOffset>
            <feGaussianBlur stdDeviation="5" in="shadowOffsetOuter1" result="shadowBlurOuter1"></feGaussianBlur>
            <feColorMatrix values="0 0 0 0 0   0 0 0 0 0   0 0 0 0 0  0 0 0 0.26 0" type="matrix" in="shadowBlurOuter1"></feColorMatrix>
        </filter>
    </defs>
    <g id="Page-1" stroke="none" stroke-width="1" fill="none" fill-rule="evenodd">
        <g id="Logo" transform="translate(9.000000, 10.000000)">
            <g id="Icon">
                <g id="Path">
                    <use fill="black" fill-opacity="1" filter="url(#filter-2)" xlink:href="#path-1"></use>
                    <use fill="#FFFFFF" fill-rule="evenodd" xlink:href="#path-1"></use>
                </g>
                <path d="M123.48,6.7266 C216.114,6.7266 239.273,29.8856 239.273,122.52 C239.273,215.155 216.114,238.313 123.48,238.313 C30.8454,238.313 7.6875,215.155 7.6875,122.52 C7.6875,29.8856 30.8454,6.7266 123.48,6.7266 Z" id="Path" fill="#FFFFFF"></path>
                <path d="M193.904,86.0656 C191.038,79.507 160.384,91.6341 123,114.527 C83.747,138.534 51.8462,165.263 51.8462,174.172 L51.8462,189.517 C51.8462,180.607 83.747,173.43 123,173.43 C162.253,173.43 194.154,180.607 194.154,189.517 L194.154,87.1793 C194.154,86.808 194.154,86.4368 193.904,86.0656 Z" id="Path" fill="#BD86FF" fill-rule="nonzero"></path>
                <path d="M123,146.825 C83.747,170.708 51.8462,182.958 51.8462,174.172 L51.8462,189.517 C51.8462,198.427 83.747,205.604 123,205.604 C162.253,205.604 194.154,198.427 194.154,189.517 L194.154,87.1793 C194.154,96.089 162.378,122.818 123,146.825 Z" id="Path" fill="#F62F6F" fill-rule="nonzero"></path>
                <path d="M123,205.604 C162.297,205.604 194.154,198.402 194.154,189.517 C194.154,180.632 162.297,173.43 123,173.43 C83.7028,173.43 51.8462,180.632 51.8462,189.517 C51.8462,198.402 83.7028,205.604 123,205.604 Z" id="Path" fill="#FF396E" fill-rule="nonzero"></path>
                <path d="M194.154,48.0497 L194.154,47.8022 C194.154,47.4309 194.029,47.1834 193.904,46.936 C191.038,40.3774 160.384,52.5045 123,75.3975 C83.747,99.404 51.8462,126.133 51.8462,134.919 L51.8462,135.043 L51.8462,146.922 C51.8462,155.832 83.747,143.581 123,119.575 C162.253,95.568 194.154,68.9627 194.154,60.053 L194.154,59.9292 L194.154,48.0497 C194.154,48.1734 194.154,48.1734 194.154,48.0497 Z" id="Path" fill="#BC83FF" fill-rule="nonzero"></path>
                <path d="M123,107.571 C83.9962,131.454 52.3446,143.705 51.8462,135.167 L51.8462,147.046 C51.8462,155.956 83.747,143.705 123,119.698 C162.253,95.692 194.154,69.0864 194.154,60.1767 L194.154,60.053 L194.154,48.1734 C193.904,57.2068 162.128,83.6884 123,107.571 Z" id="Path" fill="#F52F6E" fill-rule="nonzero"></path>
            </g>
            <g transform="translate(322.000000, 41.000000)" fill="#000000" fill-rule="nonzero">
                <path d="M109.889038,117.898441 C109.889038,123.600296 108.64693,129.01771 106.162713,134.14938 C103.679808,139.281049 100.206627,143.812524 95.7510392,147.738584 C91.2902048,151.668558 86.0056699,154.803926 79.8921888,157.147297 C73.7787069,159.490668 67.0251533,160.662354 59.6393963,160.662354 C53.0156931,160.662354 47.0596067,160.282665 41.775072,159.521983 C36.4879141,158.762606 31.5207925,157.559605 26.8723957,155.911678 C22.2213756,154.26636 17.7644759,152.143496 13.4977617,149.544389 C9.2297359,146.949197 4.80562682,143.812524 0.220187961,140.13698 L21.2363456,119.038811 C27.349827,124.109157 33.3360807,127.686843 39.1964185,129.777088 C45.0528214,131.868638 51.4246927,132.913761 58.302851,132.913761 C61.1031691,132.913761 63.7474039,132.504062 66.2316202,131.679446 C68.7145251,130.856135 70.8800177,129.748383 72.7267845,128.353581 C74.5722401,126.958779 76.0373244,125.312156 77.1220375,123.411104 C78.2028162,121.511355 78.7458288,119.419805 78.7458288,117.139063 C78.7458288,114.733062 78.298565,112.577579 77.4079719,110.676525 C76.5160676,108.776777 74.925067,106.940962 72.6323476,105.163862 C70.3396283,103.391981 67.1536927,101.586176 63.0797871,99.7477521 C59.0006352,97.9132425 53.7803701,95.8517018 47.411122,93.5696554 C41.8052394,91.545953 36.4249561,89.2312873 31.267649,86.6334854 C26.1077186,84.0382929 21.5852377,80.9029254 17.7015179,77.2247719 C13.8151748,73.551838 10.6948204,69.2421747 8.33914293,64.3010018 C5.98084231,59.359829 4.80562682,53.5327157 4.80562682,46.8157477 C4.80562682,40.3519055 6.10938152,34.3982292 8.72082567,28.9494999 C11.3296466,23.5020754 14.8985766,18.8466476 19.4210575,14.9793024 C23.9409151,11.1158715 29.2280731,8.10706651 35.2785964,5.9515826 C41.3278081,3.79870822 47.8557627,2.72096626 54.8637718,2.72096626 C66.5805127,2.72096626 76.4531094,4.24102603 84.4776274,7.28245037 C92.5021454,10.32257 99.6347591,14.7601007 105.875468,20.5859092 L85.2423043,41.3030845 C81.4202313,37.6288456 77.152205,34.8105373 72.4408501,32.8442454 C67.726872,30.8831726 62.1865708,29.8993742 55.8173228,29.8993742 C52.8871539,29.8993742 50.1825844,30.3443016 47.6983678,31.230242 C45.2141512,32.1174872 43.0788267,33.2904775 41.2976408,34.7466035 C39.5125199,36.2040342 38.0789144,37.9145907 36.9994476,39.8782731 C35.9160458,41.8432602 35.374345,43.902191 35.374345,46.0537606 C35.374345,48.4636751 35.8819436,50.6491688 36.9023874,52.6128512 C37.9215196,54.5778384 39.6397475,56.4788917 42.0623178,58.3134016 C44.4796416,60.1518258 47.6983678,61.99025 51.7106268,63.8260647 C55.7228859,65.664489 60.7201747,67.6594857 66.7090514,69.8123604 C74.3505757,72.4740959 80.9100094,75.3902622 86.3886643,78.5556397 C91.8633841,81.7236273 96.3229072,85.2073691 99.7619866,89.0094759 C103.201066,92.8102777 105.74824,97.0873217 107.404822,101.837998 C109.05878,106.589979 109.889038,111.944764 109.889038,117.898441" id="Fill-8"></path>
                <path d="M175.256716,157.242937 C173.089913,158.254135 170.638487,159.077447 167.901127,159.714176 C165.161143,160.345685 162.328035,160.662745 159.397866,160.662745 C155.321337,160.662745 151.403515,160.12257 147.648334,159.048742 C143.889219,157.971 140.608846,156.230434 137.808528,153.821824 C135.005587,151.415823 132.774514,148.279151 131.121867,144.41311 C129.463974,140.549679 128.637651,135.892947 128.637651,130.442913 L128.637651,0.0596220997 L156.723463,0.0596220997 L156.723463,125.690932 C156.723463,130.252417 157.645536,133.389089 159.493615,135.099645 C161.33907,136.810202 163.536041,137.666132 166.085839,137.666132 C169.269151,137.666132 172.325236,136.716258 175.256716,134.815205 L175.256716,157.242937 Z" id="Fill-10"></path>
                <path d="M257.277915,130.442913 L257.277915,110.106731 L244.667958,110.106731 C240.847196,110.106731 237.246787,110.361162 233.873289,110.866109 C230.497168,111.37497 227.568311,112.229596 225.084094,113.432596 C222.601189,114.638206 220.624571,116.188275 219.160798,118.089328 C217.695714,119.989077 216.965139,122.269819 216.965139,124.931555 C216.965139,128.732357 218.459079,131.839019 221.454829,134.24502 C224.445333,136.65363 228.298885,137.85663 233.012863,137.85663 C237.088081,137.85663 241.13313,137.22251 245.145389,135.955576 C249.15896,134.689947 253.201386,132.852827 257.277915,130.442913 L257.277915,130.442913 Z M284.79186,157.813123 L257.277915,157.813123 L257.277915,151.92077 C252.436709,155.216625 247.309569,157.497368 241.897807,158.762997 C236.483422,160.028626 230.911641,160.662745 225.179843,160.662745 C219.829726,160.662745 214.988521,159.870748 210.658849,158.28806 C206.326554,156.705371 202.56875,154.424629 199.385437,151.445833 C196.202125,148.469648 193.749388,144.953286 192.031159,140.896749 C190.310308,136.842821 189.451194,132.343966 189.451194,127.402793 C189.451194,121.195991 190.817907,115.778577 193.559202,111.151854 C196.296562,106.527741 200.022887,102.66431 204.735553,99.5576471 C209.446908,96.4548982 214.957042,94.1415369 221.263332,92.621477 C227.568311,91.1001128 234.352032,90.3407351 241.611873,90.3407351 L257.469412,90.3407351 C257.469412,83.8781978 255.36819,78.7465282 251.164434,74.9444213 C246.960677,71.1436196 240.910154,69.2425661 233.012863,69.2425661 C229.192101,69.2425661 225.242801,69.9406197 221.167583,71.3328116 C217.088431,72.7302225 213.014527,75.2627857 208.939309,78.9357203 L192.700088,62.5908367 C198.556491,57.0168493 205.3389,52.7071863 213.047317,49.6657619 C220.751798,46.6256423 228.681879,45.1055826 236.834937,45.1055826 C244.47646,45.1055826 251.281168,46.3111922 257.249059,48.7158876 C263.213015,51.1244974 268.030612,54.227246 271.700536,58.0293526 C276.506328,62.8452673 279.889008,68.2300627 281.849886,74.1850436 C283.809453,80.1413296 284.79186,87.7442382 284.79186,96.9911594 L284.79186,157.813123 Z" id="Fill-12"></path>
                <path d="M388.248209,127.021669 C388.248209,132.471703 386.969376,137.318933 384.416955,141.562053 C381.86191,145.807782 378.542189,149.354153 374.457791,152.206385 C370.374704,155.056008 365.776149,157.212797 360.672618,158.667618 C355.563841,160.122439 350.521957,160.854417 345.544342,160.854417 C337.118467,160.854417 329.361521,159.300432 322.277437,156.196379 C315.190731,153.09363 308.969696,148.119838 303.607776,141.277612 L320.229992,124.55043 C323.540532,128.733531 327.361293,131.996766 331.693589,134.338833 C336.021949,136.684814 340.674281,137.856499 345.641402,137.856499 C349.968452,137.856499 353.570172,137.065807 356.436071,135.479204 C359.30197,133.89782 360.734265,131.520525 360.734265,128.353842 C360.734265,125.059292 358.696,122.303613 354.620783,120.085499 C350.542943,117.868692 344.811144,115.684503 337.425388,113.527714 C333.093092,112.262084 328.889336,110.646777 324.81543,108.680485 C320.736278,106.716802 317.107014,104.309497 313.925013,101.45857 C310.739077,98.607642 308.193214,95.347016 306.282178,91.6701675 C304.371141,87.9972337 303.416279,83.7528091 303.416279,78.9355893 C303.416279,73.6134233 304.659698,68.8327375 307.150473,64.5857032 C309.639936,60.3425835 312.895388,56.7936028 316.915517,53.9426752 C320.936957,51.0917476 325.50141,48.9062539 330.610187,47.3861941 C335.713718,45.8648296 340.885452,45.1054521 346.121457,45.1054521 C362.971895,45.1054521 376.759692,51.4414266 387.483532,64.1107661 L371.052813,80.6461463 C367.866878,76.7200861 364.236302,73.6134233 360.161085,71.3326807 C356.084556,69.0519387 351.626345,67.9115681 346.787762,67.9115681 C345.129869,67.9115681 343.377539,68.1346839 341.533395,68.5770017 C339.685316,69.0232339 337.965777,69.6547437 336.373464,70.4780551 C334.779841,71.3039759 333.474774,72.3791085 332.458266,73.7099763 C331.43651,75.039539 330.928912,76.530894 330.928912,78.1749072 C330.928912,81.0923779 332.868805,83.6249412 336.756459,85.7791203 C340.640179,87.9346045 346.213271,90.0874785 353.474424,92.2403532 C358.184467,93.6364597 362.645301,95.4083401 366.849057,97.5625192 C371.052813,99.7180034 374.745036,102.217947 377.930972,105.070179 C381.112973,107.919803 383.62998,111.151724 385.478059,114.762028 C387.322202,118.373638 388.248209,122.460186 388.248209,127.021669" id="Fill-14"></path>
                <path d="M505.417443,157.81247 L477.903499,157.81247 L477.903499,92.0506388 C477.903499,88.1245793 477.296217,84.6695423 476.08034,81.6920518 C474.865777,78.7158658 473.264283,76.2446267 471.28373,74.2796396 C469.300554,72.3172621 466.99603,70.857222 464.374093,69.9073478 C461.753468,68.9574736 459.03447,68.4825366 456.221036,68.4825366 C452.000228,68.4825366 447.969607,69.1179602 444.133105,70.3822849 C440.295292,71.6518285 436.586018,73.423709 433.005284,75.7044509 L433.005284,157.81247 L405.491339,157.81247 L405.491339,0.249466476 L433.005284,0.249466476 L433.195469,54.2265936 C437.270687,51.0625207 441.984665,48.71654 447.33478,47.1951754 C452.683585,45.6751157 457.843515,44.9144334 462.810636,44.9144334 C468.542435,44.9144334 473.955509,45.8356027 479.049858,47.6701126 C484.142896,49.5085368 488.666689,52.2968353 492.61599,56.0323986 C496.562667,59.7718761 499.685645,64.4612279 501.978365,70.0978443 C504.271084,75.7383753 505.417443,82.4227241 505.417443,90.1495861 L505.417443,157.81247 Z" id="Fill-16"></path>
            </g>
        </g>
    </g>
</svg>