<?xml version="1.0" encoding="UTF-8"?>
<svg width="19px" height="29px" viewBox="0 0 19 29" version="1.1" xmlns="http://www.w3.org/2000/svg" xmlns:xlink="http://www.w3.org/1999/xlink">
    <!-- Generator: Sketch 57.1 (83088) - https://sketch.com -->
    <title>ant-design:mobile-outline</title>
    <desc>Created with Sketch.</desc>
    <g id="Website" stroke="none" stroke-width="1" fill="none" fill-rule="evenodd">
        <g id="03-DOWNLOAD" transform="translate(-952.000000, -354.000000)" fill-rule="nonzero">
            <g id="HERO" transform="translate(0.000000, -15.000000)">
                <g id="Website/Download-Buttons" transform="translate(211.000000, 365.000000)">
                    <g id="ant-design:mobile-outline" transform="translate(734.500000, 3.000000)">
                        <g id="Icon" fill="#000000">
                            <path d="M23.25,1.9375 L8.75,1.9375 C7.646875,1.9375 6.75,2.834375 6.75,3.9375 L6.75,27.9375 C6.75,29.040625 7.646875,29.9375 8.75,29.9375 L23.25,29.9375 C24.353125,29.9375 25.25,29.040625 25.25,27.9375 L25.25,3.9375 C25.25,2.834375 24.353125,1.9375 23.25,1.9375 Z M23,27.6875 L9,27.6875 L9,4.1875 L23,4.1875 L23,27.6875 Z M14.75,24.5 C14.75,25.1903559 15.3096441,25.75 16,25.75 C16.6903559,25.75 17.25,25.1903559 17.25,24.5 C17.25,23.8096441 16.6903559,23.25 16,23.25 C15.3096441,23.25 14.75,23.8096441 14.75,24.5 Z" id="Icon-Shape"></path>
                        </g>
                        <rect id="ViewBox" x="0" y="0" width="32" height="32"></rect>
                    </g>
                </g>
            </g>
        </g>
    </g>
</svg>