<?xml version="1.0" encoding="UTF-8"?>
<svg width="38px" height="41px" viewBox="0 0 38 41" version="1.1" xmlns="http://www.w3.org/2000/svg" xmlns:xlink="http://www.w3.org/1999/xlink">
    <!-- Generator: Sketch 46.1 (44463) - http://www.bohemiancoding.com/sketch -->
    <title>Pomodoro Icon</title>
    <desc>Created with Sketch.</desc>
    <defs></defs>
    <g id="Page-1" stroke="none" stroke-width="1" fill="none" fill-rule="evenodd">
        <g id="Desktop-HD" transform="translate(-999.000000, -393.000000)" fill-rule="nonzero" fill="#5200C6">
            <g id="Pomodoro-Icon" transform="translate(999.000000, 393.000000)">
                <path d="M34.5937741,10.5542386 L33.3926638,11.7733356 C36.2914246,15.1919408 37.8883754,19.7468644 37.3995813,24.6690073 C36.5911606,32.8091436 29.995459,39.351607 21.8495459,40.1000936 C12.2201825,40.9849253 4.00914941,33.9050902 3.05663753,24.7030115 L1.35964342,24.7030115 C0.327897783,24.7030115 -0.316935034,23.5860584 0.198970606,22.6925616 L3.99451053,16.120164 C4.51041617,15.2267984 5.79995051,15.2268641 6.3157905,16.1202296 L10.110477,22.6927585 C10.6263827,23.5861897 9.98154986,24.7030772 8.94980422,24.7030772 L7.47245896,24.7030772 C8.4323231,31.5733727 14.8284633,36.7261271 22.162017,35.6512526 C27.5887746,34.8558953 31.9905479,30.5744496 32.9129287,25.1679108 C34.2935129,17.0757612 28.0664747,10.0328844 20.2256149,10.0328844 C17.6829136,10.0328844 15.2287678,10.7705395 13.1205721,12.1676664 C12.142196,12.8159784 10.7859662,12.6877077 10.0682015,11.7590906 C9.28662975,10.7480889 9.53069861,9.30468218 10.5728162,8.60096562 C12.8346216,7.07300791 15.3987232,6.1181328 18.0851218,5.7857055 L18.0851218,3.2943388 L16.3268807,3.2943388 C15.7218945,3.2943388 15.2315249,2.80396915 15.2315249,2.19898297 L15.2315249,1.09535584 C15.2315249,0.490435302 15.7220258,0 16.3268807,0 L24.4806712,0 C25.0856574,0 25.576027,0.490435302 25.576027,1.09535584 L25.576027,2.19898297 C25.576027,2.8039035 25.0856574,3.2943388 24.4806712,3.2943388 L22.5440721,3.2943388 L22.5440721,5.811701 C25.9926771,6.27699419 29.1191612,7.76661511 31.6124316,9.95955872 L32.7267589,8.82855754 L31.9101982,8.07370336 C31.4659771,7.66315827 31.4386687,6.97007623 31.8493451,6.52585515 L32.7230827,5.58056424 C33.1336935,5.13627752 33.8267099,5.10903476 34.270931,5.5196455 L37.5736723,8.5724756 C38.0180247,8.98308634 38.0452018,9.67610274 37.6346567,10.1203238 L36.7609191,11.0655491 C36.3503084,11.5097702 35.657292,11.5370786 35.2130709,11.1264678 L34.5937741,10.5542386 Z" id="Shape"></path>
                <path d="M15.8915238,21.2798152 C16.3582225,21.2798152 16.7172161,21.1541675 16.9685154,20.9028682 C17.2198146,20.6515689 17.3454624,20.3028323 17.3454624,19.8566478 C17.3454624,19.5079059 17.2172504,19.2117362 16.9608226,18.9681298 C16.7043947,18.7245233 16.3582223,18.6027219 15.9222949,18.6027219 C15.5940673,18.6027219 15.3158472,18.6988809 15.0876265,18.8912018 C14.8594057,19.0835227 14.745297,19.3361003 14.745297,19.6489423 L12.2220596,19.6489423 L12.206674,19.6027855 C12.1759026,18.7104166 12.5259214,17.9873009 13.2567407,17.4334167 C13.9875602,16.8795326 14.8760694,16.6025946 15.9222949,16.6025946 C17.137763,16.6025946 18.1108921,16.8808147 18.8417115,17.4372631 C19.5725309,17.9937116 19.937935,18.7822154 19.937935,19.8027982 C19.937935,20.3105254 19.7840807,20.7772171 19.4763672,21.2028873 C19.1686538,21.6285575 18.7506827,21.964473 18.2224413,22.2106437 C18.827611,22.4311717 19.2943027,22.7632408 19.6225304,23.2068609 C19.950758,23.6504812 20.1148694,24.1902537 20.1148694,24.8261947 C20.1148694,25.8519061 19.7212585,26.6583597 18.9340251,27.2455794 C18.1467915,27.8327992 17.1428915,28.1264047 15.9222949,28.1264047 C14.8658122,28.1264047 13.9478143,27.8507489 13.1682736,27.299429 C12.388733,26.7481091 12.0117897,25.9493484 12.0374325,24.9031227 L12.0528181,24.8569659 L14.5837483,24.8569659 C14.5837483,25.2210935 14.7093961,25.5236738 14.9606953,25.764716 C15.2119946,26.0057581 15.5325247,26.1262775 15.9222949,26.1262775 C16.3889937,26.1262775 16.7723475,25.9967833 17.0723681,25.7377912 C17.3723887,25.4787991 17.5223967,25.1569869 17.5223967,24.7723452 C17.5223967,24.2287181 17.3800814,23.832543 17.0954465,23.583808 C16.8108116,23.335073 16.4095081,23.2107073 15.8915238,23.2107073 L14.6606762,23.2107073 L14.6606762,21.2798152 L15.8915238,21.2798152 Z M29.0308212,23.8492095 C29.0308212,25.1877629 28.6743918,26.2352549 27.9615224,26.9917171 C27.2486529,27.7481792 26.3075768,28.1264047 25.1382658,28.1264047 C23.9586977,28.1264047 23.0124932,27.7481792 22.2996238,26.9917171 C21.5867543,26.2352549 21.2303249,25.1877629 21.2303249,23.8492095 L21.2303249,20.8797898 C21.2303249,19.5412365 21.5841901,18.4937444 22.2919309,17.7372822 C22.9996718,16.9808201 23.9433121,16.6025946 25.1228803,16.6025946 C26.2921913,16.6025946 27.2358316,16.9821022 27.9538296,17.7411286 C28.6718276,18.500155 29.0308212,19.546365 29.0308212,20.8797898 L29.0308212,23.8492095 Z M26.4383486,20.7028555 C26.4383486,20.0207574 26.3216757,19.5002167 26.0883263,19.1412177 C25.8549769,18.7822187 25.5331649,18.6027219 25.1228803,18.6027219 C24.7074672,18.6027219 24.3869372,18.7822187 24.1612807,19.1412177 C23.9356242,19.5002167 23.8227976,20.0207574 23.8227976,20.7028555 L23.8227976,24.0107582 C23.8227976,24.708242 23.9369063,25.2351934 24.1651271,25.591628 C24.3933478,25.9480628 24.7177242,26.1262775 25.1382658,26.1262775 C25.5485505,26.1262775 25.8677983,25.9480628 26.0960191,25.591628 C26.3242399,25.2351934 26.4383486,24.708242 26.4383486,24.0107582 L26.4383486,20.7028555 Z" id="30"></path>
            </g>
        </g>
    </g>
</svg>