<?xml version="1.0" encoding="UTF-8"?>
<svg width="29px" height="28px" viewBox="0 0 29 28" version="1.1" xmlns="http://www.w3.org/2000/svg" xmlns:xlink="http://www.w3.org/1999/xlink">
    <!-- Generator: sketchtool 58 (101010) - https://sketch.com -->
    <title>D148716C-94EF-4288-A3B6-2CC114514BB9</title>
    <desc>Created with sketchtool.</desc>
    <g id="Website" stroke="none" stroke-width="1" fill="none" fill-rule="evenodd">
        <g class="fill" id="01-HOME-R3.1" transform="translate(-611.000000, -636.000000)" fill="#AFB3C4" fill-rule="nonzero">
            <g id="OVERVIEW" transform="translate(290.500000, 630.000000)">
                <g id="Tabs" transform="translate(101.500000, 0.000000)">
                    <g id="Icon/Listing-Copy-Icon/Slashtask" transform="translate(213.608121, 0.000000)">
                        <path d="M34,20 C34,27.7320081 27.7320081,34 20,34 C12.2679919,34 6,27.7320081 6,20 C6,12.2679919 12.2679919,6 20,6 C27.7320081,6 34,12.2679919 34,20 Z M18.380629,27.4128871 L28.7677258,17.0257903 C29.1204355,16.6730806 29.1204355,16.1011694 28.7677258,15.7484597 L27.4903952,14.471129 C27.1376855,14.1183629 26.5657742,14.1183629 26.2130081,14.471129 L17.7419355,22.9421452 L13.7869919,18.9872016 C13.4342823,18.6344919 12.862371,18.6344919 12.5096048,18.9872016 L11.2322742,20.2645323 C10.8795645,20.6172419 10.8795645,21.1891532 11.2322742,21.5418629 L17.1032419,27.4128306 C17.4560081,27.7655968 18.0278629,27.7655968 18.380629,27.4128871 L18.380629,27.4128871 Z" id="Icon-Shape"></path>
                    </g>
                </g>
            </g>
        </g>
    </g>
</svg>