<?xml version="1.0" encoding="UTF-8"?>
<svg width="39px" height="39px" viewBox="0 0 39 39" version="1.1" xmlns="http://www.w3.org/2000/svg" xmlns:xlink="http://www.w3.org/1999/xlink">
    <!-- Generator: Sketch 51.3 (57544) - http://www.bohemiancoding.com/sketch -->
    <title>Shape</title>
    <desc>Created with Sketch.</desc>
    <defs></defs>
    <g id="Page-1" stroke="none" stroke-width="1" fill="none" fill-rule="evenodd">
        <g id="Desktop-HD" transform="translate(-780.000000, -648.000000)" fill="#FFFFFF" fill-rule="nonzero">
            <g id="Hero" transform="translate(-2.000000, 0.000000)">
                <g id="Features" transform="translate(0.000000, 627.000000)">
                    <g id="Group-5" transform="translate(719.000000, 4.000000)">
                        <path d="M82.5,17 C71.7250674,17 63,25.777628 63,36.5 C63,47.2749326 71.7250674,56 82.5,56 C93.2749326,56 102,47.222372 102,36.5 C102,25.777628 93.2749326,17 82.5,17 Z M91.1574803,40 L81.7913386,40 C80.8188976,40 80,39.1428571 80,38.125 L80,26.875 C80,25.8571429 80.8188976,25 81.7913386,25 C82.7637795,25 83.5826772,25.8571429 83.5826772,26.875 L83.5826772,36.1964286 L91.2086614,36.1964286 C92.1811024,36.1964286 93,37.0535714 93,38.0714286 C92.9488189,39.1428571 92.1811024,40 91.1574803,40 Z" id="Shape"></path>
                    </g>
                </g>
            </g>
        </g>
    </g>
</svg>