<?xml version="1.0" encoding="UTF-8"?>
<svg width="127px" height="32px" viewBox="0 0 127 32" version="1.1" xmlns="http://www.w3.org/2000/svg" xmlns:xlink="http://www.w3.org/1999/xlink">
    <!-- Generator: Sketch 51.3 (57544) - http://www.bohemiancoding.com/sketch -->
    <title>todoist</title>
    <desc>Created with Sketch.</desc>
    <defs></defs>
    <g id="Page-1" stroke="none" stroke-width="1" fill="none" fill-rule="evenodd">
        <g id="todoist" transform="translate(-12.000000, -19.000000)" fill="#FFFFFF" fill-rule="nonzero">
            <g transform="translate(12.000000, 19.000000)">
                <path d="M54.778,19.28 C54.778,19.8 54.865,20.3 55.038,20.78 C55.3771429,21.7397813 56.0902793,22.5214538 57.015,22.947 C57.488,23.169 58.025,23.28 58.625,23.28 C59.225,23.28 59.761,23.17 60.235,22.947 C60.705,22.727 61.11,22.43 61.448,22.059 C61.783,21.687 62.038,21.262 62.211,20.779 C62.383,20.299 62.469,19.799 62.469,19.279 C62.469,18.763 62.383,18.261 62.212,17.779 C62.0445805,17.307303 61.7856229,16.8733281 61.45,16.502 C61.1081825,16.12847 60.6955179,15.8266198 60.236,15.614 C59.7307608,15.384492 59.1808521,15.27007 58.626,15.279 C58.028,15.279 57.49,15.392 57.016,15.614 C56.0922648,16.0395833 55.3796685,16.8203378 55.04,17.779 C54.867,18.261 54.78,18.763 54.78,19.279 L54.778,19.28 Z M51.576,19.439 C51.576,18.379 51.766,17.414 52.143,16.549 C52.4996585,15.7126855 53.0214038,14.9569372 53.677,14.327 C54.3366374,13.7024623 55.1155141,13.21745 55.967,12.901 C56.8686772,12.5636653 57.8243023,12.3935505 58.787,12.399 C59.78,12.399 60.72,12.567 61.604,12.901 C62.4562692,13.2182749 63.2362993,13.7031585 63.898,14.327 C64.5524933,14.9568874 65.0738031,15.7118174 65.431,16.547 C65.808,17.414 65.997,18.377 65.997,19.44 C65.997,20.503 65.807,21.467 65.431,22.333 C65.074548,23.1685935 64.5531414,23.9236636 63.898,24.553 C63.2372392,25.1773235 62.4573606,25.6619841 61.605,25.978 C60.7049685,26.316271 59.7504795,26.4864249 58.789,26.48 C57.826218,26.486439 56.8704149,26.3162925 55.969,25.978 C55.1172542,25.6630149 54.3382243,25.1785876 53.679,24.554 C53.0233528,23.9250941 52.5018703,23.169914 52.146,22.334 C51.769,21.467 51.58,20.504 51.58,19.441 L51.576,19.439 Z M70.8,19.28 C70.8,19.8 70.886,20.3 71.06,20.78 C71.232,21.263 71.485,21.688 71.822,22.06 C72.16,22.43 72.564,22.726 73.036,22.947 C73.509,23.169 74.046,23.28 74.646,23.28 C75.246,23.28 75.782,23.17 76.256,22.947 C76.726,22.727 77.132,22.43 77.468,22.059 C77.804,21.687 78.058,21.262 78.232,20.779 C78.402,20.299 78.489,19.799 78.489,19.279 C78.489,18.763 78.402,18.261 78.231,17.779 C78.0628397,17.3072094 77.8032114,16.8732495 77.467,16.502 C77.1261612,16.1278137 76.7136807,15.8258494 76.254,15.614 C75.7487608,15.384492 75.1988521,15.27007 74.644,15.279 C74.044,15.279 73.508,15.392 73.034,15.614 C72.1101276,16.0393957 71.3974692,16.8202183 71.058,17.779 C70.884,18.261 70.798,18.763 70.798,19.279 L70.8,19.28 Z M78.84,23.85 L78.784,23.85 C78.301,24.658 77.654,25.245 76.836,25.612 C76.0035181,25.9801541 75.1022281,26.1669571 74.192,26.16 C73.152,26.16 72.23,25.983 71.422,25.625 C70.6365901,25.2825437 69.9304746,24.7813855 69.348,24.153 C68.7651132,23.5172408 68.3192093,22.7683945 68.038,21.953 C67.7368507,21.078092 67.5870386,20.1582521 67.595,19.233 C67.595,18.261 67.751,17.353 68.069,16.509 C68.3629456,15.6973741 68.8111869,14.9503054 69.389,14.309 C69.9604383,13.6814622 70.6570881,13.1806919 71.434,12.839 C72.234,12.479 73.106,12.301 74.05,12.301 C74.683,12.301 75.24,12.366 75.723,12.493 C76.206,12.623 76.631,12.786 77.003,12.99 C77.6203191,13.3109952 78.1615171,13.7608 78.59,14.309 L78.673,14.309 L78.673,7.037 C78.673,6.707 78.937,6.319 79.401,6.319 L81.289,6.319 C81.725,6.319 82.015,6.681 82.015,7.037 L82.015,25.111 C82.015,25.571 81.621,25.831 81.289,25.831 L79.57,25.831 C79.171366,25.8294311 78.8470669,25.5095744 78.84,25.111 L78.84,23.85 Z M87.46,19.28 C87.46,19.8 87.548,20.3 87.72,20.78 C87.894,21.263 88.147,21.688 88.485,22.06 C88.822,22.43 89.225,22.726 89.699,22.947 C90.169,23.169 90.709,23.28 91.307,23.28 C91.907,23.28 92.443,23.17 92.917,22.947 C93.389,22.727 93.792,22.43 94.13,22.059 C94.466,21.687 94.72,21.262 94.894,20.779 C95.064,20.299 95.151,19.799 95.151,19.279 C95.151,18.763 95.066,18.261 94.895,17.779 C94.7268062,17.3074465 94.4675581,16.8735543 94.132,16.502 C93.7909613,16.1280362 93.378529,15.8261072 92.919,15.614 C92.4137608,15.384492 91.8638521,15.27007 91.309,15.279 C90.711,15.279 90.173,15.392 89.701,15.614 C88.7765382,16.039497 88.0629655,16.8201362 87.722,17.779 C87.5496216,18.2603024 87.4616622,18.7677601 87.462,19.279 L87.46,19.28 Z M84.259,19.439 C84.259,18.379 84.449,17.414 84.826,16.549 C85.1815866,15.7123444 85.7030885,14.9564558 86.359,14.327 C87.0186374,13.7024623 87.7975141,13.21745 88.649,12.901 C89.5506772,12.5636653 90.5063023,12.3935505 91.469,12.399 C92.462,12.399 93.402,12.567 94.285,12.901 C95.1370936,13.2180271 95.9168431,13.7029476 96.578,14.327 C97.2328062,14.9566215 97.7541626,15.711619 98.111,16.547 C98.488,17.414 98.677,18.377 98.677,19.44 C98.677,20.503 98.487,21.467 98.11,22.333 C97.7528188,23.1684405 97.2311241,23.9234354 96.576,24.553 C95.9154075,25.1775419 95.135482,25.6622318 94.283,25.978 C93.3829685,26.316271 92.4284795,26.4864249 91.467,26.48 C90.504218,26.486439 89.5484149,26.3162925 88.647,25.978 C87.7952542,25.6630149 87.0162243,25.1785876 86.357,24.554 C85.7013528,23.9250941 85.1798703,23.169914 84.824,22.334 C84.446,21.467 84.257,20.504 84.257,19.441 L84.259,19.439 Z M100.278,7.92 C100.278,7.404 100.472,6.957 100.858,6.573 C101.248,6.191 101.738,6 102.333,6 C102.928,6 103.429,6.182 103.833,6.547 C104.239,6.911 104.443,7.369 104.443,7.92 C104.443,8.47 104.239,8.93 103.833,9.293 C103.429,9.658 102.928,9.84 102.333,9.84 C101.739,9.84 101.249,9.65 100.859,9.265 C100.471,8.883 100.277,8.435 100.277,7.92 L100.278,7.92 Z M114.035,16.45 C113.705,16.45 113.465,16.198 113.422,16.088 C113.148,15.358 112.274,15.083 111.568,15.083 C110.455,15.083 109.582,15.607 109.582,16.508 C109.582,17.38 110.427,17.558 110.949,17.718 C111.521,17.895 112.616,18.138 113.219,18.282 C113.833,18.428 114.404,18.642 114.939,18.925 C116.689,19.849 116.939,21.303 116.939,22.179 C116.939,25.407 113.789,26.479 111.603,26.479 C109.917,26.479 106.75,26.219 106.055,22.954 C105.987,22.637 106.265,22.148 106.773,22.148 L108.593,22.148 C108.953,22.148 109.193,22.413 109.263,22.621 C109.499,23.278 110.243,23.773 111.497,23.773 C112.843,23.773 113.639,23.231 113.639,22.51 C113.639,22.044 113.379,21.628 113.039,21.395 C112.019,20.691 109.494,20.612 108.124,19.871 C107.599,19.588 106.282,18.939 106.282,16.729 C106.282,13.684 109.008,12.399 111.402,12.399 C114.934,12.399 116.23,14.666 116.376,15.506 C116.456,15.97 116.201,16.45 115.688,16.45 L114.033,16.45 L114.035,16.45 Z M117.26,14.625 L117.26,13.25 C117.26,12.92 117.523,12.527 117.99,12.527 L119.788,12.527 L119.788,9.15 C119.788,8.788 120.038,8.568 120.225,8.487 C120.335,8.439 121.343,8.007 122.145,7.66 C122.708,7.433 123.162,7.89 123.162,8.328 L123.162,12.528 L126.139,12.528 C126.599,12.528 126.872,12.922 126.872,13.25 L126.872,14.627 C126.872,15.027 126.51,15.352 126.139,15.352 L123.161,15.352 L123.161,21.172 C123.161,21.838 123.141,22.358 123.401,22.742 C123.636,23.095 123.983,23.225 124.678,23.225 C124.876,23.225 125.054,23.192 125.204,23.142 C125.644,22.992 125.974,23.247 126.087,23.462 C126.305,23.879 126.557,24.339 126.733,24.669 C126.823602,24.8425897 126.841192,25.0451562 126.781868,25.2317647 C126.722543,25.4183733 126.59121,25.5735958 126.417,25.663 C125.847,25.937 125.055,26.159 123.97,26.159 C123.07,26.159 122.562,26.062 121.993,25.869 C121.433325,25.6662796 120.936744,25.3200522 120.553,24.865 C120.223,24.469 120.059,23.937 119.938,23.345 C119.815,22.755 119.786,22.038 119.786,21.261 L119.786,15.351 L117.992,15.351 C117.522,15.351 117.259,14.949 117.259,14.624 L117.26,14.625 Z M41.32,14.625 L41.32,13.25 C41.32,12.92 41.576,12.527 42.03,12.527 L44.032,12.527 L44.032,9.15 C44.032,8.788 44.274,8.568 44.458,8.487 C44.566,8.439 45.546,8.007 46.328,7.66 C46.876,7.433 47.318,7.89 47.318,8.328 L47.318,12.528 L50.218,12.528 C50.666,12.528 50.933,12.922 50.933,13.25 L50.933,14.627 C50.933,15.027 50.58,15.352 50.219,15.352 L47.319,15.352 L47.319,21.172 C47.319,21.838 47.299,22.358 47.549,22.742 C47.779,23.095 48.119,23.225 48.795,23.225 C48.989,23.225 49.162,23.192 49.309,23.142 C49.739,22.992 50.059,23.247 50.169,23.462 C50.382,23.879 50.627,24.339 50.799,24.669 C50.987,25.029 50.835,25.494 50.489,25.663 C49.934,25.937 49.164,26.159 48.109,26.159 C47.232,26.159 46.736,26.062 46.182,25.869 C45.6335101,25.6642655 45.1490686,25.3178415 44.778,24.865 C44.456,24.469 44.298,23.937 44.178,23.345 C44.058,22.755 44.03,22.038 44.03,21.261 L44.03,15.351 L42.033,15.351 C41.573,15.351 41.318,14.949 41.318,14.624 L41.32,14.625 Z M101.616,25.84 L103.426,25.84 C103.81,25.84 104.123,25.52 104.123,25.127 L104.123,13.433 C104.126344,13.044457 103.815511,12.7260311 103.427,12.72 L101.617,12.72 C101.227471,12.7243948 100.915113,13.0434656 100.919,13.433 L100.919,25.127 C100.919,25.519 101.231,25.84 101.615,25.84 L101.616,25.84 Z" id="Shape"></path>
                <path d="M0,22.555 C1.32,23.333 4.607,25.265 5.403,25.72 C5.878,25.99 6.333,25.984 6.793,25.717 L6.792,25.717 C7.352,25.39 19.382,18.399 19.657,18.237 C19.932,18.077 19.947,17.585 19.637,17.407 C19.329,17.23 18.744,16.894 18.527,16.765 C18.2171642,16.5945411 17.8406218,16.5990961 17.535,16.777 C17.381,16.867 7.102,22.837 6.759,23.033 C6.346,23.269 5.839,23.273 5.429,23.033 L0,19.847 L0,17.115 C1.32,17.893 4.607,19.825 5.403,20.28 C5.878,20.55 6.333,20.544 6.793,20.277 L6.792,20.277 C7.352,19.95 19.382,12.959 19.657,12.797 C19.932,12.637 19.947,12.145 19.637,11.967 C19.329,11.79 18.744,11.454 18.527,11.325 C18.2171642,11.1545411 17.8406218,11.1590961 17.535,11.337 C17.381,11.427 7.102,17.397 6.759,17.593 C6.346,17.829 5.839,17.833 5.429,17.593 L0,14.407 L0,11.995 C1.32,12.773 4.607,14.705 5.403,15.16 C5.878,15.43 6.333,15.424 6.793,15.157 L6.792,15.157 C7.352,14.83 19.382,7.839 19.657,7.677 C19.932,7.517 19.947,7.025 19.637,6.847 C19.329,6.67 18.744,6.334 18.527,6.205 C18.2171642,6.03454111 17.8406218,6.03909606 17.535,6.217 C17.381,6.307 7.102,12.277 6.759,12.473 C6.346,12.709 5.839,12.713 5.429,12.473 L0,9.287 L0,4 C0.00769520444,1.79210575 1.79709786,0.00493705554 4.005,0 L28.037,0 C30.24,0 32.042,1.8 32.042,4 L32.042,28 C32.042,30.2 30.24,32 28.037,32 L4.005,32 C1.802,32 0,30.2 0,28 L0,22.555 Z" id="Combined-Shape"></path>
            </g>
        </g>
    </g>
</svg>