<?xml version="1.0" encoding="UTF-8"?>
<svg width="33px" height="32px" viewBox="0 0 33 32" version="1.1" xmlns="http://www.w3.org/2000/svg" xmlns:xlink="http://www.w3.org/1999/xlink">
    <!-- Generator: Sketch 51.3 (57544) - http://www.bohemiancoding.com/sketch -->
    <title>Combined Shape</title>
    <desc>Created with Sketch.</desc>
    <defs></defs>
    <g id="Page-1" stroke="none" stroke-width="1" fill="none" fill-rule="evenodd">
        <g id="todoist" transform="translate(-12.000000, -19.000000)" fill="#FFFFFF" fill-rule="nonzero">
            <g transform="translate(12.000000, 19.000000)" id="Combined-Shape">
                <path d="M0,22.555 C1.32,23.333 4.607,25.265 5.403,25.72 C5.878,25.99 6.333,25.984 6.793,25.717 L6.792,25.717 C7.352,25.39 19.382,18.399 19.657,18.237 C19.932,18.077 19.947,17.585 19.637,17.407 C19.329,17.23 18.744,16.894 18.527,16.765 C18.2171642,16.5945411 17.8406218,16.5990961 17.535,16.777 C17.381,16.867 7.102,22.837 6.759,23.033 C6.346,23.269 5.839,23.273 5.429,23.033 L0,19.847 L0,17.115 C1.32,17.893 4.607,19.825 5.403,20.28 C5.878,20.55 6.333,20.544 6.793,20.277 L6.792,20.277 C7.352,19.95 19.382,12.959 19.657,12.797 C19.932,12.637 19.947,12.145 19.637,11.967 C19.329,11.79 18.744,11.454 18.527,11.325 C18.2171642,11.1545411 17.8406218,11.1590961 17.535,11.337 C17.381,11.427 7.102,17.397 6.759,17.593 C6.346,17.829 5.839,17.833 5.429,17.593 L0,14.407 L0,11.995 C1.32,12.773 4.607,14.705 5.403,15.16 C5.878,15.43 6.333,15.424 6.793,15.157 L6.792,15.157 C7.352,14.83 19.382,7.839 19.657,7.677 C19.932,7.517 19.947,7.025 19.637,6.847 C19.329,6.67 18.744,6.334 18.527,6.205 C18.2171642,6.03454111 17.8406218,6.03909606 17.535,6.217 C17.381,6.307 7.102,12.277 6.759,12.473 C6.346,12.709 5.839,12.713 5.429,12.473 L0,9.287 L0,4 C0.00769520444,1.79210575 1.79709786,0.00493705554 4.005,0 L28.037,0 C30.24,0 32.042,1.8 32.042,4 L32.042,28 C32.042,30.2 30.24,32 28.037,32 L4.005,32 C1.802,32 0,30.2 0,28 L0,22.555 Z"></path>
            </g>
        </g>
    </g>
</svg>