<?xml version="1.0" encoding="UTF-8"?>
<svg width="35px" height="41px" viewBox="0 0 35 41" version="1.1" xmlns="http://www.w3.org/2000/svg" xmlns:xlink="http://www.w3.org/1999/xlink">
    <!-- Generator: Sketch 46.1 (44463) - http://www.bohemiancoding.com/sketch -->
    <title>Shape</title>
    <desc>Created with Sketch.</desc>
    <defs></defs>
    <g id="Page-1" stroke="none" stroke-width="1" fill="none" fill-rule="evenodd">
        <g id="focus" transform="translate(-1.000000, -1.000000)" fill-rule="nonzero" fill="#FFFFFF">
            <g id="targeting" transform="translate(0.148549, 0.124345)">
                <path d="M20.1201644,0.875655 C28.7643464,0.875655 35.7788186,7.88172672 35.7872192,16.5343093 C35.7872192,21.104217 33.8298874,25.2120936 30.7132776,28.0766864 L30.7132776,36.3596441 L30.7132776,36.9308826 L30.7132776,37.6449307 C30.7132776,38.2665725 30.2092436,38.8630127 29.5960024,38.97222 L13.3157062,41.853614 C12.7108655,41.9628214 12.2236327,41.5763954 12.198431,40.9967563 L12.198431,40.9631541 L12.1900304,36.4436498 L7.67052613,37.115695 C5.85600395,37.115695 4.37750441,35.6287949 4.37750441,33.8226733 L4.37750441,30.7228646 L4.37750441,28.0682859 L4.37750441,28.0346836 L2.87380316,28.0346836 C1.14328665,28.0346836 0.378835179,26.7745988 1.18528948,25.2372953 L4.37750441,19.1468852 L4.37750441,18.6428513 L4.37750441,16.5511104 C4.37750441,10.2674873 8.08215384,4.8575231 13.4333141,2.37095568 C15.4578504,1.4132912 17.7260032,0.875655 20.1201644,0.875655 Z M20.9157562,22.8583387 C23.4142595,22.387303 25.3873782,20.4141843 25.858414,17.9154175 L24.861956,17.9154175 C24.2259918,17.9154175 23.7102424,17.399894 23.7102424,16.763704 C23.7102424,16.1274763 24.2260294,15.6119904 24.861956,15.6119904 L25.858414,15.6119904 C25.3873782,13.1134496 23.4142595,11.1405567 20.9157562,10.6692951 L20.9157562,11.6657532 C20.9157562,12.3019808 20.4000069,12.8174667 19.7640427,12.8174667 C19.1280786,12.8174667 18.6123292,12.3019808 18.6123292,11.6657532 L18.6123292,10.6692951 C16.1137883,11.1405567 14.1406696,13.113713 13.6696339,15.6119904 L14.6660919,15.6119904 C15.3020561,15.6119904 15.8178054,16.1274763 15.8178054,16.763704 C15.8178054,17.399894 15.3020561,17.9154175 14.6660919,17.9154175 L13.6696339,17.9154175 C14.1406696,20.4139584 16.1138259,22.3870771 18.6123292,22.8583387 L18.6123292,21.8618431 C18.6123292,21.2256154 19.1280786,20.7101295 19.7640427,20.7101295 C20.4000069,20.7101295 20.9157562,21.225653 20.9157562,21.8618431 L20.9157562,22.8583387 Z M29.3762214,15.6119904 L28.190935,15.6119904 C27.6778955,11.8415212 24.6864513,8.85003937 20.9157562,8.33707519 L20.9157562,7.15171355 C20.9157562,6.51552354 20.4000069,6 19.7640427,6 C19.1280786,6 18.6123292,6.51552354 18.6123292,7.15171355 L18.6123292,8.33730101 C14.8416341,8.85026519 11.8501899,11.8417094 11.3374139,15.6122163 L10.1518265,15.6122163 C9.51586228,15.6122163 9.00011291,16.1277398 9.00011291,16.7639298 C9.00011291,17.4001575 9.51586228,17.9156433 10.1518265,17.9156433 L11.3371881,17.9156433 C11.8501523,21.6861126 14.8416341,24.6778203 18.6123292,25.1905586 L18.6123292,26.3761085 C18.6123292,27.0123361 19.1280786,27.5278597 19.7640427,27.5278597 C20.4000069,27.5278597 20.9157562,27.0123737 20.9157562,26.3761085 L20.9157562,25.1905586 C24.6864513,24.6775568 27.6778955,21.6861126 28.1906339,17.9154175 L29.3759956,17.9154175 C30.0119974,17.9154175 30.5277091,17.399894 30.5277091,16.763704 C30.5277091,16.1274763 30.0122608,15.6119904 29.3762214,15.6119904 Z" id="Shape"></path>
            </g>
        </g>
    </g>
</svg>