<?xml version="1.0" encoding="UTF-8"?>
<svg width="358px" height="70px" viewBox="0 0 358 70" version="1.1" xmlns="http://www.w3.org/2000/svg" xmlns:xlink="http://www.w3.org/1999/xlink">
    <!-- Generator: Sketch 51.3 (57544) - http://www.bohemiancoding.com/sketch -->
    <title>Asana_logo</title>
    <desc>Created with Sketch.</desc>
    <defs></defs>
    <g id="Page-1" stroke="none" stroke-width="1" fill="none" fill-rule="evenodd">
        <g id="Asana_logo" fill="#FFFFFF" fill-rule="nonzero">
            <path d="M126.04058,50.63112 C117.604436,50.63112 110.765633,43.642018 110.765633,35.018639 C110.765633,26.396723 117.604436,19.406524 126.04058,19.406524 C134.477091,19.406524 141.314431,26.396723 141.314431,35.018639 C141.314431,43.642018 134.477091,50.63112 126.04058,50.63112 Z M141.363433,52.611707 C141.363433,54.04083 143.812837,58.057224 146.814801,58.057224 L148.759185,58.057224 C149.512876,58.057224 150.129798,57.43957 150.129798,56.686245 L150.129798,13.962469 L150.121753,13.962469 C150.082624,13.243154 149.486911,12.666458 148.759185,12.666458 L142.734778,12.666458 C142.00632,12.666458 141.411339,13.243154 141.370382,13.962469 L141.363433,13.962469 L141.363433,17.434348 C137.67214,12.887701 131.852886,11.001463 126.01681,11.001463 C112.752071,11.001463 102,21.753534 102,35.018639 C102,48.283744 112.752071,59.037643 126.01681,59.037643 C131.852886,59.037643 138.212633,56.773645 141.362702,52.60549 L141.363433,52.611707 Z M164.522696,46.492951 C168.544209,49.27806 172.933974,50.63112 177.151864,50.63112 C181.171182,50.63112 185.325441,48.547408 185.325441,44.921939 C185.325441,40.080545 176.272375,39.326854 170.58477,37.394173 C164.895702,35.461126 159.995432,31.464114 159.995432,24.992466 C159.995432,15.090263 168.81921,11 177.054224,11 C182.272646,11 187.656361,12.720946 191.14689,15.186074 C192.34965,16.096281 191.616804,17.142526 191.616804,17.142526 L188.284985,21.901273 C187.910517,22.437012 187.134153,22.865237 186.316101,22.319625 C184.071484,20.836013 181.571249,19.406158 177.054224,19.406158 C171.462796,19.406158 169.003153,21.727204 169.003153,24.602639 C169.003153,28.05221 172.9369,29.136852 177.544617,30.312916 C185.574843,32.476349 194.333528,35.078612 194.333528,44.921939 C194.333528,53.646615 186.172018,59.039106 177.151864,59.039106 C170.317083,59.039106 164.497098,57.089969 159.616209,53.508383 C158.599952,52.491028 159.30976,51.546081 159.30976,51.546081 L162.625487,46.8122 C163.299823,45.926129 164.150422,46.235504 164.522696,46.492951 Z M239.512559,52.611707 C239.512559,54.04083 241.961962,58.057224 244.963927,58.057224 L246.907579,58.057224 C247.662001,58.057224 248.279289,57.43957 248.279289,56.686245 L248.279289,13.962469 L248.271243,13.962469 C248.231017,13.243154 247.636037,12.666458 246.907579,12.666458 L240.883537,12.666458 C240.154713,12.666458 239.559733,13.243154 239.519872,13.962469 L239.512559,13.962469 L239.512559,17.434348 C235.821631,12.887701 230.001646,11.001463 224.167033,11.001463 C210.901927,11.001463 200.148394,21.753534 200.148394,35.018639 C200.148394,48.283744 210.901927,59.037643 224.167033,59.037643 C230.001646,59.037643 236.361758,56.773645 239.511827,52.60549 L239.512559,52.611707 Z M224.189705,50.63112 C215.753195,50.63112 208.914758,43.642018 208.914758,35.018639 C208.914758,26.396723 215.753195,19.406524 224.189705,19.406524 C232.625484,19.406524 239.463922,26.396723 239.463922,35.018639 C239.463922,43.642018 232.625484,50.63112 224.189705,50.63112 Z M302.253207,54.079959 L302.250647,31.973157 L302.251379,31.973157 C302.251379,19.510746 294.389005,11.103856 281.851261,11.103856 C275.86708,11.103856 270.970466,14.564398 269.237818,17.536741 L269.237818,17.495418 L269.227579,17.529427 C269.223922,14.520881 266.784026,12.769217 263.776211,12.769217 L261.842067,12.769217 C261.087279,12.769217 260.470723,13.386871 260.470723,14.140927 L260.470723,52.718489 L260.470723,52.725071 L260.470723,56.867262 L260.478768,56.867262 C260.517531,57.586578 261.113974,58.164006 261.842067,58.164006 L267.866108,58.164006 C267.958263,58.164006 268.048954,58.153035 268.13672,58.136579 C268.176946,58.128168 268.21315,58.112443 268.251913,58.101107 C268.297625,58.087942 268.344067,58.076971 268.386122,58.059052 C268.44061,58.037111 268.488881,58.006758 268.538981,57.978966 C268.563117,57.964338 268.589081,57.953733 268.612851,57.939105 C268.671727,57.899976 268.727678,57.853168 268.781069,57.805262 C268.789846,57.79612 268.800451,57.790269 268.808862,57.781858 C268.869201,57.724444 268.923323,57.661545 268.97196,57.594258 L268.972692,57.593526 C269.123357,57.386179 269.21478,57.137143 269.229773,56.867262 L269.237818,56.867262 L269.237818,31.630138 C269.237818,24.936881 274.663953,19.510746 281.357577,19.510746 C288.0512,19.510746 293.477701,24.936881 293.477701,31.630138 L293.482455,52.725803 L293.484283,52.718489 C293.484283,52.736773 293.487574,52.756521 293.487574,52.775902 L293.487574,56.867262 L293.49562,56.867262 C293.53548,57.586578 294.130461,58.164006 294.859284,58.164006 L300.883326,58.164006 C300.976211,58.164006 301.06544,58.153035 301.153206,58.136579 C301.189044,58.128534 301.221956,58.114272 301.255966,58.105861 C301.306431,58.091233 301.356897,58.078434 301.404071,58.059052 C301.452708,58.038208 301.498054,58.010415 301.544131,57.984451 C301.572655,57.968726 301.602642,57.956658 301.629703,57.939105 C301.686385,57.901439 301.73685,57.857556 301.78695,57.814404 C301.799749,57.803068 301.814011,57.793194 301.826079,57.781492 C301.883493,57.726638 301.933227,57.66703 301.980401,57.604863 C301.983327,57.599377 301.987349,57.595721 301.991372,57.591332 C302.139843,57.386179 302.230169,57.138971 302.246259,56.870919 C302.246259,56.869457 302.246991,56.867262 302.246991,56.867262 L302.253939,56.867262 L302.253939,54.081056 L302.253207,54.079959 Z M349.234367,52.611707 C349.234367,54.04083 351.680845,58.057224 354.683175,58.057224 L356.628656,58.057224 C357.381981,58.057224 358,57.43957 358,56.686245 L358,13.962469 L357.992686,13.962469 C357.95246,13.243154 357.356382,12.666458 356.628656,12.666458 L350.605711,12.666458 C349.874328,12.666458 349.281907,13.243154 349.241681,13.962469 L349.234367,13.962469 L349.234367,17.434348 C345.54088,12.887701 339.722723,11.001463 333.886281,11.001463 C320.622639,11.001463 309.869105,21.753534 309.869105,35.018639 C309.869105,48.283744 320.622639,59.037643 333.886281,59.037643 C339.722723,59.037643 346.082104,56.773645 349.23071,52.60549 L349.234367,52.611707 Z M333.91188,50.63112 C325.475369,50.63112 318.636932,43.642018 318.636932,35.018639 C318.636932,26.396723 325.475369,19.406524 333.91188,19.406524 C342.344733,19.406524 349.18317,26.396723 349.18317,35.018639 C349.18317,43.642018 342.344733,50.63112 333.91188,50.63112 Z" id="Shape"></path>
            <path d="M58.6891678,36.7000805 C49.6799188,36.7000805 42.3777691,44.0025132 42.3777691,53.0109129 C42.3777691,62.0198787 49.6799188,69.3228774 58.6891678,69.3228774 C67.6972845,69.3228774 75,62.0198787 75,53.0109129 C75,44.0025132 67.6972845,36.7000805 58.6891678,36.7000805 Z M16.3111151,36.7012125 C7.30299879,36.7012125 0,44.0025132 0,53.011762 C0,62.0198787 7.30299879,69.3228774 16.3111151,69.3228774 C25.3197983,69.3228774 32.6230803,62.0198787 32.6230803,53.011762 C32.6230803,44.0025132 25.3197983,36.7012125 16.3111151,36.7012125 Z M53.8106908,16.3108325 C53.8106908,25.3192322 46.5085411,32.6233629 37.5004243,32.6233629 C28.4914589,32.6233629 21.1890263,25.3192322 21.1890263,16.3108325 C21.1890263,7.30299877 28.4914589,0 37.5004243,0 C46.5085411,0 53.8106908,7.30299877 53.8106908,16.3108325 Z" id="Shape"></path>
        </g>
    </g>
</svg>