<?xml version="1.0" encoding="UTF-8"?>
<svg width="144px" height="161px" viewBox="0 0 144 161" version="1.1" xmlns="http://www.w3.org/2000/svg" xmlns:xlink="http://www.w3.org/1999/xlink">
    <!-- Generator: Sketch 64 (93537) - https://sketch.com -->
    <title>Group</title>
    <desc>Created with Sketch.</desc>
    <g id="Page-1" stroke="none" stroke-width="1" fill="none" fill-rule="evenodd">
        <g id="logo" transform="translate(-51.000000, -45.000000)" fill-rule="nonzero">
            <g id="Icon">
                <g id="Group" transform="translate(51.846200, 45.164078)">
                    <path d="M142.0578,40.9015215 C139.1918,34.3429215 108.5378,46.4700215 71.1538,69.3629215 C31.9008,93.3699215 0,120.098922 0,129.007922 L0,144.352922 C0,135.442922 31.9008,128.265922 71.1538,128.265922 C110.4068,128.265922 142.3078,135.442922 142.3078,144.352922 L142.3078,42.0152215 C142.3078,41.6439215 142.3078,41.2727215 142.0578,40.9015215 Z" id="Path" fill="#BD86FF"></path>
                    <path d="M71.1538,101.660922 C31.9008,125.543922 0,137.793922 0,129.007922 L0,144.352922 C0,153.262922 31.9008,160.439922 71.1538,160.439922 C110.4068,160.439922 142.3078,153.262922 142.3078,144.352922 L142.3078,42.0152215 C142.3078,50.9249215 110.5318,77.6539215 71.1538,101.660922 Z" id="Path" fill="#F62F6F"></path>
                    <path d="M71.1538,160.439922 C110.4508,160.439922 142.3078,153.237922 142.3078,144.352922 C142.3078,135.467922 110.4508,128.265922 71.1538,128.265922 C31.8566,128.265922 0,135.467922 0,144.352922 C0,153.237922 31.8566,160.439922 71.1538,160.439922 Z" id="Path" fill="#FF396E"></path>
                    <path d="M142.3078,2.88562154 L142.3078,2.63812154 C142.3078,2.26682154 142.1828,2.01932154 142.0578,1.77192154 C139.1918,-4.78667846 108.5378,7.34042154 71.1538,30.2334215 C31.9008,54.2399215 0,80.9689215 0,89.7549215 L0,89.8789215 L0,101.757922 C0,110.667922 31.9008,98.4169215 71.1538,74.4109215 C110.4068,50.4039215 142.3078,23.7986215 142.3078,14.8889215 L142.3078,14.7651215 L142.3078,2.88562154 C142.3078,3.00932154 142.3078,3.00932154 142.3078,2.88562154 Z" id="Path" fill="#BC83FF"></path>
                    <path d="M71.1538,62.4069215 C32.15,86.2899215 0.4984,98.5409215 0,90.0029215 L0,101.881922 C0,110.791922 31.9008,98.5409215 71.1538,74.5339215 C110.4068,50.5279215 142.3078,23.9223215 142.3078,15.0126215 L142.3078,14.8889215 L142.3078,3.00932154 C142.0578,12.0427215 110.2818,38.5243215 71.1538,62.4069215 Z" id="Path" fill="#F52F6E"></path>
                </g>
            </g>
        </g>
    </g>
</svg>