<?xml version="1.0" encoding="UTF-8"?>
<svg width="30px" height="30px" viewBox="0 0 30 30" version="1.1" xmlns="http://www.w3.org/2000/svg" xmlns:xlink="http://www.w3.org/1999/xlink">
    <!-- Generator: Sketch 63.1 (92452) - https://sketch.com -->
    <title>noun_Command_2847025</title>
    <desc>Created with Sketch.</desc>
    <g id="Page-1" stroke="none" stroke-width="1" fill="none" fill-rule="evenodd">
        <g id="noun_Command_2847025" fill="#7922FF" fill-rule="nonzero">
            <path d="M24.2637915,18.7628548 L21.8240792,18.7628548 L21.8240792,11.2369958 L24.2637915,11.2369958 C27.2969149,11.2369958 29.7644293,8.76933193 29.7644293,5.73620853 C29.7644293,2.70308513 27.2969149,0.235421296 24.2637915,0.235421296 C21.2306681,0.235421296 18.7628548,2.70308513 18.7628548,5.73620853 L18.7628548,8.17577128 L11.2369958,8.17577128 L11.2369958,5.73620853 C11.2369958,2.70308513 8.76933193,0.235421296 5.73620853,0.235421296 C2.70308513,0.235421296 0.235421327,2.70308513 0.235421327,5.73620853 C0.235421327,8.76933193 2.70308516,11.2369958 5.73620856,11.2369958 L8.17577131,11.2369958 L8.17577131,18.7628548 L5.73620856,18.7628548 C2.70308516,18.7628548 0.235421327,21.230668 0.235421327,24.2637915 C0.235421327,27.2969149 2.70308516,29.7644292 5.73620856,29.7644292 C8.76933196,29.7644292 11.2369958,27.2969149 11.2369958,24.2637915 L11.2369958,21.8240792 L18.7628548,21.8240792 L18.7628548,24.2637915 C18.7628548,27.2969149 21.2306681,29.7644292 24.2637915,29.7644292 C27.2969149,29.7644292 29.7644293,27.2969149 29.7644293,24.2637915 C29.7644293,21.2306681 27.2969149,18.7628548 24.2637915,18.7628548 Z M21.8240792,5.73620853 C21.8240792,4.39109333 22.9185268,3.29664579 24.2637915,3.29664579 C25.6087572,3.29664579 26.7032047,4.39109333 26.7032047,5.73620853 C26.7032047,7.08132373 25.6087572,8.17577128 24.2637915,8.17577128 L21.8240792,8.17577128 L21.8240792,5.73620853 Z M5.73620853,8.17577128 C4.39109333,8.17577128 3.29664579,7.08132373 3.29664579,5.73620853 C3.29664579,4.39109333 4.39109333,3.29664579 5.73620853,3.29664579 C7.08132373,3.29664579 8.17577128,4.39109333 8.17577128,5.73620853 L8.17577128,8.17577128 L5.73620853,8.17577128 Z M8.17577128,24.2637915 C8.17577128,25.6087572 7.08132373,26.7032047 5.73620853,26.7032047 C4.39109333,26.7032047 3.29664579,25.6087572 3.29664579,24.2637915 C3.29664579,22.9185268 4.39109333,21.8240792 5.73620853,21.8240792 L8.17577128,21.8240792 L8.17577128,24.2637915 Z M11.2369958,18.7628548 L11.2369958,11.2369958 L18.7628548,11.2369958 L18.7628548,18.7628548 L11.2369958,18.7628548 L11.2369958,18.7628548 Z M24.2637915,26.7032047 C22.9185268,26.7032047 21.8240792,25.6087572 21.8240792,24.2637915 L21.8240792,21.8240792 L24.2637915,21.8240792 C25.6087572,21.8240792 26.7032047,22.9185268 26.7032047,24.2637915 C26.7032047,25.6087572 25.6087572,26.7032047 24.2637915,26.7032047 Z" id="Shape"></path>
        </g>
    </g>
</svg>