<?xml version="1.0" encoding="UTF-8"?>
<svg width="16px" height="20px" viewBox="0 0 16 20" version="1.1" xmlns="http://www.w3.org/2000/svg" xmlns:xlink="http://www.w3.org/1999/xlink">
    <!-- Generator: Sketch 51.3 (57544) - http://www.bohemiancoding.com/sketch -->
    <title>noun_Plug_385309</title>
    <desc>Created with Sketch.</desc>
    <defs></defs>
    <g id="Page-1" stroke="none" stroke-width="1" fill="none" fill-rule="evenodd">
        <g id="noun_Plug_385309" fill="#FFFFFF" fill-rule="nonzero">
            <path d="M16,6 L16,10 L12,16 L10,16 L10,18 L9,18 L9,20 L7,20 L7,18 L6,18 L6,16 L4,16 L0,10 L0,6 L3,6 L3,1 C3,0.4 3.5,0 4,0 C4.5,0 5,0.4 5,1 L5,6 L11,6 L11,1 C11,0.4 11.4,0 12,0 C12.5,0 13,0.4 13,1 L13,6 L16,6 Z" id="Shape"></path>
        </g>
    </g>
</svg>