<?xml version="1.0" encoding="UTF-8"?>
<svg width="200px" height="200px" viewBox="0 0 200 200" version="1.1" xmlns="http://www.w3.org/2000/svg" xmlns:xlink="http://www.w3.org/1999/xlink">
    <!-- Generator: Sketch 51.3 (57544) - http://www.bohemiancoding.com/sketch -->
    <title>Combined Shape</title>
    <desc>Created with Sketch.</desc>
    <defs></defs>
    <g id="Page-1" stroke="none" stroke-width="1" fill="none" fill-rule="evenodd">
        <g id="trello" fill="#FFFFFF" fill-rule="nonzero">
            <path d="M25,0 L175,0 C188.8,0 200,11.193 200,25 L200,175 C200,188.8 188.806,200 175,200 L25,200 C11.2,200 0,188.806 0,175 L0,25 C0,11.2 11.193,0 25,0 Z M124.997,26 C118.37,26 113,31.372 113,38.006 L113,101.994 C113,108.624 118.373,114 124.997,114 L162.003,114 C168.629,114 174,108.628 174,101.994 L174,38.006 C174,31.376 168.627,26 162.003,26 L124.997,26 Z M37.997,26 C31.37,26 26,31.367 26,38.005 L26,151.995 C26,158.625 31.373,164 37.997,164 L75.003,164 C81.629,164 87,158.633 87,151.995 L87,38.005 C87,31.375 81.627,26 75.003,26 L37.997,26 Z" id="Combined-Shape"></path>
        </g>
    </g>
</svg>