<?xml version="1.0" encoding="UTF-8"?>
<svg width="75px" height="70px" viewBox="0 0 75 70" version="1.1" xmlns="http://www.w3.org/2000/svg" xmlns:xlink="http://www.w3.org/1999/xlink">
    <!-- Generator: Sketch 51.3 (57544) - http://www.bohemiancoding.com/sketch -->
    <title>Shape</title>
    <desc>Created with Sketch.</desc>
    <defs></defs>
    <g id="Page-1" stroke="none" stroke-width="1" fill="none" fill-rule="evenodd">
        <g id="Asana_logo" fill="#FFFFFF" fill-rule="nonzero">
            <path d="M58.6891678,36.7000805 C49.6799188,36.7000805 42.3777691,44.0025132 42.3777691,53.0109129 C42.3777691,62.0198787 49.6799188,69.3228774 58.6891678,69.3228774 C67.6972845,69.3228774 75,62.0198787 75,53.0109129 C75,44.0025132 67.6972845,36.7000805 58.6891678,36.7000805 Z M16.3111151,36.7012125 C7.30299879,36.7012125 0,44.0025132 0,53.011762 C0,62.0198787 7.30299879,69.3228774 16.3111151,69.3228774 C25.3197983,69.3228774 32.6230803,62.0198787 32.6230803,53.011762 C32.6230803,44.0025132 25.3197983,36.7012125 16.3111151,36.7012125 Z M53.8106908,16.3108325 C53.8106908,25.3192322 46.5085411,32.6233629 37.5004243,32.6233629 C28.4914589,32.6233629 21.1890263,25.3192322 21.1890263,16.3108325 C21.1890263,7.30299877 28.4914589,0 37.5004243,0 C46.5085411,0 53.8106908,7.30299877 53.8106908,16.3108325 Z" id="Shape"></path>
        </g>
    </g>
</svg>