<?xml version="1.0" encoding="UTF-8"?>
<svg width="74px" height="62px" viewBox="0 0 74 62" version="1.1" xmlns="http://www.w3.org/2000/svg" xmlns:xlink="http://www.w3.org/1999/xlink">
    <!-- Generator: Sketch 51.3 (57544) - http://www.bohemiancoding.com/sketch -->
    <title>Group 2</title>
    <desc>Created with Sketch.</desc>
    <defs></defs>
    <g id="Page-1" stroke="none" stroke-width="1" fill="none" fill-rule="evenodd">
        <g id="basecamp-3" fill="#FFFFFF">
            <g id="Group">
                <g id="Group-2">
                    <path d="M18.8898943,24.3693894 C12.0144246,24.4787123 5.286,44.66 5.286,44.66 C5.286,44.66 8.078,57.038 37.289,57.038 C66.5,57.038 68.835,44.863 68.835,44.863 C68.835,44.863 65.828,35.249 59.593,27.207 C55.254,21.613 49.724,15.693 46.515,15.693 C43.309,15.693 34.345,31.564 30.233,31.564 C26.12,31.564 23.982,24.341 18.926,24.369 C18.9139963,24.369 18.9019609,24.3691304 18.8898943,24.3693894 Z M36.713,0.807 C56.476,0.807 71.958,25.951 73.423,47.189 C67.224,57.953 52.267,62 36.713,62 C21.157,62 6.201,57.953 0,47.189 C1.465,25.951 16.948,0.807 36.713,0.807 Z" id="Combined-Shape"></path>
                    <path d="M44.3,48.303 C44.587,47.748 44.371,47.069 43.819,46.777 C43.266,46.485 42.579,46.698 42.282,47.248 C42.221,47.361 40.734,50.035 36.803,50.035 C32.939,50.035 31.184,47.312 31.104,47.183 C30.776,46.65 30.079,46.481 29.543,46.806 C29.006,47.133 28.835,47.833 29.161,48.37 C29.259,48.531 31.614,52.312 36.803,52.312 C42.16,52.312 44.215,48.467 44.3,48.303 Z M44.965,42.93 C44.965,44.974 46.622,46.63 48.665,46.63 C50.708,46.63 52.365,44.974 52.365,42.93 C52.365,40.887 50.708,39.23 48.665,39.23 C46.622,39.23 44.965,40.887 44.965,42.93 Z M21.057,42.93 C21.057,40.887 22.714,39.23 24.757,39.23 C26.8,39.23 28.457,40.887 28.457,42.93 C28.457,44.974 26.8,46.63 24.757,46.63 C22.714,46.63 21.057,44.974 21.057,42.93 Z" id="Fill-12"></path>
                </g>
            </g>
        </g>
    </g>
</svg>