<?xml version="1.0" encoding="UTF-8"?>
<svg width="268px" height="62px" viewBox="0 0 268 62" version="1.1" xmlns="http://www.w3.org/2000/svg" xmlns:xlink="http://www.w3.org/1999/xlink">
    <!-- Generator: Sketch 51.3 (57544) - http://www.bohemiancoding.com/sketch -->
    <title>Group</title>
    <desc>Created with Sketch.</desc>
    <defs></defs>
    <g id="Page-1" stroke="none" stroke-width="1" fill="none" fill-rule="evenodd">
        <g id="basecamp-3" fill="#FFFFFF">
            <g id="Group">
                <path d="M95.774,33.597 L92.714,33.597 L92.714,42.953 L95.862,42.953 C99.587,42.953 101.76,41.401 101.76,38.342 C101.76,35.237 99.676,33.597 95.774,33.597 Z M95.685,21.314 L92.714,21.314 L92.714,29.429 L95.419,29.429 C98.877,29.429 100.696,27.877 100.696,25.261 C100.696,22.822 99.232,21.314 95.685,21.314 Z M95.862,47.432 L87.082,47.432 L87.082,16.835 L95.995,16.835 C102.868,16.835 106.15,19.939 106.15,24.773 C106.15,27.965 104.376,30.05 101.715,31.158 C105.13,32.223 107.391,34.439 107.391,38.518 C107.391,44.55 103.046,47.432 95.862,47.432 Z" id="Fill-1"></path>
                <path d="M122.51,36.745 C116.347,37.499 114.884,39.317 114.884,41.356 C114.884,42.909 115.859,43.84 117.5,43.84 C119.318,43.84 121.047,42.997 122.51,41.534 L122.51,36.745 Z M123.264,47.432 L122.821,44.638 C121.091,46.456 118.874,47.875 115.681,47.875 C112.046,47.875 109.607,45.658 109.607,41.934 C109.607,36.745 113.864,34.483 122.51,33.642 L122.51,33.021 C122.51,30.715 121.18,29.828 118.83,29.828 C116.347,29.828 113.996,30.537 111.691,31.557 L111.026,27.3 C113.509,26.325 116.125,25.571 119.539,25.571 C125.082,25.571 127.831,27.611 127.831,32.755 L127.831,47.432 L123.264,47.432 Z" id="Fill-2"></path>
                <path d="M139.492,47.831 C136.388,47.831 133.196,46.855 131.156,45.747 L131.865,41.313 C134.171,42.82 137.009,43.84 139.669,43.84 C141.975,43.84 143.217,42.997 143.217,41.623 C143.217,40.115 142.285,39.494 138.871,38.652 C133.683,37.321 131.511,35.814 131.511,31.912 C131.511,28.231 134.437,25.615 139.403,25.615 C142.197,25.615 144.769,26.147 146.897,27.123 L146.187,31.557 C144.059,30.36 141.532,29.606 139.403,29.606 C137.408,29.606 136.432,30.36 136.432,31.557 C136.432,32.71 137.231,33.331 140.423,34.174 C145.966,35.593 148.138,37.1 148.138,41.135 C148.138,45.348 145.124,47.831 139.492,47.831" id="Fill-3"></path>
                <path d="M159.887,29.251 C157.759,29.251 156.029,30.937 155.631,34.439 L164.144,34.439 C163.79,31.114 162.459,29.251 159.887,29.251 Z M169.288,37.765 L155.542,37.765 C155.807,41.934 158.025,43.751 161.306,43.751 C164.055,43.751 166.317,42.731 168.667,41.091 L169.288,45.259 C166.982,46.855 164.188,47.875 160.729,47.875 C154.744,47.875 150.265,44.461 150.265,36.745 C150.265,29.784 154.433,25.571 160.02,25.571 C166.45,25.571 169.332,30.404 169.332,36.48 C169.332,36.923 169.288,37.455 169.288,37.765 Z" id="Fill-4"></path>
                <path d="M181.678,47.831 C175.736,47.831 171.524,43.84 171.524,36.834 C171.524,29.384 176.179,25.571 181.855,25.571 C184.738,25.571 186.866,26.325 188.552,27.389 L187.798,32.178 C185.979,30.803 184.25,30.183 182.166,30.183 C179.106,30.183 176.889,32.444 176.889,36.701 C176.889,41.135 179.284,43.264 182.52,43.264 C184.383,43.264 186.068,42.775 188.063,41.224 L188.773,45.747 C186.6,47.254 184.383,47.831 181.678,47.831" id="Fill-5"></path>
                <path d="M202.961,36.745 C196.798,37.499 195.334,39.317 195.334,41.356 C195.334,42.909 196.309,43.84 197.95,43.84 C199.768,43.84 201.498,42.997 202.961,41.534 L202.961,36.745 Z M203.715,47.432 L203.271,44.638 C201.542,46.456 199.325,47.875 196.132,47.875 C192.496,47.875 190.057,45.658 190.057,41.934 C190.057,36.745 194.314,34.483 202.961,33.642 L202.961,33.021 C202.961,30.715 201.631,29.828 199.28,29.828 C196.798,29.828 194.447,30.537 192.141,31.557 L191.476,27.3 C193.96,26.325 196.576,25.571 199.99,25.571 C205.533,25.571 208.282,27.611 208.282,32.755 L208.282,47.432 L203.715,47.432 Z" id="Fill-6"></path>
                <path d="M238.123,47.432 L238.123,33.42 C238.123,31.557 237.457,30.271 235.507,30.271 C233.866,30.271 232.313,31.335 230.762,32.932 L230.762,47.432 L225.44,47.432 L225.44,33.42 C225.44,31.557 224.731,30.271 222.78,30.271 C221.139,30.271 219.588,31.335 218.036,32.932 L218.036,47.432 L212.715,47.432 L212.715,26.015 L217.237,26.015 L217.725,29.03 C219.72,27.123 221.893,25.571 224.775,25.571 C227.835,25.571 229.475,26.946 230.274,29.03 C232.18,27.123 234.531,25.571 237.413,25.571 C241.448,25.571 243.443,28.01 243.443,32.001 L243.443,47.432 L238.123,47.432" id="Fill-7"></path>
                <path d="M257.985,30.271 C256.078,30.271 254.571,31.469 253.152,33.286 L253.152,42.465 C254.437,43.086 255.458,43.396 257.275,43.396 C260.024,43.396 262.109,41.135 262.109,36.434 C262.109,32.311 260.38,30.271 257.985,30.271 Z M258.118,47.653 C256.078,47.653 254.437,47.299 253.152,46.81 L253.152,54.881 L247.831,55.68 L247.831,26.015 L252.353,26.015 L252.842,28.941 C254.348,27.212 256.433,25.571 259.404,25.571 C263.883,25.571 267.474,28.941 267.474,36.124 C267.474,44.106 263.04,47.653 258.118,47.653 Z" id="Fill-8"></path>
                <path d="M18.8898943,24.3693894 C12.0144246,24.4787123 5.286,44.66 5.286,44.66 C5.286,44.66 8.078,57.038 37.289,57.038 C66.5,57.038 68.835,44.863 68.835,44.863 C68.835,44.863 65.828,35.249 59.593,27.207 C55.254,21.613 49.724,15.693 46.515,15.693 C43.309,15.693 34.345,31.564 30.233,31.564 C26.12,31.564 23.982,24.341 18.926,24.369 C18.9139963,24.369 18.9019609,24.3691304 18.8898943,24.3693894 Z M36.713,0.807 C56.476,0.807 71.958,25.951 73.423,47.189 C67.224,57.953 52.267,62 36.713,62 C21.157,62 6.201,57.953 0,47.189 C1.465,25.951 16.948,0.807 36.713,0.807 Z" id="Combined-Shape"></path>
                <path d="M44.3,48.303 C44.587,47.748 44.371,47.069 43.819,46.777 C43.266,46.485 42.579,46.698 42.282,47.248 C42.221,47.361 40.734,50.035 36.803,50.035 C32.939,50.035 31.184,47.312 31.104,47.183 C30.776,46.65 30.079,46.481 29.543,46.806 C29.006,47.133 28.835,47.833 29.161,48.37 C29.259,48.531 31.614,52.312 36.803,52.312 C42.16,52.312 44.215,48.467 44.3,48.303 Z M44.965,42.93 C44.965,44.974 46.622,46.63 48.665,46.63 C50.708,46.63 52.365,44.974 52.365,42.93 C52.365,40.887 50.708,39.23 48.665,39.23 C46.622,39.23 44.965,40.887 44.965,42.93 Z M21.057,42.93 C21.057,40.887 22.714,39.23 24.757,39.23 C26.8,39.23 28.457,40.887 28.457,42.93 C28.457,44.974 26.8,46.63 24.757,46.63 C22.714,46.63 21.057,44.974 21.057,42.93 Z" id="Fill-12"></path>
            </g>
        </g>
    </g>
</svg>