<?xml version="1.0" encoding="UTF-8"?>
<svg width="35px" height="41px" viewBox="0 0 35 41" version="1.1" xmlns="http://www.w3.org/2000/svg" xmlns:xlink="http://www.w3.org/1999/xlink">
    <!-- Generator: Sketch 46.1 (44463) - http://www.bohemiancoding.com/sketch -->
    <title>Single Focus Icon</title>
    <desc>Created with Sketch.</desc>
    <defs></defs>
    <g id="Page-1" stroke="none" stroke-width="1" fill="none" fill-rule="evenodd">
        <g id="Desktop-HD" transform="translate(-999.000000, -452.000000)" fill-rule="nonzero">
            <g id="Single-Focus-Icon" transform="translate(999.000000, 452.000000)">
                <path d="M19.2687134,0 C16.8745522,0 14.6063994,0.537636199 12.5818631,1.49530068 C7.23070284,3.9818681 3.52605341,9.39183235 3.52605341,15.6754554 L3.52605341,15.6754554 L3.52605341,17.7671963 L3.52605341,18.2712302 L0.333838477,24.3616403 C-0.472615821,25.8989438 0.291835649,27.1590286 2.02235216,27.1590286 L3.52605341,27.1590286 L3.52605341,27.1926309 L3.52605341,29.8472096 L3.52605341,32.9470183 C3.52605341,34.7531399 5.00455295,36.24004 6.81907513,36.24004 L11.3385794,35.5679948 L11.34698,40.0874991 L11.34698,40.1211013 L11.34698,40.1211013 C11.3721817,40.7007404 11.8594145,41.0871664 12.4642552,40.977959 L28.7445514,38.096565 C29.3577926,37.9873577 29.8618266,37.3909175 29.8618266,36.7692757 L29.8618266,36.0552276 L29.8618266,35.4839891 L29.8618266,27.2010314 C32.9784364,24.3364386 34.9357682,20.228562 34.9357682,15.6586543 C34.9273676,7.00607172 27.9128954,0 19.2687134,0 Z" id="Shape" fill="#5200C6"></path>
                <g id="targeting" transform="translate(8.148549, 5.124345)" fill="#FFFFFF">
                    <path d="M20.3762214,9.61199042 L19.190935,9.61199042 C18.6778955,5.8415212 15.6864513,2.85003937 11.9157562,2.33707519 L11.9157562,1.15171355 C11.9157562,0.515523543 11.4000069,0 10.7640427,0 C10.1280786,0 9.61232922,0.515523543 9.61232922,1.15171355 L9.61232922,2.33730101 C5.84163411,2.85026519 2.85018992,5.84170939 2.33741392,9.61221631 L1.15182646,9.61221631 C0.515862281,9.61221631 0.000112913093,10.1277398 0.000112913093,10.7639298 C0.000112913093,11.4001575 0.515862281,11.9156433 1.15182646,11.9156433 L2.3371881,11.9156433 C2.85015228,15.6861126 5.84163411,18.6778203 9.61232922,19.1905586 L9.61232922,20.3761085 C9.61232922,21.0123361 10.1280786,21.5278597 10.7640427,21.5278597 C11.4000069,21.5278597 11.9157562,21.0123737 11.9157562,20.3761085 L11.9157562,19.1905586 C15.6864513,18.6775568 18.6778955,15.6861126 19.1906339,11.9154175 L20.3759956,11.9154175 C21.0119974,11.9154175 21.5277091,11.399894 21.5277091,10.763704 C21.5277091,10.1274763 21.0122608,9.61199042 20.3762214,9.61199042 Z M11.9157562,16.8583387 L11.9157562,15.8618431 C11.9157562,15.225653 11.4000069,14.7101295 10.7640427,14.7101295 C10.1280786,14.7101295 9.61232922,15.2256154 9.61232922,15.8618431 L9.61232922,16.8583387 C7.11382592,16.3870771 5.14066964,14.4139584 4.66963385,11.9154175 L5.66609189,11.9154175 C6.30205607,11.9154175 6.81780544,11.399894 6.81780544,10.763704 C6.81780544,10.1274763 6.30205607,9.61199042 5.66609189,9.61199042 L4.66963385,9.61199042 C5.14066964,7.11371301 7.11378829,5.14055673 9.61232922,4.66929511 L9.61232922,5.66575316 C9.61232922,6.30198079 10.1280786,6.81746669 10.7640427,6.81746669 C11.4000069,6.81746669 11.9157562,6.30198079 11.9157562,5.66575316 L11.9157562,4.66929511 C14.4142595,5.14055673 16.3873782,7.11344955 16.858414,9.61199042 L15.861956,9.61199042 C15.2260294,9.61199042 14.7102424,10.1274763 14.7102424,10.763704 C14.7102424,11.399894 15.2259918,11.9154175 15.861956,11.9154175 L16.858414,11.9154175 C16.3873782,14.4141843 14.4142595,16.387303 11.9157562,16.8583387 Z" id="Shape"></path>
                </g>
            </g>
        </g>
    </g>
</svg>