<?xml version="1.0" encoding="UTF-8"?>
<svg width="35px" height="41px" viewBox="0 0 35 41" version="1.1" xmlns="http://www.w3.org/2000/svg" xmlns:xlink="http://www.w3.org/1999/xlink">
    <!-- Generator: Sketch 51.3 (57544) - http://www.bohemiancoding.com/sketch -->
    <title>Combined Shape</title>
    <desc>Created with Sketch.</desc>
    <defs></defs>
    <g id="Page-1" stroke="none" stroke-width="1" fill="none" fill-rule="evenodd">
        <g id="Desktop-HD" transform="translate(-979.000000, -650.000000)" fill="#FFFFFF" fill-rule="nonzero">
            <g id="Hero" transform="translate(-2.000000, 0.000000)">
                <g id="Features" transform="translate(0.000000, 627.000000)">
                    <g id="Group-6" transform="translate(918.000000, 7.000000)">
                        <g id="Single-Focus-Icon" transform="translate(63.000000, 16.000000)">
                            <path d="M19.2687134,0 C27.9128954,0 34.9273676,7.00607172 34.9357682,15.6586543 C34.9357682,20.228562 32.9784364,24.3364386 29.8618266,27.2010314 L29.8618266,35.4839891 L29.8618266,36.0552276 L29.8618266,36.7692757 C29.8618266,37.3909175 29.3577926,37.9873577 28.7445514,38.096565 L12.4642552,40.977959 C11.8594145,41.0871664 11.3721817,40.7007404 11.34698,40.1211013 L11.34698,40.0874991 L11.3385794,35.5679948 L6.81907513,36.24004 C5.00455295,36.24004 3.52605341,34.7531399 3.52605341,32.9470183 L3.52605341,29.8472096 L3.52605341,27.1926309 L3.52605341,27.1590286 L2.02235216,27.1590286 C0.291835649,27.1590286 -0.472615821,25.8989438 0.333838477,24.3616403 L3.52605341,18.2712302 L3.52605341,17.7671963 L3.52605341,15.6754554 C3.52605341,9.39183235 7.23070284,3.9818681 12.5818631,1.49530068 C14.6063994,0.537636199 16.8745522,0 19.2687134,0 Z M28.52477,14.7363354 L27.3394837,14.7363354 C26.8264442,10.9658662 23.835,7.97438439 20.0643049,7.46142021 L20.0643049,6.27605857 C20.0643049,5.63986856 19.5485555,5.12434502 18.9125914,5.12434502 C18.2766272,5.12434502 17.7608779,5.63986856 17.7608779,6.27605857 L17.7608779,7.46164603 C13.9901827,7.97461021 10.9987386,10.9660544 10.4859626,14.7365613 L9.3003751,14.7365613 C8.66441092,14.7365613 8.14866155,15.2520848 8.14866155,15.8882748 C8.14866155,16.5245025 8.66441092,17.0399884 9.3003751,17.0399884 L10.4857367,17.0399884 C10.9987009,20.8104577 13.9901827,23.8021653 17.7608779,24.3149036 L17.7608779,25.5004535 C17.7608779,26.1366811 18.2766272,26.6522047 18.9125914,26.6522047 C19.5485555,26.6522047 20.0643049,26.1367188 20.0643049,25.5004535 L20.0643049,24.3149036 C23.835,23.8019018 26.8264442,20.8104577 27.3391825,17.0397626 L28.5245442,17.0397626 C29.160546,17.0397626 29.6762578,16.524239 29.6762578,15.888049 C29.6762578,15.2518214 29.1608095,14.7363354 28.52477,14.7363354 Z M20.0643049,21.9826837 L20.0643049,20.9861881 C20.0643049,20.349998 19.5485555,19.8344745 18.9125914,19.8344745 C18.2766272,19.8344745 17.7608779,20.3499604 17.7608779,20.9861881 L17.7608779,21.9826837 C15.2623746,21.5114221 13.2892183,19.5383035 12.8181825,17.0397626 L13.8146405,17.0397626 C14.4506047,17.0397626 14.9663541,16.524239 14.9663541,15.888049 C14.9663541,15.2518214 14.4506047,14.7363354 13.8146405,14.7363354 L12.8181825,14.7363354 C13.2892183,12.238058 15.2623369,10.2649017 17.7608779,9.79364013 L17.7608779,10.7900982 C17.7608779,11.4263258 18.2766272,11.9418117 18.9125914,11.9418117 C19.5485555,11.9418117 20.0643049,11.4263258 20.0643049,10.7900982 L20.0643049,9.79364013 C22.5628082,10.2649017 24.5359269,12.2377946 25.0069626,14.7363354 L24.0105046,14.7363354 C23.3745781,14.7363354 22.8587911,15.2518214 22.8587911,15.888049 C22.8587911,16.524239 23.3745405,17.0397626 24.0105046,17.0397626 L25.0069626,17.0397626 C24.5359269,19.5385293 22.5628082,21.511648 20.0643049,21.9826837 Z" id="Combined-Shape"></path>
                        </g>
                    </g>
                </g>
            </g>
        </g>
    </g>
</svg>