<?xml version="1.0" encoding="UTF-8"?>
<svg width="849px" height="179px" viewBox="0 0 849 179" version="1.1" xmlns="http://www.w3.org/2000/svg" xmlns:xlink="http://www.w3.org/1999/xlink">
    <!-- Generator: Sketch 51.3 (57544) - http://www.bohemiancoding.com/sketch -->
    <title>g3018</title>
    <desc>Created with Sketch.</desc>
    <defs></defs>
    <g id="Page-1" stroke="none" stroke-width="1" fill="none" fill-rule="evenodd">
        <g id="g3018" fill="#FFFFFF">
            <path d="M363.62163,85.48438 L313.17576,85.48438 C311.87451,85.48438 310.81888,86.54049 310.81888,87.84276 L310.81888,112.50588 C310.81888,113.80713 311.87451,114.86675 313.17576,114.86675 L332.855,114.86675 L332.855,145.50874 C332.855,145.50874 328.43551,147.01513 316.22025,147.01513 C301.80763,147.01513 281.67437,141.74851 281.67437,97.47611 C281.67437,53.19374 302.63862,47.36748 322.32124,47.36748 C339.35836,47.36748 346.69873,50.36749 351.36911,51.81249 C352.83636,52.26249 354.19386,50.80124 354.19386,49.49874 L359.82123,25.66874 C359.82123,25.05999 359.61523,24.32624 358.92036,23.82749 C357.02349,22.475 345.45211,15.99999 316.22023,15.99999 C282.54348,15.99999 247.99997,30.32749 247.99997,99.20262 C247.99997,168.08008 287.54936,178.34376 320.87748,178.34376 C348.47211,178.34376 365.21285,166.55128 365.21285,166.55128 C365.90284,166.16993 365.97698,165.20599 365.97698,164.76365 L365.97698,87.84277 C365.97698,86.54052 364.92286,85.48439 363.6216,85.48439" id="path3024" fill-rule="nonzero"></path>
            <path d="M623.59375,24.2525 C623.59375,22.94 622.55374,21.88125 621.2525,21.88125 L592.84875,21.88125 C591.55123,21.88125 590.49624,22.94 590.49624,24.2525 C590.49624,24.25876 590.50375,79.14313 590.50375,79.14313 L546.23001,79.14313 L546.23001,24.2525 C546.23001,22.94 545.185,21.88125 543.88626,21.88125 L515.48376,21.88125 C514.19125,21.88125 513.13751,22.94 513.13751,24.2525 L513.13751,172.88133 C513.13751,174.19238 514.19125,175.25973 515.48376,175.25973 L543.88626,175.25973 C545.185,175.25973 546.23001,174.19236 546.23001,172.88133 L546.23001,109.30763 L590.50375,109.30763 C590.50375,109.30763 590.42624,172.87645 590.42624,172.88133 C590.42624,174.19238 591.48001,175.25973 592.77875,175.25973 L621.25,175.25973 C622.55124,175.25973 623.59125,174.19236 623.59375,172.88133 L623.59375,24.2525" id="path3026" fill-rule="nonzero"></path>
            <path d="M417.22,43.75625 C417.22,33.52876 409.02,25.26376 398.90375,25.26376 C388.7975,25.26376 380.59125,33.52876 380.59125,43.75625 C380.59125,53.97312 388.7975,62.26025 398.90375,62.26025 C409.02001,62.26025 417.22,53.97313 417.22,43.75625" id="path3028" fill-rule="nonzero"></path>
            <path d="M415.18875,141.52875 C415.18875,137.72075 415.18875,72.92136 415.18875,72.92136 C415.18875,71.61861 414.1375,70.55375 412.83874,70.55375 L384.52499,70.55375 C383.22625,70.55375 382.06373,71.8935 382.06373,73.19575 C382.06373,73.19575 382.06373,155.7525 382.06373,171.48976 C382.06373,174.37889 383.86372,175.23729 386.19372,175.23729 C386.19372,175.23729 398.27871,175.23729 411.70371,175.23729 C414.50246,175.23729 415.18871,173.86377 415.18871,171.44385 C415.18871,166.17479 415.18871,145.53514 415.18871,141.52875" id="path3030" fill-rule="nonzero"></path>
            <path d="M731.54001,70.77737 L703.35376,70.77737 C702.06125,70.77737 701.00876,71.84275 701.00876,73.15374 L701.00876,146.03125 C701.00876,146.03125 693.84876,151.27 683.685,151.27 C673.52252,151.27 670.82501,146.65875 670.82501,136.70748 C670.82501,126.7441 670.82501,73.15372 670.82501,73.15372 C670.82501,71.84272 669.77499,70.77734 668.48126,70.77734 L639.875,70.77734 C638.58377,70.77734 637.52625,71.84272 637.52625,73.15372 C637.52625,73.15372 637.52625,111.96384 637.52625,141.51996 C637.52625,171.07762 654,178.30856 676.66251,178.30856 C695.25376,178.30856 710.24375,168.03755 710.24375,168.03755 C710.24375,168.03755 710.95753,173.45016 711.28,174.09225 C711.60376,174.73239 712.44501,175.37887 713.35376,175.37887 L731.55252,175.29878 C732.84375,175.29878 733.90124,174.23141 733.90124,172.92622 L733.89251,73.15371 C733.89251,71.84271 732.83874,70.77734 731.54,70.77734" id="path3032" fill-rule="nonzero"></path>
            <path d="M797.45874,151.18011 C787.68249,150.88237 781.05127,146.44624 781.05127,146.44624 L781.05127,99.37837 C781.05127,99.37837 787.59375,95.36862 795.62,94.65188 C805.77002,93.74262 815.54999,96.80863 815.54999,121.0215 C815.54999,146.55374 811.13623,151.59224 797.45874,151.18012 L797.45874,151.18011 Z M808.57623,67.43849 C792.5675,67.43849 781.67871,74.58098 781.67871,74.58098 L781.67871,24.25248 C781.67871,22.93998 780.63,21.88123 779.33496,21.88123 L750.85126,21.88123 C749.55625,21.88123 748.50376,22.93998 748.50376,24.25248 L748.50376,172.88132 C748.50376,174.19237 749.55625,175.25972 750.85499,175.25972 C750.85749,175.25972 770.61128,175.25972 770.6175,175.25972 C771.50751,175.25972 772.18122,174.80124 772.67878,173.99753 C773.16999,173.1987 773.87873,167.14499 773.87873,167.14499 C773.87873,167.14499 785.52625,178.1826 807.57502,178.1826 C833.46003,178.1826 848.305,165.05223 848.305,119.23923 C848.305,73.42522 824.59626,67.43848 808.57624,67.43848 L808.57623,67.43849 Z" id="path3034" fill-rule="nonzero"></path>
            <path d="M496.82248,70.54049 L475.51625,70.54049 C475.51625,70.54049 475.48375,42.39874 475.48375,42.3925 C475.48375,41.3275 474.935,40.795 473.70375,40.795 L444.66875,40.795 C443.54,40.795 442.93375,41.29125 442.93375,42.37625 L442.93375,71.46337 C442.93375,71.46337 428.38375,74.97612 427.40001,75.25975 C426.42,75.544 425.69876,76.44725 425.69876,77.52538 L425.69876,95.80376 C425.69876,97.11814 426.74876,98.17826 428.04751,98.17826 L442.93374,98.17826 C442.93374,98.17826 442.93374,117.29588 442.93374,142.15138 C442.93374,174.81251 465.84373,178.0215 481.30375,178.0215 C488.36749,178.0215 496.8175,175.75244 498.21249,175.23731 C499.05624,174.92728 499.54626,174.05373 499.54626,173.10648 L499.57,152.99851 C499.57,151.68752 498.46249,150.62653 497.21499,150.62653 C495.97375,150.62653 492.79749,151.1314 489.52749,151.1314 C479.06249,151.1314 475.51624,146.26517 475.51624,139.96677 C475.51624,133.67289 475.51499,98.17827 475.51499,98.17827 L496.8225,98.17827 C498.12127,98.17827 499.17251,97.11814 499.17251,95.80377 L499.17251,72.90877 C499.17251,71.59664 498.12127,70.54052 496.8225,70.54052" id="path3036" fill-rule="nonzero"></path>
            <path d="M92,0 C41.17,0 0,41.0643 0,91.7637989 C0,132.36928 26.335,166.666 62.905,178.824703 C67.505,179.627636 69.23,176.874722 69.23,174.465923 C69.23,172.286533 69.115,165.060133 69.115,157.374915 C46,161.618991 40.02,151.754383 38.18,146.592669 C37.145,143.95446 32.66,135.810422 28.75,133.631032 C25.53,131.910461 20.93,127.666385 28.635,127.551681 C35.88,127.436976 41.055,134.204556 42.78,136.95747 C51.06,150.836745 64.285,146.936783 69.575,144.527983 C70.38,138.563336 72.795,134.54867 75.44,132.254575 C54.97,129.96048 33.58,122.045853 33.58,86.9461995 C33.58,76.9668864 37.145,68.7081445 43.01,62.2846785 C42.09,59.9905836 38.87,50.5847942 43.93,37.9672718 C43.93,37.9672718 51.635,35.5584721 69.23,47.3730612 C76.59,45.3083757 84.41,44.276033 92.23,44.276033 C100.05,44.276033 107.87,45.3083757 115.23,47.3730612 C132.825,35.4437673 140.53,37.9672718 140.53,37.9672718 C145.59,50.5847942 142.37,59.9905836 141.45,62.2846785 C147.315,68.7081445 150.88,76.8521816 150.88,86.9461995 C150.88,122.160557 129.375,129.96048 108.905,132.254575 C112.24,135.122194 115.115,140.628022 115.115,149.230878 C115.115,161.504286 115,171.368895 115,174.465923 C115,176.874722 116.725,179.742341 121.325,178.824703 C157.665,166.666 184,132.254575 184,91.7637989 C184,41.0643 142.83,0 92,0 Z" id="Shape"></path>
        </g>
    </g>
</svg>