<?xml version="1.0" encoding="UTF-8"?>
<svg width="31px" height="31px" viewBox="0 0 31 31" version="1.1" xmlns="http://www.w3.org/2000/svg" xmlns:xlink="http://www.w3.org/1999/xlink">
    <!-- Generator: Sketch 64 (93537) - https://sketch.com -->
    <title>date</title>
    <desc>Created with Sketch.</desc>
    <g id="Page-1" stroke="none" stroke-width="1" fill="none" fill-rule="evenodd">
        <g id="date" fill="#7922FF" fill-rule="nonzero">
            <path d="M24.100211,0 C25.1793249,0 26.0295359,0.848421053 26.0295359,1.92526316 L26.0295359,1.92526316 L26.0295359,3.88315789 L26.7816456,3.88315789 C29.1033755,3.88315789 31,5.77578947 31,8.09263158 L31,8.09263158 L31,26.7905263 C31,29.1073684 29.1033755,31 26.7816456,31 L26.7816456,31 L4.21835443,31 C1.89662447,31 0,29.1073684 0,26.7905263 L0,26.7905263 L0,8.09263158 C0,5.77578947 1.89662447,3.88315789 4.21835443,3.88315789 L4.21835443,3.88315789 L4.97046414,3.88315789 L4.97046414,1.92526316 C4.97046414,0.848421053 5.82067511,0 6.89978903,0 C7.97890295,0 8.82911392,0.848421053 8.82911392,1.92526316 L8.82911392,1.92526316 L8.82911392,3.88315789 L13.5706751,3.88315789 L13.5706751,1.92526316 C13.5706751,0.848421053 14.4208861,0 15.5,0 C16.5791139,0 17.4293249,0.848421053 17.4293249,1.92526316 L17.4293249,1.92526316 L17.4293249,3.88315789 L22.1708861,3.88315789 L22.1708861,1.92526316 C22.1708861,0.848421053 23.021097,0 24.100211,0 Z M2.81223629,26.7905263 C2.81223629,27.5736842 3.4335443,28.1936842 4.21835443,28.1936842 L4.21835443,28.1936842 L26.7816456,28.1936842 C27.5664557,28.1936842 28.1877637,27.5736842 28.1877637,26.7905263 L28.1877637,26.7905263 L28.1877637,8.40315789 C28.1877637,7.62 27.5664557,7 26.7816456,7 L4.21835443,7 C3.4335443,7 2.81223629,7.62 2.81223629,8.40315789 Z M2,9 L29,9 L29,12 L2,12 L2,9 Z" id="Shape"></path>
            <path d="M10.4444444,15 L6.55555556,15 C6.26143791,15 6,15.2909091 6,15.6181818 L6,18.3818182 C6,18.7090909 6.26143791,19 6.55555556,19 L10.4444444,19 C10.7385621,19 11,18.7090909 11,18.3818182 L11,15.6181818 C11,15.2909091 10.7385621,15 10.4444444,15 Z" id="Path"></path>
            <path d="M17.4480519,15 L13.5519481,15 C13.2597403,15 13,15.2909091 13,15.6181818 L13,18.3818182 C13,18.7090909 13.2597403,19 13.5519481,19 L17.4480519,19 C17.7402597,19 18,18.7090909 18,18.3818182 L18,15.6181818 C18,15.2909091 17.7402597,15 17.4480519,15 Z" id="Path"></path>
            <path d="M24.4746453,15 L20.555248,15 C20.2612932,15 20,15.2909091 20,15.6181818 L20,18.3818182 C20,18.7090909 20.2612932,19 20.555248,19 L24.4419837,19 C24.7359385,19 24.9972316,18.7090909 24.9972316,18.3818182 L24.9972316,15.6181818 C25.0298933,15.2909091 24.7686001,15 24.4746453,15 Z" id="Path"></path>
            <path d="M10.4444444,21 L6.55555556,21 C6.26143791,21 6,21.2909091 6,21.6181818 L6,24.3818182 C6,24.7090909 6.26143791,25 6.55555556,25 L10.4444444,25 C10.7385621,25 11,24.7090909 11,24.3818182 L11,21.6181818 C11,21.2909091 10.7385621,21 10.4444444,21 Z" id="Path"></path>
            <path d="M17.4480519,21 L13.5519481,21 C13.2597403,21 13,21.2909091 13,21.6181818 L13,24.3818182 C13,24.7090909 13.2597403,25 13.5519481,25 L17.4480519,25 C17.7402597,25 18,24.7090909 18,24.3818182 L18,21.6181818 C18,21.2909091 17.7402597,21 17.4480519,21 Z" id="Path"></path>
            <path d="M24.4746453,21 L20.555248,21 C20.2612932,21 20,21.2909091 20,21.6181818 L20,24.3818182 C20,24.7090909 20.2612932,25 20.555248,25 L24.4419837,25 C24.7359385,25 24.9972316,24.7090909 24.9972316,24.3818182 L24.9972316,21.6181818 C25.0298933,21.2909091 24.7686001,21 24.4746453,21 Z" id="Path"></path>
        </g>
    </g>
</svg>