<?xml version="1.0" encoding="UTF-8"?>
<svg width="31px" height="20px" viewBox="0 0 31 20" version="1.1" xmlns="http://www.w3.org/2000/svg" xmlns:xlink="http://www.w3.org/1999/xlink">
    <!-- Generator: sketchtool 58 (101010) - https://sketch.com -->
    <title>83812434-6784-4D8C-A84E-2BFC96C7030A</title>
    <desc>Created with sketchtool.</desc>
    <g id="Website" stroke="none" stroke-width="1" fill="none" fill-rule="evenodd">
        <g id="01-HOME-R3.1" transform="translate(-455.000000, -640.000000)">
            <g id="OVERVIEW" transform="translate(290.500000, 630.000000)">
                <g id="Tabs" transform="translate(101.500000, 0.000000)">
                    <g id="Icon/Listing" transform="translate(58.296606, 0.000000)">
                        <g id="sorting" transform="translate(20.000000, 19.812500) scale(1, -1) translate(-20.000000, -19.812500) translate(5.000000, 10.312500)">
                            <path d="M1.875,13.75 L20,13.75 C21.0355339,13.75 21.875,14.5894661 21.875,15.625 L21.875,16.8858337 C21.875,17.9213676 21.0355339,18.7608337 20,18.7608337 L1.875,18.7608337 C0.839466094,18.7608337 0,17.9213676 0,16.8858337 L0,15.625 C0,14.5894661 0.839466094,13.75 1.875,13.75 Z" id="Rectangle-4-Copy-2" fill="#7922FF" fill-rule="nonzero"></path>
                            <rect id="Rectangle-4-Copy" fill="#7922FF" fill-rule="nonzero" x="0" y="0" width="16.2522888" height="5.01083374" rx="2.50541687"></rect>
                            <rect id="Rectangle-4-Copy-3" fill="#7922FF" fill-rule="nonzero" x="0" y="6.875" width="21.875" height="5.01083374" rx="2.50541687"></rect>
                            <path d="M17.5,2.50724793 C23.4340417,2.50294321 26.7736594,2.50294321 27.5188532,2.50724793 C28.7735501,2.51449585 29.3813706,3.12439661 29.3813706,4.375 C29.3813706,5.15916631 29.3813706,8.07448663 29.3813706,14.375 C29.3813706,15.625 28.125,16.2641144 27.5,16.2641144 C25,16.2641144 26.875,16.2641144 26.875,16.2641144" id="Path-2" stroke="#7922FF" stroke-width="2"></path>
                            <path d="M24.9834139,14.8278801 L26.8278155,17.2867303 C26.9313783,17.4247945 26.9034096,17.6206718 26.7653455,17.7242347 C26.7112499,17.7648122 26.6454514,17.7867475 26.5778283,17.7867475 L22.8382871,17.7867475 C22.6656982,17.7867475 22.5257871,17.6468365 22.5257871,17.4742475 C22.5257871,17.405226 22.548638,17.3381462 22.5907731,17.283478 L24.4859126,14.8246277 C24.5912718,14.6879294 24.787498,14.662524 24.9241963,14.7678832 C24.9465547,14.7851157 24.9664751,14.8052983 24.9834139,14.8278801 Z" id="Triangle" fill="#7922FF" fill-rule="nonzero" transform="translate(24.708067, 16.244815) rotate(-90.000000) translate(-24.708067, -16.244815) "></path>
                        </g>
                    </g>
                </g>
            </g>
        </g>
    </g>
</svg>