<?xml version="1.0" encoding="UTF-8"?>
<svg width="114px" height="39px" viewBox="0 0 114 39" version="1.1" xmlns="http://www.w3.org/2000/svg" xmlns:xlink="http://www.w3.org/1999/xlink">
    <!-- Generator: sketchtool 58 (101010) - https://sketch.com -->
    <title>AFD3C69C-E94F-4C88-BCD9-33D396726616</title>
    <desc>Created with sketchtool.</desc>
    <defs>
        <filter x="-26.2%" y="-32.1%" width="163.2%" height="180.7%" filterUnits="objectBoundingBox" id="filter-1">
            <feOffset dx="0" dy="2" in="SourceAlpha" result="shadowOffsetOuter1"></feOffset>
            <feGaussianBlur stdDeviation="1" in="shadowOffsetOuter1" result="shadowBlurOuter1"></feGaussianBlur>
            <feColorMatrix values="0 0 0 0 0   0 0 0 0 0   0 0 0 0 0  0 0 0 0.3 0" type="matrix" in="shadowBlurOuter1" result="shadowMatrixOuter1"></feColorMatrix>
            <feMerge>
                <feMergeNode in="shadowMatrixOuter1"></feMergeNode>
                <feMergeNode in="SourceGraphic"></feMergeNode>
            </feMerge>
        </filter>
        <filter x="-78.1%" y="-56.3%" width="260.3%" height="212.6%" filterUnits="objectBoundingBox" id="filter-2">
            <feOffset dx="0" dy="2" in="SourceAlpha" result="shadowOffsetOuter1"></feOffset>
            <feGaussianBlur stdDeviation="2.5" in="shadowOffsetOuter1" result="shadowBlurOuter1"></feGaussianBlur>
            <feColorMatrix values="0 0 0 0 0   0 0 0 0 0   0 0 0 0 0  0 0 0 0.2 0" type="matrix" in="shadowBlurOuter1" result="shadowMatrixOuter1"></feColorMatrix>
            <feMerge>
                <feMergeNode in="shadowMatrixOuter1"></feMergeNode>
                <feMergeNode in="SourceGraphic"></feMergeNode>
            </feMerge>
        </filter>
        <linearGradient x1="41.7495878%" y1="29.976677%" x2="60.1834395%" y2="50%" id="linearGradient-3">
            <stop stop-color="#000000" stop-opacity="0.2" offset="0%"></stop>
            <stop stop-color="#000000" stop-opacity="0" offset="100%"></stop>
        </linearGradient>
        <polygon id="path-4" points="0.0684233415 0.111003068 13.8080248 0.111003068 13.8080248 21.8894259 0.0684233415 21.8894259"></polygon>
    </defs>
    <g id="Website" stroke="none" stroke-width="1" fill="none" fill-rule="evenodd">
        <g id="01-HOME" transform="translate(-247.000000, -40.000000)">
            <g id="HERO" transform="translate(-4.000000, -0.000000)">
                <g id="Brand/Logo-Dark" transform="translate(252.256757, 39.500000)">
                    <g id="Brand/Icon-Purple-Brand/Icon-Purple-Desktop">
                        <g id="Brand/Icon-Purple" filter="url(#filter-1)" transform="translate(0.843750, 0.843750)">
                            <path d="M17.1113214,0.107716498 L17.1113214,0.107716498 C30.7839725,0.107716498 34.2022227,3.52596669 34.2022227,17.1986177 C34.2022227,30.8714437 30.7839725,34.289519 17.1113214,34.289519 C3.43849551,34.289519 0.0204201733,30.8714437 0.0204201733,17.1986177 C0.0204201733,3.52596669 3.43849551,0.107716498 17.1113214,0.107716498" id="Fill-1" fill="#FFFFFF"></path>
                            <path d="M17.1113211,1.65076597 L17.1113211,1.65076597 C29.5495388,1.65076597 32.6591727,4.76039991 32.6591727,17.1986175 C32.6591727,29.6369942 29.5495388,32.7464691 17.1113211,32.7464691 C4.67294444,32.7464691 1.56346957,29.6369942 1.56346957,17.1986175 C1.56346957,4.76039991 4.67294444,1.65076597 17.1113211,1.65076597" id="Fill-1" fill="#7922FF"></path>
                            <g id="Brand/Icon-Content" transform="translate(-0.134033, 0.107839)">
                                <g id="Icon" filter="url(#filter-2)" transform="translate(10.736440, 7.923198)">
                                    <polygon id="v" fill-opacity="0.35" fill="url(#linearGradient-3)" points="8.01729935 0.0893511574 13.6765912 6.01936804 7.1558185 16.9154992 1.37625109 10.9003298"></polygon>
                                    <polygon id="v-copy-2" fill-opacity="0.35" fill="url(#linearGradient-3)" points="11.5021626 7.0590776 17.1614545 12.9890945 10.6406818 23.8852256 4.86111437 17.8700563"></polygon>
                                    <path d="M3.15946408,12.7126943 L8.01729965,0.0893511605 C7.65657275,0.0312991345 7.28710307,0 6.91028947,0 C3.09371841,0 0,3.09389322 0,6.91028936 C0,9.34340364 1.25860991,11.4813618 3.15946408,12.7126943 Z" id="Fill-4" fill="#FFFFFF"></path>
                                    <path d="M9.5787593,5.20144379 L4.70291374,17.8268855 C5.07290797,17.8880849 5.45216955,17.9214823 5.83947447,17.9214823 C9.65604543,17.9214823 12.7497638,14.827589 12.7497638,11.0111928 C12.7497638,8.57318248 11.4857334,6.43155227 9.5787593,5.20144379 Z" id="Fill-6" fill="#FFFFFF"></path>
                                </g>
                            </g>
                        </g>
                    </g>
                    <g id="type2" transform="translate(41.837838, 6.324324)">
                        <path d="M15.9063917,16.7540724 C15.9063917,17.5421851 15.7356039,18.2909824 15.3940282,19.0002839 C15.0526329,19.7095853 14.5750762,20.3359276 13.9624403,20.8785892 C13.3490829,21.4217918 12.6224682,21.8551636 11.7818746,22.1790654 C10.9412811,22.5029671 10.0126786,22.6649179 8.99714931,22.6649179 C8.08640112,22.6649179 7.26744913,22.6124372 6.54083438,22.5072954 C5.81385894,22.4023339 5.13088797,22.2360547 4.49174112,22.0082775 C3.85223358,21.780861 3.23941727,21.4874378 2.65275115,21.1281883 C2.06590469,20.7694797 1.45759704,20.3359276 0.827106804,19.8278924 L3.7167936,16.9116949 C4.55738713,17.6125201 5.38048708,18.1070293 6.1862738,18.3959439 C6.99151948,18.6850388 7.8676412,18.829496 8.81337656,18.829496 C9.19841564,18.829496 9.56199354,18.7728673 9.90356919,18.6588886 C10.2449645,18.5450901 10.542716,18.3919762 10.7966435,18.1991862 C11.0503905,18.0063961 11.2518372,17.7787993 11.4009835,17.5160349 C11.5495888,17.2534509 11.6242521,16.964356 11.6242521,16.6491109 C11.6242521,16.3165526 11.562754,16.0186207 11.440299,15.7558564 C11.3176636,15.4932723 11.0989037,15.2395253 10.7836585,14.9938938 C10.4684134,14.7489837 10.0303526,14.4993846 9.47019733,14.2452769 C8.90932072,13.9917102 8.19154294,13.7067632 7.3157819,13.3913378 C6.54498234,13.1116209 5.80520232,12.7916868 5.09608116,12.4326176 C4.3865993,12.073909 3.76476568,11.6405372 3.23076065,11.1321414 C2.69639493,10.6244669 2.26735137,10.0287835 1.94344964,9.34581261 C1.61918721,8.66284169 1.45759704,7.85741571 1.45759704,6.92899366 C1.45759704,6.03555876 1.63686114,5.21263921 1.99593038,4.45951362 C2.35463892,3.70656838 2.84536087,3.06309327 3.46719449,2.52854723 C4.08866741,1.99454224 4.81564285,1.57866398 5.64757977,1.28073212 C6.47933633,0.983160947 7.37691926,0.834195015 8.34050888,0.834195015 C9.95154128,0.834195015 11.309007,1.0442983 12.4123649,1.46468521 C13.5157228,1.88489177 14.4964453,2.49824908 15.3545324,3.3034947 L12.5175067,6.16703111 C11.9919779,5.65917631 11.4051315,5.26962859 10.757328,4.99784692 C10.1091638,4.72678664 9.34738159,4.59080563 8.47162055,4.59080563 C8.06872719,4.59080563 7.69685337,4.65230367 7.35527772,4.77475872 C7.01370206,4.89739411 6.72009848,5.05952531 6.47518837,5.26079163 C6.22973723,5.4622383 6.03261885,5.69867212 5.88419395,5.9700931 C5.73522801,6.24169442 5.66074504,6.52628067 5.66074504,6.8236715 C5.66074504,7.15677086 5.73053901,7.45885069 5.87084833,7.73027167 C6.01097731,8.00187299 6.2472308,8.26463735 6.58033019,8.51820406 C6.9127082,8.77231181 7.35527772,9.02641955 7.90695667,9.28016661 C8.45863563,9.53427435 9.14575456,9.81002364 9.9692152,10.1075948 C11.019912,10.475501 11.9218233,10.8785747 12.6751292,11.3160945 C13.4278942,11.753975 14.0410712,12.2354992 14.5139389,12.7610279 C14.9868065,13.2863763 15.3370388,13.877551 15.564816,14.5341914 C15.7922326,15.1910122 15.9063917,15.9311528 15.9063917,16.7540724" id="Fill-8" fill="#000000"></path>
                        <path d="M25.021352,22.192285 C24.7234201,22.3320533 24.3863531,22.4458518 24.0099706,22.5338607 C23.6332275,22.6211482 23.2436797,22.6649724 22.8407864,22.6649724 C22.2802704,22.6649724 21.7415764,22.590309 21.2252453,22.4418841 C20.7083731,22.2929182 20.2573273,22.0523364 19.8722883,21.7194174 C19.4868885,21.3868591 19.1801196,20.9533069 18.9528834,20.4189412 C18.7249259,19.8849362 18.6113078,19.2412807 18.6113078,18.4879748 L18.6113078,0.466342923 L22.4730605,0.466342923 L22.4730605,17.831154 C22.4730605,18.4616442 22.5998439,18.8951964 22.8539516,19.1316302 C23.1076987,19.3680641 23.4097785,19.4863711 23.7603715,19.4863711 C24.1980717,19.4863711 24.6182783,19.3550791 25.021352,19.0923148 L25.021352,22.192285 Z" id="Fill-10" fill="#000000"></path>
                        <path d="M35.738653,18.4879749 L35.738653,15.6770996 L34.004805,15.6770996 C33.4794566,15.6770996 32.9844064,15.7122671 32.520556,15.7820611 C32.056345,15.8523961 31.653632,15.9705228 31.3120564,16.136802 C30.9706611,16.3034418 30.6988794,16.5176931 30.4976131,16.7804574 C30.2961664,17.0430415 30.1957136,17.3582866 30.1957136,17.7261927 C30.1957136,18.2515411 30.4011279,18.6809453 30.8130385,19.0135037 C31.2242278,19.3464227 31.7540848,19.5127019 32.4022489,19.5127019 C32.9625845,19.5127019 33.5187721,19.4250536 34.070451,19.2499375 C34.6223103,19.0750017 35.1781371,18.8210743 35.738653,18.4879749 L35.738653,18.4879749 Z M39.5217748,22.2710961 L35.7386531,22.2710961 L35.7386531,21.4566528 C35.0729954,21.9122073 34.3680222,22.2274524 33.6239139,22.4023881 C32.8794449,22.5773239 32.1133344,22.6649722 31.3252216,22.6649722 C30.5895896,22.6649722 29.9239318,22.555502 29.3286091,22.3367421 C28.7329257,22.1179822 28.2162339,21.8027371 27.7785338,21.3910068 C27.3408336,20.9796372 27.0035863,20.4936043 26.7673328,19.9329081 C26.5307186,19.3725726 26.4125919,18.750739 26.4125919,18.0677681 C26.4125919,17.2098614 26.6005126,16.4610641 26.9774361,15.8215566 C27.3538185,15.1824098 27.866182,14.6484048 28.5141658,14.2190006 C29.1619693,13.7901374 29.9196035,13.4703836 30.7867079,13.2602803 C31.653632,13.0499967 32.5863824,12.9450353 33.5845984,12.9450353 L35.7649837,12.9450353 C35.7649837,12.0517807 35.4760691,11.3424792 34.8980596,10.8169505 C34.3200501,10.2916021 33.4881132,10.0288378 32.4022489,10.0288378 C31.8769005,10.0288378 31.3338782,10.125323 30.7735426,10.3177523 C30.2126661,10.5109031 29.6525108,10.860955 29.0921753,11.3686294 L26.8593093,9.10943302 C27.664555,8.3389942 28.597125,7.74331082 29.6570195,7.32292391 C30.7163729,6.90271735 31.8067459,6.69261407 32.9277777,6.69261407 C33.9784745,6.69261407 34.9141104,6.85925392 35.7346855,7.1916319 C36.5547195,7.52455092 37.217131,7.9534141 37.7217396,8.47894283 C38.382528,9.14460052 38.8476408,9.88888914 39.1172583,10.711989 C39.3866955,11.5352693 39.5217748,12.5861464 39.5217748,13.8642597 L39.5217748,22.2710961 Z" id="Fill-12" fill="#000000"></path>
                        <path d="M53.7363679,18.0150896 C53.7363679,18.7683956 53.5605304,19.4383817 53.2095767,20.0248674 C52.8582623,20.6117139 52.4018062,21.1018948 51.8402082,21.4961315 C51.2787905,21.8900076 50.6464968,22.1881198 49.9447699,22.3892058 C49.2423215,22.5902918 48.5490708,22.691466 47.8646571,22.691466 C46.7061132,22.691466 45.6395459,22.4766737 44.6654962,22.0476301 C43.6910858,21.6187669 42.8357039,20.9312873 42.0984487,19.985552 L44.3839758,17.673514 C44.8391696,18.2517038 45.364518,18.7027496 45.9602014,19.026471 C46.5553438,19.3507334 47.1950317,19.5126843 47.8780027,19.5126843 C48.4729647,19.5126843 48.9681953,19.4033945 49.3622517,19.1840936 C49.7563081,18.965514 49.9532461,18.6369233 49.9532461,18.1992231 C49.9532461,17.743849 49.6729882,17.3629579 49.1126526,17.0563694 C48.5519563,16.7499612 47.7638435,16.4480617 46.7483142,16.1499495 C46.1526308,15.9750137 45.5746213,15.7517451 45.0144661,15.4799634 C44.4535895,15.2085424 43.9545716,14.8758037 43.5170518,14.4817473 C43.0789909,14.0876909 42.728939,13.6370059 42.4661746,13.1287903 C42.2034102,12.6211158 42.0721182,12.0344497 42.0721182,11.3686116 C42.0721182,10.6329796 42.2430864,9.97219119 42.5855638,9.38516439 C42.9278608,8.79867862 43.37548,8.30813702 43.928241,7.91408063 C44.4811824,7.52002423 45.1087871,7.21794438 45.8112355,7.00784109 C46.5129625,6.79755745 47.2240674,6.69259597 47.9440094,6.69259597 C50.2609167,6.69259597 52.1567157,7.56835701 53.6312261,9.31951838 L51.3720295,11.6050455 C50.9339686,11.0623838 50.4347704,10.6329796 49.8744348,10.3177345 C49.3139189,10.0024894 48.7009223,9.84486679 48.0356252,9.84486679 C47.8076677,9.84486679 47.5667252,9.87570599 47.3131584,9.93684334 C47.0590507,9.99852174 46.8226168,10.0858093 46.6036766,10.1996077 C46.384556,10.3137669 46.2051115,10.4623721 46.0653432,10.6463252 C45.9248536,10.830098 45.8550596,11.0362336 45.8550596,11.2634698 C45.8550596,11.6667239 46.1217916,12.0167758 46.6563377,12.3145273 C47.1903427,12.6124592 47.9566336,12.9100304 48.95503,13.2076016 C49.6026532,13.400572 50.2160105,13.6454821 50.79402,13.9432337 C51.3720295,14.2411655 51.879704,14.5867088 52.3177649,14.9809456 C52.7552847,15.3748216 53.101369,15.8215391 53.3554768,16.320557 C53.6090435,16.8197552 53.7363679,17.3845994 53.7363679,18.0150896" id="Fill-14" fill="#000000"></path>
                        <g id="Group-18" transform="translate(56.165859, 0.381580)">
                            <mask id="mask-5" fill="white">
                                <use xlink:href="#path-4"></use>
                            </mask>
                            <g id="Clip-17"></g>
                            <path d="M13.8080962,21.8894259 L10.0249746,21.8894259 L10.0249746,12.7997987 C10.0249746,12.2571371 9.94147437,11.7795804 9.77429347,11.3680305 C9.60729291,10.9566609 9.38709024,10.6150852 9.11476753,10.3434839 C8.84208412,10.0722433 8.5252159,9.8704359 8.16470391,9.73914389 C7.80437226,9.60785188 7.43051465,9.54220588 7.04367212,9.54220588 C6.46331815,9.54220588 5.90911437,9.63003446 5.38160183,9.8047899 C4.85390894,9.98026672 4.34388997,10.2251768 3.85154493,10.5404219 L3.85154493,21.8894259 L0.0684233415,21.8894259 L0.0684233415,0.111003068 L3.85154493,0.111003068 L3.87769512,7.57174365 C4.43803067,7.1344042 5.0861948,6.81014179 5.82182683,6.59985816 C6.5572785,6.38975488 7.26676033,6.28461306 7.94973127,6.28461306 C8.73784403,6.28461306 9.48213267,6.41193745 10.1825972,6.66550417 C10.8828814,6.91961191 11.5048953,7.30501167 12.0479176,7.82134275 C12.5905792,8.33821487 13.0199835,8.98637899 13.3352286,9.76547443 C13.6504737,10.5451109 13.8080962,11.4690243 13.8080962,12.5370343 L13.8080962,21.8894259 Z" id="Fill-16" fill="#000000" mask="url(#mask-5)"></path>
                        </g>
                    </g>
                </g>
            </g>
        </g>
    </g>
</svg>