<?xml version="1.0" encoding="UTF-8"?>
<svg width="213px" height="41px" viewBox="0 0 213 41" version="1.1" xmlns="http://www.w3.org/2000/svg" xmlns:xlink="http://www.w3.org/1999/xlink">
    <!-- Generator: Sketch 46.1 (44463) - http://www.bohemiancoding.com/sketch -->
    <title>Logo</title>
    <desc>Created with Sketch.</desc>
    <defs></defs>
    <g id="Page-1" stroke="none" stroke-width="1" fill="none" fill-rule="evenodd">
        <g id="Desktop-HD" transform="translate(-191.000000, -46.000000)" fill="#FFFFFF">
            <g id="Logo" transform="translate(191.000000, 46.000000)">
                <g id="taskslayer4" fill-rule="nonzero">
                    <path d="M20.4582485,11.9242363 C15.7403259,11.9242363 11.9075356,15.7486762 11.9075356,20.4749491 C11.9075356,25.201222 15.7403259,29.0256619 20.4582485,29.0256619 C25.1761711,29.0256619 29.0089613,25.201222 29.0089613,20.4749491 C29.0089613,15.7570265 25.1845214,11.9242363 20.4582485,11.9242363 Z M21.0177189,22.4038697 L19.3309572,24.0822811 L17.6525458,22.3955193 L16.0325866,20.7672098 L17.7193483,19.0887984 L19.3393075,20.7171079 L23.2138493,16.8676171 L24.8922607,18.5543788 L21.0177189,22.4038697 Z" id="Shape"></path>
                    <path d="M39.4384929,18.9718941 L37.6515275,18.9718941 C36.9334012,10.6382892 30.2949084,3.99979633 21.9613035,3.28167006 L21.9613035,1.49470468 C21.9613035,0.66802444 21.293279,0 20.4665988,0 C19.6399185,0 18.9718941,0.66802444 18.9718941,1.49470468 L18.9718941,3.28167006 C10.6382892,3.99979633 3.99979633,10.6382892 3.28167006,18.9718941 L1.49470468,18.9718941 C0.66802444,18.9718941 0,19.6399185 0,20.4665988 C0,21.293279 0.66802444,21.9613035 1.49470468,21.9613035 L3.28167006,21.9613035 C3.99979633,30.2949084 10.6382892,36.9334012 18.9718941,37.6515275 L18.9718941,39.4384929 C18.9718941,40.2651731 19.6399185,40.9331976 20.4665988,40.9331976 C21.293279,40.9331976 21.9613035,40.2651731 21.9613035,39.4384929 L21.9613035,37.6515275 C30.2949084,36.9334012 36.9334012,30.2949084 37.6515275,21.9613035 L39.4384929,21.9613035 C40.2651731,21.9613035 40.9331976,21.293279 40.9331976,20.4665988 C40.9331976,19.6399185 40.2651731,18.9718941 39.4384929,18.9718941 Z M34.7372709,21.9529532 C34.0441955,28.6916497 28.6832994,34.0525458 21.9446029,34.7456212 L21.9446029,31.4723014 L18.9635438,31.4723014 L18.9635438,34.7456212 C12.2248473,34.0525458 6.86395112,28.6916497 6.17087576,21.9529532 L9.44419552,21.9529532 L9.44419552,18.9718941 L6.17087576,18.9718941 C6.86395112,12.2331976 12.2248473,6.87230143 18.9635438,6.17922607 L18.9635438,9.45254582 L21.9446029,9.45254582 L21.9446029,6.17922607 C28.6832994,6.87230143 34.0441955,12.2331976 34.7372709,18.9718941 L31.4639511,18.9718941 L31.4639511,21.9529532 L34.7372709,21.9529532 Z" id="Shape"></path>
                </g>
                <path d="M46.88,12.984 L62.126,12.984 L62.126,16.944 L56.934,16.944 L56.934,29 L52.072,29 L52.072,16.944 L46.88,16.944 L46.88,12.984 Z M69.738,18.066 L65.888,29 L60.806,29 L66.768,12.984 L72.686,12.984 L78.648,29 L73.566,29 L72.796,26.888 L67.956,26.888 L69.21,23.346 L71.542,23.346 L69.738,18.066 Z M89.054,25.04 L80.078,25.04 L80.078,29 L92.596,29 L94.356,27.24 L94.356,19.078 L85.27,19.078 L84.83,18.638 L84.83,17.384 L85.27,16.944 L94.246,16.944 L94.246,12.984 L81.728,12.984 L79.968,14.744 L79.968,21.234 L81.728,22.906 L89.494,22.906 L89.494,24.6 L89.054,25.04 Z M101.374,24.16 L103.816,21.894 L107.798,29 L113.452,29 L107.512,18.616 L113.694,12.984 L107.358,12.984 L101.374,18.44 L101.374,12.984 L96.556,12.984 L96.556,29 L101.374,29 L101.374,24.16 Z M123.66,25.04 L114.684,25.04 L114.684,29 L127.202,29 L128.962,27.24 L128.962,20.794 L127.202,19.078 L119.876,19.078 L119.436,18.638 L119.436,17.384 L119.876,16.944 L128.852,16.944 L128.852,12.984 L116.334,12.984 L114.574,14.744 L114.574,21.234 L116.334,22.906 L123.66,22.906 L124.1,23.346 L124.1,24.6 L123.66,25.04 Z M136.024,12.984 L131.162,12.984 L131.162,29 L141.964,29 L143.372,25.04 L136.024,25.04 L136.024,12.984 Z M153.184,18.066 L149.334,29 L144.252,29 L150.214,12.984 L156.132,12.984 L162.094,29 L157.012,29 L156.242,26.888 L151.402,26.888 L152.656,23.346 L154.988,23.346 L153.184,18.066 Z M179.144,12.984 L168.43,29 L162.908,29 L167.814,21.74 L161.434,12.984 L166.934,12.984 L170.498,17.78 L173.71,12.984 L179.144,12.984 Z M185.326,29 L180.464,29 L180.464,12.984 L194.72,12.984 L194.72,16.944 L185.326,16.944 L185.326,29 Z M186.69,29 L186.69,25.04 L194.72,25.04 L194.72,29 L186.69,29 Z M186.69,22.906 L186.69,19.078 L193.62,19.078 L193.62,22.906 L186.69,22.906 Z M207.304,29 L212.54,29 L208.822,23.522 L210.868,23.522 L212.628,21.762 L212.628,14.744 L210.868,12.984 L196.92,12.984 L196.92,29 L201.782,29 L201.782,16.944 L207.26,16.944 L207.7,17.384 L207.7,19.76 L207.26,20.2 L203.146,20.2 L203.146,22.708 L207.304,29 Z" id="TaskSlayer-Copy-3"></path>
            </g>
        </g>
    </g>
</svg>