<?xml version="1.0" encoding="UTF-8"?>
<svg width="130px" height="37px" viewBox="0 0 130 37" version="1.1" xmlns="http://www.w3.org/2000/svg" xmlns:xlink="http://www.w3.org/1999/xlink">
    <!-- Generator: Sketch 55.2 (78181) - https://sketchapp.com -->
    <title>Brand/Logo Dark</title>
    <desc>Created with Sketch.</desc>
    <defs>
        <polygon id="path-1" points="9.427546e-05 0.0969151729 36.8590652 0.0969151729 36.8590652 36.9558483 9.427546e-05 36.9558483"></polygon>
        <polygon id="path-3" points="0.0703239857 0.114086487 14.1915805 0.114086487 14.1915805 22.497466 0.0703239857 22.497466"></polygon>
    </defs>
    <g id="Brand/Logo-Dark" stroke="none" stroke-width="1" fill="none" fill-rule="evenodd">
        <g id="Brand/Icon-Purple">
            <g id="v3" transform="translate(0.021925, -0.072266)">
                <g id="Group-3" transform="translate(0.000000, 0.091636)">
                    <mask id="mask-2" fill="white">
                        <use xlink:href="#path-1"></use>
                    </mask>
                    <g id="Clip-2"></g>
                    <path d="M18.4296269,0.0967831873 L18.4296269,0.0967831873 C33.1731775,0.0967831873 36.8591594,3.78276512 36.8591594,18.5263158 C36.8591594,33.270055 33.1731775,36.9558483 18.4296269,36.9558483 C3.68588766,36.9558483 9.427546e-05,33.270055 9.427546e-05,18.5263158 C9.427546e-05,3.78276512 3.68588766,0.0967831873 18.4296269,0.0967831873 L18.4295797,-2.2958489" id="Fill-1" fill="#7922FF" mask="url(#mask-2)"></path>
                </g>
                <path d="M11.5554374,16.0675741 C11.5554374,18.6912601 12.9126269,20.9966722 14.962364,22.3244478 L20.2006856,8.71239122 C19.8117051,8.64979231 19.413297,8.6160417 19.0069698,8.6160417 C14.8914688,8.6160417 11.5554374,11.9522617 11.5554374,16.0675741" id="Fill-4" fill="#FFFFFF"></path>
                <path d="M25.3038163,20.4896776 C25.3038163,17.8607122 23.9407817,15.5513405 21.8844454,14.2248848 L16.626703,27.839204 C17.0256767,27.9051968 17.4346436,27.94121 17.8522839,27.94121 C21.9677849,27.94121 25.3038163,24.60499 25.3038163,20.4896776" id="Fill-6" fill="#FFFFFF"></path>
            </g>
        </g>
        <g id="type2" transform="translate(43.000000, 6.500000)">
            <path d="M16.3482354,17.2194639 C16.3482354,18.0294687 16.1727035,18.7990659 15.8216396,19.5280702 C15.4707611,20.2570745 14.979939,20.9008152 14.3502854,21.4585507 C13.7198904,22.0168423 12.9730919,22.4622523 12.1091486,22.7951513 C11.2452052,23.1280503 10.2908083,23.2944998 9.24706986,23.2944998 C8.31102313,23.2944998 7.4693225,23.2405613 6.72252403,23.1324988 C5.97535485,23.0246218 5.27341249,22.8537237 4.61651158,22.6196194 C3.95923996,22.3858857 3.32940099,22.0843119 2.72643862,21.7150831 C2.12329088,21.3464105 1.49808581,20.9008152 0.850081981,20.3786679 L3.82003776,17.3814648 C4.68398109,18.1017574 5.5299449,18.610003 6.35811456,18.906943 C7.18572815,19.2040683 8.08618656,19.3525383 9.05819231,19.3525383 C9.45392691,19.3525383 9.82760418,19.2943365 10.178668,19.1771917 C10.5295465,19.0602322 10.835569,18.9028651 11.0965499,18.7047198 C11.3573455,18.5065744 11.5643879,18.2726554 11.7176771,18.0025921 C11.8704103,17.732714 11.9471476,17.4355887 11.9471476,17.1115868 C11.9471476,16.7697907 11.8839413,16.463583 11.7580847,16.1935196 C11.6320428,15.9236416 11.4072062,15.662846 11.0832043,15.4103914 C10.7592024,15.1586782 10.3089732,14.9021458 9.73325809,14.6409795 C9.15680159,14.3803693 8.41908555,14.0875071 7.51899785,13.7633199 C6.72678722,13.475833 5.96645778,13.1470119 5.23763882,12.7779685 C4.50844915,12.4092958 3.8693424,11.9638859 3.32050391,11.4413679 C2.77129472,10.9195914 2.3303333,10.3073612 1.9974343,9.60541883 C1.6641646,8.90347647 1.49808581,8.07567752 1.49808581,7.12146593 C1.49808581,6.20321336 1.68232947,5.3574349 2.05137284,4.58338913 C2.4200455,3.80952872 2.9243986,3.14817927 3.56350535,2.59878472 C4.20224139,2.04994623 4.94941057,1.62251579 5.80445682,1.31630803 C6.65931771,1.01047098 7.58183346,0.857367099 8.57218943,0.857367099 C10.2279727,0.857367099 11.6231457,1.07330659 12.7571524,1.50537093 C13.8911591,1.93724992 14.8991239,2.56764495 15.7810467,3.39525854 L12.8652148,6.33833773 C12.3250881,5.81637583 11.7219403,5.41600733 11.0561423,5.13667616 C10.3899736,4.85808641 9.60703079,4.71832815 8.70694309,4.71832815 C8.29285826,4.71832815 7.91065463,4.78153447 7.55959077,4.90739105 C7.20852691,5.03343299 6.90676769,5.20006784 6.65505453,5.4069249 C6.4027853,5.61396731 6.20019142,5.85696875 6.04764361,6.13592921 C5.89453973,6.41507502 5.81798779,6.70756646 5.81798779,7.01321815 C5.81798779,7.35557029 5.88972048,7.66604123 6.03392728,7.94500169 C6.17794873,8.22414751 6.42076481,8.49421089 6.76311695,8.75482113 C7.10472767,9.01598743 7.55959077,9.27715373 8.12659412,9.53794933 C8.69359748,9.79911563 9.39980302,10.0825246 10.2461375,10.3883617 C11.3260204,10.7664875 12.2529847,11.1807577 13.0272158,11.6304308 C13.8008908,12.0804747 14.4311005,12.5753746 14.9171034,13.1155014 C15.4031063,13.6554428 15.7630672,14.2630391 15.9971716,14.9379195 C16.2309052,15.6129853 16.3482354,16.3736854 16.3482354,17.2194639" id="Fill-8" fill="#000000"></path>
            <path d="M25.7163894,22.8087379 C25.4101817,22.9523886 25.0637517,23.0693481 24.6769142,23.1598017 C24.2897059,23.2495139 23.8893374,23.2945554 23.4752526,23.2945554 C22.8991668,23.2945554 22.3455091,23.2178181 21.8148354,23.0652703 C21.2836058,22.9121664 20.8200309,22.6649018 20.4242963,22.322735 C20.028191,21.9809389 19.7129008,21.5353436 19.4793525,20.9861344 C19.2450628,20.4372959 19.1282887,19.7757611 19.1282887,19.00153 L19.1282887,0.479296899 L23.0973121,0.479296899 L23.0973121,18.3264642 C23.0973121,18.9744681 23.2276173,19.4200634 23.4887836,19.6630648 C23.7495792,19.9060663 24.0600501,20.0276596 24.4203818,20.0276596 C24.8702402,20.0276596 25.3021192,19.8927206 25.7163894,19.6226573 L25.7163894,22.8087379 Z" id="Fill-10" fill="#000000"></path>
            <path d="M36.7313925,19.00153 L36.7313925,16.1125747 L34.949382,16.1125747 C34.4094406,16.1125747 33.9006389,16.1487191 33.4239038,16.2204518 C32.946798,16.2927405 32.5328986,16.4141486 32.1818347,16.5850466 C31.8309562,16.7563154 31.551625,16.976518 31.344768,17.2465814 C31.1377256,17.5164594 31.0344824,17.8404614 31.0344824,18.2185872 C31.0344824,18.7585286 31.2456026,19.1998607 31.6689552,19.5416568 C32.0915664,19.8838236 32.6361417,20.0547216 33.3023104,20.0547216 C33.8782109,20.0547216 34.4498481,19.9646387 35.0168515,19.7846582 C35.5840402,19.6048631 36.1553067,19.3438821 36.7313925,19.00153 L36.7313925,19.00153 Z M40.6196009,22.8897384 L36.7313925,22.8897384 L36.7313925,22.0526716 C36.0472443,22.5208803 35.3226885,22.8448823 34.5579105,23.0246774 C33.7927619,23.2044725 33.0053705,23.2945554 32.1953657,23.2945554 C31.4392994,23.2945554 30.7551512,23.1820444 30.1432918,22.9572079 C29.5310616,22.7323713 29.0000173,22.4083694 28.5501588,21.9852021 C28.1003003,21.5624056 27.753685,21.0628717 27.5108689,20.4866006 C27.2676821,19.9107001 27.146274,19.2715934 27.146274,18.569651 C27.146274,17.6879135 27.3394148,16.9183163 27.7268084,16.2610447 C28.1136459,15.6041438 28.6402417,15.0553053 29.306225,14.6139732 C29.972023,14.1731971 30.7507027,13.8445613 31.6418933,13.6286218 C32.5328986,13.412497 33.4915587,13.3046199 34.517503,13.3046199 L36.7584545,13.3046199 C36.7584545,12.3865527 36.4615145,11.6575484 35.8674492,11.1174216 C35.2733839,10.5774802 34.4183376,10.3074168 33.3023104,10.3074168 C32.762369,10.3074168 32.2042628,10.4065822 31.6283623,10.6043568 C31.0519058,10.8028728 30.4761908,11.1626484 29.9002903,11.684425 L27.6054003,9.362473 C28.4330139,8.57063308 29.3914887,7.95840292 30.4808247,7.52633858 C31.5696045,7.09445959 32.6902656,6.8785201 33.8424372,6.8785201 C34.92232,6.8785201 35.8839458,7.04978885 36.7273147,7.39139956 C37.5701274,7.73356635 38.2509393,8.17434241 38.7695647,8.71446917 C39.4487083,9.39861738 39.9267409,10.1635807 40.2038478,11.0095445 C40.4807694,11.8556937 40.6196009,12.9357619 40.6196009,14.2493783 L40.6196009,22.8897384 Z" id="Fill-12" fill="#000000"></path>
            <path d="M55.2290419,18.5155086 C55.2290419,19.2897397 55.04832,19.9783365 54.6876177,20.5811135 C54.3265446,21.1842612 53.8574091,21.6880583 53.2802112,22.093246 C52.7031986,22.498063 52.0533412,22.8044562 51.3321218,23.0111279 C50.610161,23.2177996 49.8976534,23.3217842 49.1942282,23.3217842 C48.0035026,23.3217842 46.9073085,23.1010254 45.9062019,22.660064 C44.9047246,22.2192879 44.0255821,21.5127117 43.2678476,20.5407059 L45.6168615,18.1644447 C46.0846995,18.7586954 46.6246409,19.2222702 47.2368711,19.5549839 C47.8485452,19.8882536 48.5060022,20.0547031 49.2079445,20.0547031 C49.8194333,20.0547031 50.3284203,19.9423774 50.7334226,19.7169848 C51.138425,19.4923336 51.3408336,19.1546154 51.3408336,18.7047569 C51.3408336,18.2367335 51.0527907,17.8452621 50.4768902,17.5301572 C49.9006191,17.2152378 49.0906143,16.9049522 48.0468759,16.598559 C47.4346457,16.4187639 46.8405804,16.1892935 46.2648653,15.9099623 C45.6884088,15.6310018 45.1755294,15.2890204 44.7258562,14.884018 C44.275627,14.4790156 43.9158514,14.0158115 43.6457881,13.4934789 C43.3757247,12.9717024 43.2407857,12.36874 43.2407857,11.6844064 C43.2407857,10.9283402 43.4165029,10.2491966 43.7684936,9.64586347 C44.1202989,9.04308645 44.5803519,8.53891871 45.1484674,8.13391631 C45.7167683,7.72891392 46.3618064,7.41844297 47.0837672,7.20250348 C47.8049866,6.98637863 48.5358444,6.87850156 49.2757847,6.87850156 C51.6570505,6.87850156 53.6055106,7.77858927 55.1209795,9.57839396 L52.7990275,11.9274079 C52.3487983,11.3696723 51.8357335,10.9283402 51.2598331,10.6043382 C50.6837473,10.2803363 50.053723,10.1183354 49.3699455,10.1183354 C49.1356558,10.1183354 48.8880204,10.1500312 48.6274102,10.2128668 C48.3662439,10.2762585 48.1232425,10.3659707 47.8982205,10.4829302 C47.6730132,10.6002604 47.4885842,10.7529936 47.3449335,10.9420565 C47.2005413,11.130934 47.1288087,11.3427957 47.1288087,11.576344 C47.1288087,11.9907995 47.4029499,12.3505751 47.9523444,12.6565975 C48.5011829,12.9628053 49.2887596,13.2686423 50.3148893,13.5744794 C50.9805019,13.7728101 51.6108969,14.0245232 52.2049622,14.3305456 C52.7990275,14.6367534 53.3208041,14.9918951 53.7710333,15.3970828 C54.2207064,15.8018999 54.5764042,16.2610262 54.8375705,16.7739056 C55.0981807,17.2869704 55.2290419,17.8675048 55.2290419,18.5155086" id="Fill-14" fill="#000000"></path>
            <g id="Group-18" transform="translate(57.726020, 0.392180)">
                <mask id="mask-4" fill="white">
                    <use xlink:href="#path-3"></use>
                </mask>
                <g id="Clip-17"></g>
                <path d="M14.1916546,22.497466 L10.3034463,22.497466 L10.3034463,13.155349 C10.3034463,12.5976134 10.2176266,12.1067913 10.0458017,11.6838094 C9.87416229,11.2610128 9.64784287,10.909949 9.36795563,10.6308031 C9.08769768,10.352028 8.76202756,10.1446149 8.39150134,10.0096759 C8.02116048,9.87473689 7.63691793,9.80726738 7.23932977,9.80726738 C6.64285485,9.80726738 6.07325651,9.89753565 5.53109083,10.0771454 C4.9887398,10.2574966 4.46455363,10.5092097 3.95853234,10.8332117 L3.95853234,22.497466 L0.0703239857,22.497466 L0.0703239857,0.114086487 L3.95853234,0.114086487 L3.98540892,7.78207005 C4.56130936,7.33258227 5.22747805,6.99931256 5.98354431,6.78318771 C6.73942521,6.56724822 7.46861488,6.4591858 8.17055724,6.4591858 C8.98056204,6.4591858 9.74552537,6.59004698 10.4654472,6.85065722 C11.1851838,7.11182352 11.8244759,7.50792884 12.3825822,8.03860246 C12.9403177,8.56983215 13.3816498,9.23600085 13.7056518,10.0367378 C14.0296537,10.8380309 14.1916546,11.7876086 14.1916546,12.8852856 L14.1916546,22.497466 Z" id="Fill-16" fill="#000000" mask="url(#mask-4)"></path>
            </g>
        </g>
    </g>
</svg>