<?xml version="1.0" encoding="UTF-8"?>
<svg width="213px" height="41px" viewBox="0 0 213 41" version="1.1" xmlns="http://www.w3.org/2000/svg" xmlns:xlink="http://www.w3.org/1999/xlink">
    <!-- Generator: Sketch 46 (44423) - http://www.bohemiancoding.com/sketch -->
    <title>Logo</title>
    <desc>Created with Sketch.</desc>
    <defs></defs>
    <g id="Page-1" stroke="none" stroke-width="1" fill="none" fill-rule="evenodd">
        <g id="Desktop-HD" transform="translate(-629.000000, -17.000000)">
            <g id="Logo" transform="translate(629.000000, 17.000000)">
                <g id="taskslayer4" fill-rule="nonzero" fill="#5200C6">
                    <path d="M20.4582485,11.9242363 C15.7403259,11.9242363 11.9075356,15.7486762 11.9075356,20.4749491 C11.9075356,25.201222 15.7403259,29.0256619 20.4582485,29.0256619 C25.1761711,29.0256619 29.0089613,25.201222 29.0089613,20.4749491 C29.0089613,15.7570265 25.1845214,11.9242363 20.4582485,11.9242363 Z M21.0177189,22.4038697 L19.3309572,24.0822811 L17.6525458,22.3955193 L16.0325866,20.7672098 L17.7193483,19.0887984 L19.3393075,20.7171079 L23.2138493,16.8676171 L24.8922607,18.5543788 L21.0177189,22.4038697 Z" id="Shape"></path>
                    <path d="M39.4384929,18.9718941 L37.6515275,18.9718941 C36.9334012,10.6382892 30.2949084,3.99979633 21.9613035,3.28167006 L21.9613035,1.49470468 C21.9613035,0.66802444 21.293279,0 20.4665988,0 C19.6399185,0 18.9718941,0.66802444 18.9718941,1.49470468 L18.9718941,3.28167006 C10.6382892,3.99979633 3.99979633,10.6382892 3.28167006,18.9718941 L1.49470468,18.9718941 C0.66802444,18.9718941 0,19.6399185 0,20.4665988 C0,21.293279 0.66802444,21.9613035 1.49470468,21.9613035 L3.28167006,21.9613035 C3.99979633,30.2949084 10.6382892,36.9334012 18.9718941,37.6515275 L18.9718941,39.4384929 C18.9718941,40.2651731 19.6399185,40.9331976 20.4665988,40.9331976 C21.293279,40.9331976 21.9613035,40.2651731 21.9613035,39.4384929 L21.9613035,37.6515275 C30.2949084,36.9334012 36.9334012,30.2949084 37.6515275,21.9613035 L39.4384929,21.9613035 C40.2651731,21.9613035 40.9331976,21.293279 40.9331976,20.4665988 C40.9331976,19.6399185 40.2651731,18.9718941 39.4384929,18.9718941 Z M34.7372709,21.9529532 C34.0441955,28.6916497 28.6832994,34.0525458 21.9446029,34.7456212 L21.9446029,31.4723014 L18.9635438,31.4723014 L18.9635438,34.7456212 C12.2248473,34.0525458 6.86395112,28.6916497 6.17087576,21.9529532 L9.44419552,21.9529532 L9.44419552,18.9718941 L6.17087576,18.9718941 C6.86395112,12.2331976 12.2248473,6.87230143 18.9635438,6.17922607 L18.9635438,9.45254582 L21.9446029,9.45254582 L21.9446029,6.17922607 C28.6832994,6.87230143 34.0441955,12.2331976 34.7372709,18.9718941 L31.4639511,18.9718941 L31.4639511,21.9529532 L34.7372709,21.9529532 Z" id="Shape"></path>
                </g>
                <text id="TaskSlayer-Copy-3" font-family="GALACTICVANGUARDIANNCV, GALACTIC VANGUARDIAN NCV" font-size="22" font-weight="normal" fill="#000000">
                    <tspan x="46" y="29">TaskSlayer</tspan>
                </text>
            </g>
        </g>
    </g>
</svg>