<?xml version="1.0" encoding="UTF-8"?>
<svg width="24px" height="22px" viewBox="0 0 24 22" version="1.1" xmlns="http://www.w3.org/2000/svg" xmlns:xlink="http://www.w3.org/1999/xlink">
    <!-- Generator: sketchtool 58 (101010) - https://sketch.com -->
    <title>3A6AAC91-0F4E-47E1-A572-DA47F4B83091</title>
    <desc>Created with sketchtool.</desc>
    <g id="Website" stroke="none" stroke-width="1" fill="none" fill-rule="evenodd">
        <g id="01-HOME-R3.1" transform="translate(-924.000000, -639.000000)" fill-rule="nonzero">
            <g id="OVERVIEW" transform="translate(290.500000, 630.000000)">
                <g id="Tabs" transform="translate(101.500000, 0.000000)">
                    <g id="Icon/Listing-Copy-3-Icon/Focus-Alt-Copy-2" transform="translate(524.231152, 0.000000)">
                        <g id="jam-repeat" transform="translate(6.000000, 6.000000)">
                            <g id="Icon" transform="translate(2.000000, 3.000000)" fill="#AFB3C4">
                                <path d="M14.0696667,18 L15.4416667,19.372 C15.8838009,19.8297754 15.8774778,20.5574322 15.427455,21.007455 C14.9774322,21.4574778 14.2497754,21.4638009 13.792,21.0216667 L10.4915,17.7223333 C10.0360544,17.2667502 10.0360544,16.5282498 10.4915,16.0726667 L13.792,12.7721667 C14.247865,12.3166238 14.9867071,12.316885 15.44225,12.77275 C15.8977928,13.228615 15.8975317,13.9674571 15.4416667,14.423 L14.1968333,15.6666667 L16.6666667,15.6666667 C19.2439955,15.6666667 21.3333333,13.5773288 21.3333333,11 C21.3333333,8.42267117 19.2439955,6.33333333 16.6666667,6.33333333 C16.0223345,6.33333333 15.5,5.81099887 15.5,5.16666667 C15.5,4.52233446 16.0223345,4 16.6666667,4 C20.5326599,4 23.6666667,7.13400675 23.6666667,11 C23.6666667,14.8659932 20.5326599,18 16.6666667,18 L14.0696667,18 Z M9.98516667,4 L8.70533333,2.72133333 C8.2494683,2.2654683 8.2494683,1.52636504 8.70533333,1.0705 C9.16119837,0.614634963 9.90030163,0.614634963 10.3561667,1.0705 L13.6555,4.371 C14.1109456,4.82658316 14.1109456,5.56508351 13.6555,6.02066667 L10.3561667,9.32 C10.0614821,9.61489297 9.6318588,9.73017297 9.22913171,9.62241514 C8.82640462,9.5146573 8.51175757,9.20023261 8.40371505,8.7975818 C8.29567252,8.39493099 8.41064877,7.96522631 8.70533333,7.67033333 L10.0435,6.33333333 L7.33333333,6.33333333 C4.7560045,6.33333333 2.66666667,8.42267117 2.66666667,11 C2.66666667,13.5773288 4.7560045,15.6666667 7.33333333,15.6666667 C7.97766554,15.6666667 8.5,16.1890011 8.5,16.8333333 C8.5,17.4776655 7.97766554,18 7.33333333,18 C3.46734008,18 0.333333333,14.8659932 0.333333333,11 C0.333333333,7.13400675 3.46734008,4 7.33333333,4 L9.98516667,4 L9.98516667,4 Z" id="Icon-Shape"></path>
                            </g>
                            <rect id="ViewBox" x="0" y="0" width="28" height="28"></rect>
                        </g>
                    </g>
                </g>
            </g>
        </g>
    </g>
</svg>