<?xml version="1.0" encoding="UTF-8"?>
<svg width="29px" height="43px" viewBox="0 0 29 43" version="1.1" xmlns="http://www.w3.org/2000/svg" xmlns:xlink="http://www.w3.org/1999/xlink">
    <!-- Generator: Sketch 51.3 (57544) - http://www.bohemiancoding.com/sketch -->
    <title>Shape</title>
    <desc>Created with Sketch.</desc>
    <defs></defs>
    <g id="Page-1" stroke="none" stroke-width="1" fill="none" fill-rule="evenodd">
        <g id="Desktop-HD" transform="translate(-1178.000000, -646.000000)" fill="#FFFFFF" fill-rule="nonzero">
            <g id="Hero" transform="translate(-2.000000, 0.000000)">
                <g id="Features" transform="translate(0.000000, 627.000000)">
                    <g id="Group-7" transform="translate(1117.000000, 4.000000)">
                        <path d="M84.6890494,29.1202725 L82.6370465,31.1207843 C82.5685087,31.1876451 82.5372326,31.2837628 82.5534186,31.3781098 L83.0379041,34.2027883 C83.1660436,34.9499765 82.8646628,35.6908412 82.251532,36.1364392 C81.9050494,36.3882 81.4995552,36.5161039 81.0914477,36.5161039 C80.7773372,36.5161039 80.461625,36.4403059 80.1697703,36.2869392 L77.633282,34.9532647 C77.5485581,34.9087471 77.4474797,34.9087471 77.3628401,34.9532647 L74.8263518,36.2869392 C74.1555581,36.6397079 73.3578895,36.5820372 72.7445901,36.1364392 C72.1314593,35.6909255 71.8301628,34.9499765 71.958218,34.2028725 L72.4426192,31.3780255 C72.4588895,31.2837628 72.4276134,31.1875608 72.3590756,31.1207843 L70.3069884,29.1202725 C69.7643343,28.5912039 69.5726308,27.8146745 69.8068227,27.0937079 C70.0410145,26.3727412 70.6524593,25.8571628 71.4025814,25.7481451 L74.238343,25.3360196 C74.3330145,25.3222765 74.4148721,25.2628353 74.4572762,25.1769196 L75.7255203,22.6069529 C76.060875,21.9272157 76.7400988,21.5048883 77.498061,21.5048883 C78.255939,21.5048883 78.9351628,21.9272157 79.270686,22.6069529 L80.5389302,25.1769196 C80.5811657,25.2628353 80.6630232,25.3222765 80.7576948,25.3360196 L83.5934564,25.7481451 C84.3435785,25.8571628 84.9550232,26.3727412 85.1892151,27.0937079 C85.423407,27.8146745 85.2317035,28.5912039 84.6890494,29.1202725 M77.498061,15 C69.5037558,15 63,21.5046353 63,29.5000216 C63,37.4954079 69.5037558,44.0000431 77.498061,44.0000431 C85.492282,44.0000431 91.9962064,37.4954079 91.9962064,29.5000216 C91.9962064,21.5046353 85.492282,15 77.498061,15 M68.010357,42.60471 L68.010357,57.1568375 C68.010357,57.4463708 68.1588977,57.7155845 68.4037116,57.8700472 C68.54045,57.9563002 68.6967465,57.9999747 68.8534645,57.9999747 C68.9772203,57.9999747 69.1013977,57.9727414 69.216639,57.9176845 L72.179107,56.5029845 L72.179107,44.7872551 C70.6768395,44.262908 69.2749762,43.5230551 68.010357,42.60471 M77.4980695,45.6863176 C76.2492991,45.6863176 75.0334067,45.5439961 73.8651451,45.274951 L73.8651451,55.697898 L77.4980695,53.9630588 L81.1309939,55.697898 L81.1309939,45.274951 C79.9627323,45.5439961 78.7467555,45.6863176 77.4980695,45.6863176 M82.8170235,44.7872298 L82.8170235,56.5030435 L85.7794916,57.9176592 C86.0405759,58.0423593 86.3475206,58.0244004 86.5924189,57.870022 C86.8372328,57.7155592 86.9856893,57.4463455 86.9856893,57.1568121 L86.9856893,42.604769 C85.7211544,43.5230298 84.319291,44.2628828 82.8170235,44.7872298 M83.3509945,27.4168739 L80.5152328,27.0047484 C79.8712474,26.9111602 79.3149363,26.5068759 79.0268753,25.9232563 L77.7586311,23.3532053 C77.6890817,23.2122328 77.5654945,23.1911543 77.4980526,23.1911543 C77.4305265,23.1911543 77.3070235,23.2122328 77.2373898,23.3532053 L75.9692299,25.9232563 C75.6812532,26.5068759 75.1248578,26.9111602 74.4808724,27.0047484 L71.6450265,27.4168739 C71.4894044,27.43947 71.4311515,27.5505112 71.4103288,27.6147583 C71.3895061,27.678921 71.3712968,27.8030308 71.4838404,27.9127229 L73.5359276,29.9132347 C74.0019509,30.3675171 74.2143927,31.0216229 74.1043782,31.6630817 L73.619977,34.4879288 C73.5934218,34.6428975 73.6810962,34.7325229 73.7356398,34.7722347 C73.7901834,34.8118621 73.9026427,34.8675092 74.0417416,34.7943249 L76.5782299,33.4606504 C76.8662067,33.3093072 77.1821718,33.2335092 77.4980526,33.2335092 C77.8139334,33.2335092 78.1298143,33.3092229 78.4178753,33.4607347 L80.9542794,34.7943249 C81.0936311,34.8675935 81.2059218,34.8118621 81.2604654,34.7722347 C81.3150933,34.7325229 81.4026834,34.6428975 81.3760439,34.4878445 L80.8915584,31.6631661 C80.7815439,31.0216229 80.9941544,30.3674328 81.4601776,29.9131504 L83.5120962,27.9127229 C83.6247241,27.8030308 83.6065148,27.678921 83.5856922,27.6147583 C83.5647852,27.5505112 83.5066166,27.43947 83.3509945,27.4168739" id="Shape"></path>
                    </g>
                </g>
            </g>
        </g>
    </g>
</svg>