<?xml version="1.0" encoding="UTF-8"?>
<svg width="31px" height="29px" viewBox="0 0 31 29" version="1.1" xmlns="http://www.w3.org/2000/svg" xmlns:xlink="http://www.w3.org/1999/xlink">
    <!-- Generator: sketchtool 58 (101010) - https://sketch.com -->
    <title>995DE467-C1EA-4C5D-8158-10FAFA3C574A</title>
    <desc>Created with sketchtool.</desc>
    <g id="Website" stroke="none" stroke-width="1" fill="none" fill-rule="evenodd">
        <g id="01-HOME-R3.1" transform="translate(-764.000000, -635.000000)" fill="#AFB3C4">
            <g id="OVERVIEW" transform="translate(290.500000, 630.000000)">
                <g id="Tabs" transform="translate(101.500000, 0.000000)">
                    <g id="Icon/Listing-Copy-2-Icon/Reward" transform="translate(368.919636, 0.000000)">
                        <path d="M28.0111242,5.990625 L10.2244195,5.990625 L10.2244195,8.05409891 L4.04000201,8.05409891 L4.04000201,17.7330124 C4.04000201,21.4736843 8.21498414,24.551883 12.3119105,24.8721118 C13.6568712,26.3131411 16.022561,27.3598888 18.1280649,27.8062076 L18.1280649,30.3360146 C16.1146267,30.9544563 12.5180578,32.4074942 12.3119105,33.990625 L26.1297804,33.990625 C25.9216317,32.4074942 21.9588012,30.9524549 19.9413601,30.3360146 L19.9413601,27.8062076 C22.0548698,27.3598888 24.5266353,26.3131411 25.8735974,24.8721118 C29.9685224,24.551883 33.959373,21.4736843 33.959373,17.7330124 L33.959373,8.05409891 L28.0111242,8.05409891 L28.0111242,5.990625 Z M5.93935869,9.88740842 L10.0803165,9.88740842 L10.0803165,18.2253641 C10.0803165,19.8705392 10.5046196,21.4356572 11.2511528,22.8446636 C8.15293982,21.8579588 5.93935869,19.3161432 5.93935869,16.3420189 L5.93935869,9.88740842 Z M22.1589441,20.0566722 L19.0687368,18.3534556 L15.9745267,20.0566722 L16.5649484,16.4540989 L14.0631614,13.9042776 L17.5196303,13.3779016 L19.0687368,10.1035628 L20.6138405,13.3779016 L24.0703094,13.9042776 L21.5685224,16.4540989 L22.1589441,20.0566722 Z M26.752225,23.1108537 C27.5027611,21.6378016 27.9330685,20.0086379 27.9330685,18.285407 L27.9330685,9.94144702 L32.0840335,9.94144702 L32.0840335,16.3180017 C32.0840335,19.4262219 29.8604452,22.0801175 26.752225,23.1108537 Z" id="Icon-Shape"></path>
                    </g>
                </g>
            </g>
        </g>
    </g>
</svg>